{
.appVersion = "1075";
copyright = "Copyright 2018 Google Inc. All Rights Reserved.";
customParameters = (
{
name = glyphOrder;
value = (
.notdef,
NULL,
CR,
space,
A_iv,
AA_iv,
I_iv,
II_iv,
U_iv,
UU_iv,
R_iv,
Rr_iv,
L_iv,
LL_iv,
E_iv,
AI_iv,
O_iv,
AU_iv,
Ka,
Kha,
Ga,
Gha,
Nga,
Ngha,
Ca,
Cha,
Ja,
Jha,
Nya,
Nyha,
Tta,
Ttha,
Dda,
Ddha,
Nna,
Ta,
Tha,
Da,
Dha,
Na,
Nha,
Pa,
Pha,
Ba,
Bha,
Ma,
Mha,
Ya,
Ra,
Rha,
La,
Lha,
Wa,
Sha,
Ssa,
Sa,
Ha,
AA_dv,
I_dv,
II_dv,
U_dv,
UU_dv,
R_dv,
RR_dv,
L_dv,
LL_dv,
E_dv,
AI_dv,
O_dv,
AU_dv,
Virama,
Candrabindu,
Anusvara,
Visarga,
Nukta,
Avagraha,
Finalanusvara,
Om,
Siddhi,
Danda,
Dbldanda,
Comma,
Gapfiller,
Abbreviation,
Zero_Newa,
One_Newa,
Two_Newa,
Three_Newa,
Four_Newa,
Five_Newa,
Six_Newa,
Seven_Newa,
Eight_Newa,
Nine_Newa,
Placeholder,
Insertion,
periodcentered,
Ka.nohd,
Kha.nohd,
Gha.nohd,
Nga.nohd,
Ngha.nohd,
Ca.nohd,
Cha.nohd,
Ja.nohd,
Jha.nohd,
Nyha.nohd,
Tta.nohd,
Dda.nohd,
Ddha.nohd,
Ta.nohd,
Da.nohd,
Na.nohd,
Nha.nohd,
Pa.nohd,
Pha.nohd,
Ba.nohd,
Bha.nohd,
Bha.alt.nohd,
Ma.nohd,
Mha.nohd,
Ya.nohd,
Ra.nohd,
Rha.nohd,
La.nohd,
Lha.nohd,
Wa.nohd,
Ssa.nohd,
Sa.nohd,
Ha.nohd,
Ha.alt.nohd,
AA_dv.alt,
AA_dv.alt2,
AA_dv.alt3,
E_dv.alt,
AI_dv.alt,
O_dv.alt,
AU_dv.alt,
Ha_Nga,
Ha_Nya,
Ha_Nna,
Ha_Na,
Ha_Ma,
Ha_Ra,
Ha_La,
Nga_Ha,
Nya_Ha,
Nna_Ha,
Na_Ha,
Ma_Ha,
Ra_Ha,
La_Ha,
Bha.alt,
Ha.alt,
Ju,
Juu,
Ru,
Ruu,
Ka.icd,
Ka.cd,
Kha.icd,
Kha.cd,
Kha.half,
Ga.icd,
Ga.cd,
Ga.half,
Gha.icd,
Gha.cd,
Gha.half,
Nga.icd,
Nga.cd,
Ca.icd,
Ca.cd,
Ca.half,
Cha.icd,
Cha.cd,
Ja.icd,
Ja.cd,
Jha.icd,
Jha.cd,
Jha.half,
Nya.icd,
Nya_nostem.icd,
Nya.cd,
Nya_stem.cd,
Nya_low.cd,
Nya.cd.alt,
Nya_stem.cd.alt,
Tta.icd,
Tta.cd,
Ttha.icd,
Ttha.cd,
Dda.icd,
Dda.cd,
Ddha.icd,
Ddha.cd,
Nna.icd,
Nna.half,
Nna.post,
Nna.post.alt,
Nna.post.alt2,
Nna.post.nostem,
Ta.icd,
Ta.half,
Ta.post,
Tha.icd,
Tha.half,
Tha.post,
Tha.post.alt,
Da.icd,
Da.cd,
Dha.icd,
Dha.cd,
Dha.half,
Na.icd,
Na.cd,
Na.half,
Pa.icd,
Pa.cd,
Pa.half,
Pha.icd,
Pha.cd,
Ba.icd,
Ba.cd,
Ba.half,
Bha.icd,

glyphs = (
{
glyphname = .notdef;
lastChange = "2018-01-30 20:22:39 +0000";
layers = (
{
layerId = UUID0;
paths = (
{
closed = 1;
nodes = (
"505 0 LINE",
"505 714 LINE",
"94 714 LINE",
"94 0 LINE"
);
},
{
closed = 1;
nodes = (
"145 663 LINE",
"454 663 LINE",
"454 51 LINE",
"145 51 LINE"
);
}
);
width = 600;
}
);
},
{
glyphname = A_iv;
lastChange = "2018-01-30 20:22:39 +0000";
layers = (
{
layerId = UUID0;
paths = (
{
closed = 1;
nodes = (
"648 622 LINE",
"0 622 LINE",
"0 551 LINE",
"477 551 LINE",
"477 21 LINE",
"558 43 LINE",
"558 551 LINE",
"648 551 LINE"
);
},
{
closed = 1;
nodes = (
"185 385 LINE",
"195 395 OFFCURVE",
"221 404 OFFCURVE",
"243 404 CURVE SMOOTH",
"306 404 OFFCURVE",
"349 355 OFFCURVE",
"349 281 CURVE SMOOTH",
"349 200 OFFCURVE",
"316 160 OFFCURVE",
"258 160 CURVE SMOOTH",
"179 160 OFFCURVE",
"113 237 OFFCURVE",
"46 396 CURVE",
"-20 364 LINE",
"55 172 OFFCURVE",
"150 88 OFFCURVE",
"267 88 CURVE SMOOTH",
"348 88 OFFCURVE",
"428 152 OFFCURVE",
"428 278 CURVE SMOOTH",
"428 406 OFFCURVE",
"342 470 OFFCURVE",
"248 470 CURVE SMOOTH",
"215 470 OFFCURVE",
"173 463 OFFCURVE",
"145 437 CURVE"
);
},
{
closed = 1;
nodes = (
"357 294 LINE",
"399 277 OFFCURVE",
"450 254 OFFCURVE",
"510 218 CURVE",
"545 284 LINE",
"498 310 OFFCURVE",
"439 338 OFFCURVE",
"382 357 CURVE"
);
},
{
closed = 1;
nodes = (
"507 79 LINE",
"477 49 OFFCURVE",
"480 33 OFFCURVE",
"433 32 CURVE",
"447 -14 LINE",
"491 -37 OFFCURVE",
"537 -52 OFFCURVE",
"630 -168 CURVE",
"687 -118 LINE",
"637 -50 OFFCURVE",
"521 75 OFFCURVE",
"405 75 CURVE SMOOTH",
"358 75 OFFCURVE",
"333 45 OFFCURVE",
"333 15 CURVE SMOOTH",
"333 -21 OFFCURVE",
"371 -46 OFFCURVE",
"418 -46 CURVE SMOOTH",
"497 -46 OFFCURVE",
"558 -20 OFFCURVE",
"558 46 CURVE"
);
}
);
width = 638;
}
);
unicode = 11400;
},
{
glyphname = AA_iv;
lastChange = "2018-01-30 20:22:39 +0000";
layers = (
{
layerId = UUID0;
paths = (
{
closed = 1;
nodes = (
"668 0 LINE",
"749 0 LINE",
"749 622 LINE",
"668 622 LINE"
);
},
{
closed = 1;
nodes = (
"438 622 LINE",
"0 622 LINE",
"0 551 LINE",
"438 551 LINE"
);
},
{
closed = 1;
nodes = (
"357 294 LINE",
"399 277 OFFCURVE",
"450 254 OFFCURVE",
"510 218 CURVE",
"545 284 LINE",
"498 310 OFFCURVE",
"439 338 OFFCURVE",
"382 357 CURVE"
);
},
{
closed = 1;
nodes = (
"507 79 LINE",
"477 49 OFFCURVE",
"480 33 OFFCURVE",
"433 32 CURVE",
"447 -14 LINE",
"491 -37 OFFCURVE",
"537 -52 OFFCURVE",
"630 -168 CURVE",
"687 -118 LINE",
"637 -50 OFFCURVE",
"521 75 OFFCURVE",
"405 75 CURVE SMOOTH",
"358 75 OFFCURVE",
"333 45 OFFCURVE",
"333 15 CURVE SMOOTH",
"333 -21 OFFCURVE",
"371 -46 OFFCURVE",
"418 -46 CURVE SMOOTH",
"501 -46 OFFCURVE",
"558 -18 OFFCURVE",
"558 46 CURVE"
);
},
{
closed = 1;
nodes = (
"839 622 LINE",
"391 622 LINE",
"391 551 LINE",
"477 551 LINE",
"477 21 LINE",
"558 43 LINE",
"558 551 LINE",
"839 551 LINE"
);
},
{
closed = 1;
nodes = (
"185 385 LINE",
"195 395 OFFCURVE",
"221 404 OFFCURVE",
"243 404 CURVE SMOOTH",
"306 404 OFFCURVE",
"349 355 OFFCURVE",
"349 281 CURVE SMOOTH",
"349 200 OFFCURVE",
"316 160 OFFCURVE",
"258 160 CURVE SMOOTH",
"179 160 OFFCURVE",
"113 237 OFFCURVE",
"46 396 CURVE",
"-20 364 LINE",
"55 172 OFFCURVE",
"150 88 OFFCURVE",
"267 88 CURVE SMOOTH",
"348 88 OFFCURVE",
"428 152 OFFCURVE",
"428 278 CURVE SMOOTH",
"428 406 OFFCURVE",
"342 470 OFFCURVE",
"248 470 CURVE SMOOTH",
"215 470 OFFCURVE",
"173 463 OFFCURVE",
"145 437 CURVE"
);
}
);
width = 829;
}
);
unicode = 11401;
category = Letter;
},
{
glyphname = I_iv;
lastChange = "2018-01-30 20:22:39 +0000";
layers = (
{
layerId = UUID0;
paths = (
{
closed = 1;
nodes = (
"303 176 OFFCURVE",
"356 238 OFFCURVE",
"356 316 CURVE SMOOTH",
"356 395 OFFCURVE",
"303 455 OFFCURVE",
"218 455 CURVE SMOOTH",
"129 455 OFFCURVE",
"79 391 OFFCURVE",
"79 316 CURVE SMOOTH",
"79 234 OFFCURVE",
"136 176 OFFCURVE",
"218 176 CURVE SMOOTH"
);
},
{
closed = 1;
nodes = (
"173 242 OFFCURVE",
"149 272 OFFCURVE",
"149 316 CURVE SMOOTH",
"149 356 OFFCURVE",
"169 389 OFFCURVE",
"218 389 CURVE SMOOTH",
"264 389 OFFCURVE",
"286 358 OFFCURVE",
"286 316 CURVE SMOOTH",
"286 272 OFFCURVE",
"264 242 OFFCURVE",
"218 242 CURVE SMOOTH"
);
},
{
closed = 1;
nodes = (
"351 675 LINE",
"342 628 OFFCURVE",
"315 619 OFFCURVE",
"281 619 CURVE SMOOTH",
"241 619 OFFCURVE",
"216 658 OFFCURVE",
"157 658 CURVE SMOOTH",
"126 658 OFFCURVE",
"90 642 OFFCURVE",
"48 585 CURVE",
"91 553 LINE",
"103 571 OFFCURVE",
"128 590 OFFCURVE",
"155 590 CURVE SMOOTH",
"184 590 OFFCURVE",
"227 551 OFFCURVE",
"283 551 CURVE SMOOTH",
"354 551 OFFCURVE",
"410 603 OFFCURVE",
"412 675 CURVE"
);
},
{
closed = 1;
nodes = (
"650 681 LINE",
"624 640 OFFCURVE",
"580 619 OFFCURVE",
"532 619 CURVE SMOOTH",
"501 619 OFFCURVE",
"422 631 OFFCURVE",
"412 675 CURVE",
"349 651 LINE",
"366 585 OFFCURVE",
"445 551 OFFCURVE",
"533 551 CURVE SMOOTH",
"604 551 OFFCURVE",
"664 580 OFFCURVE",
"705 651 CURVE"
);
},
{
closed = 1;
nodes = (
"633 176 OFFCURVE",
"686 238 OFFCURVE",
"686 316 CURVE SMOOTH",
"686 395 OFFCURVE",
"633 455 OFFCURVE",
"548 455 CURVE SMOOTH",
"459 455 OFFCURVE",
"409 391 OFFCURVE",
"409 316 CURVE SMOOTH",
"409 234 OFFCURVE",
"466 176 OFFCURVE",
"548 176 CURVE SMOOTH"
);
},
{
closed = 1;
nodes = (
"503 242 OFFCURVE",
"479 272 OFFCURVE",
"479 316 CURVE SMOOTH",
"479 356 OFFCURVE",
"499 389 OFFCURVE",
"548 389 CURVE SMOOTH",
"594 389 OFFCURVE",
"616 358 OFFCURVE",
"616 316 CURVE SMOOTH",
"616 272 OFFCURVE",
"594 242 OFFCURVE",
"548 242 CURVE SMOOTH"
);
},
{
closed = 1;
nodes = (
"262 99 OFFCURVE",
"198 56 OFFCURVE",
"198 -12 CURVE SMOOTH",
"198 -64 OFFCURVE",
"234 -104 OFFCURVE",
"281 -104 CURVE SMOOTH",
"327 -104 OFFCURVE",
"364 -64 OFFCURVE",
"364 -13 CURVE SMOOTH",
"364 1 OFFCURVE",
"361 14 OFFCURVE",
"356 26 CURVE",
"363 27 OFFCURVE",
"370 27 OFFCURVE",
"378 27 CURVE SMOOTH",
"461 27 OFFCURVE",
"530 -22 OFFCURVE",
"602 -105 CURVE",
"670 -66 LINE",
"589 35 OFFCURVE",
"495 99 OFFCURVE",
"362 99 CURVE SMOOTH"
);
}
);
width = 755;
}
);
unicode = 11402;
},
{
glyphname = II_iv;
lastChange = "2018-01-30 20:22:39 +0000";
layers = (
{
layerId = UUID0;
paths = (
{
closed = 1;
nodes = (
"753 0 LINE",
"834 0 LINE",
"834 603 LINE",
"753 603 LINE"
);
},
{
closed = 1;
nodes = (
"834 598 LINE",
"834 761 OFFCURVE",
"772 793 OFFCURVE",
"724 793 CURVE SMOOTH",
"606 793 OFFCURVE",
"615 619 OFFCURVE",
"504 619 CURVE SMOOTH",
"472 619 OFFCURVE",
"421 631 OFFCURVE",
"411 675 CURVE",
"348 651 LINE",
"365 585 OFFCURVE",
"444 551 OFFCURVE",
"502 551 CURVE SMOOTH",
"652 551 OFFCURVE",
"659 723 OFFCURVE",
"714 723 CURVE SMOOTH",
"744 723 OFFCURVE",
"753 680 OFFCURVE",
"753 602 CURVE"
);
},
{
closed = 1;
nodes = (
"303 176 OFFCURVE",
"356 238 OFFCURVE",
"356 316 CURVE SMOOTH",
"356 395 OFFCURVE",
"303 455 OFFCURVE",
"218 455 CURVE SMOOTH",
"129 455 OFFCURVE",
"79 391 OFFCURVE",
"79 316 CURVE SMOOTH",
"79 234 OFFCURVE",
"136 176 OFFCURVE",
"218 176 CURVE SMOOTH"
);
},
{
closed = 1;
nodes = (
"173 242 OFFCURVE",
"149 272 OFFCURVE",
"149 316 CURVE SMOOTH",
"149 356 OFFCURVE",
"169 389 OFFCURVE",
"218 389 CURVE SMOOTH",
"264 389 OFFCURVE",
"286 358 OFFCURVE",
"286 316 CURVE SMOOTH",
"286 272 OFFCURVE",
"264 242 OFFCURVE",
"218 242 CURVE SMOOTH"
);
},
{
closed = 1;
nodes = (
"351 675 LINE",
"342 628 OFFCURVE",
"315 619 OFFCURVE",
"281 619 CURVE SMOOTH",
"241 619 OFFCURVE",
"216 658 OFFCURVE",
"157 658 CURVE SMOOTH",
"126 658 OFFCURVE",
"90 642 OFFCURVE",
"48 585 CURVE",
"91 553 LINE",
"103 571 OFFCURVE",
"128 590 OFFCURVE",
"155 590 CURVE SMOOTH",
"184 590 OFFCURVE",
"227 551 OFFCURVE",
"283 551 CURVE SMOOTH",
"354 551 OFFCURVE",
"411 604 OFFCURVE",
"411 675 CURVE"
);
},
{
closed = 1;
nodes = (
"633 176 OFFCURVE",
"686 238 OFFCURVE",
"686 316 CURVE SMOOTH",
"686 395 OFFCURVE",
"633 455 OFFCURVE",
"548 455 CURVE SMOOTH",
"459 455 OFFCURVE",
"409 391 OFFCURVE",
"409 316 CURVE SMOOTH",
"409 234 OFFCURVE",
"466 176 OFFCURVE",
"548 176 CURVE SMOOTH"
);
},
{
closed = 1;
nodes = (
"503 242 OFFCURVE",
"479 272 OFFCURVE",
"479 316 CURVE SMOOTH",
"479 356 OFFCURVE",
"499 389 OFFCURVE",
"548 389 CURVE SMOOTH",
"594 389 OFFCURVE",
"616 358 OFFCURVE",
"616 316 CURVE SMOOTH",
"616 272 OFFCURVE",
"594 242 OFFCURVE",
"548 242 CURVE SMOOTH"
);
},
{
closed = 1;
nodes = (
"264 99 OFFCURVE",
"198 59 OFFCURVE",
"198 -13 CURVE SMOOTH",
"198 -64 OFFCURVE",
"234 -104 OFFCURVE",
"281 -104 CURVE SMOOTH",
"327 -104 OFFCURVE",
"364 -64 OFFCURVE",
"364 -13 CURVE SMOOTH",
"364 1 OFFCURVE",
"361 14 OFFCURVE",
"356 26 CURVE",
"363 27 OFFCURVE",
"370 27 OFFCURVE",
"378 27 CURVE SMOOTH",
"461 27 OFFCURVE",
"530 -22 OFFCURVE",
"602 -105 CURVE",
"670 -66 LINE",
"589 35 OFFCURVE",
"495 99 OFFCURVE",
"362 99 CURVE SMOOTH"
);
}
);
width = 914;
}
);
unicode = 11403;
category = Letter;
},
{
glyphname = U_iv;
lastChange = "2018-01-30 20:22:39 +0000";
layers = (
{
layerId = UUID0;
paths = (
{
closed = 1;
nodes = (
"0 551 LINE",
"559 551 LINE",
"559 622 LINE",
"0 622 LINE"
);
},
{
closed = 1;
nodes = (
"203 334 LINE",
"348 311 OFFCURVE",
"400 235 OFFCURVE",
"400 169 CURVE SMOOTH",
"400 94 OFFCURVE",
"361 60 OFFCURVE",
"296 60 CURVE SMOOTH",
"206 60 OFFCURVE",
"138 152 OFFCURVE",
"71 340 CURVE",
"0 317 LINE",
"85 70 OFFCURVE",
"168 -12 OFFCURVE",
"300 -12 CURVE SMOOTH",
"406 -12 OFFCURVE",
"481 51 OFFCURVE",
"481 165 CURVE SMOOTH",
"481 260 OFFCURVE",
"418 345 OFFCURVE",
"296 375 CURVE"
);
},
{
closed = 1;
nodes = (
"348 554 LINE SMOOTH",
"348 488 OFFCURVE",
"312 410 OFFCURVE",
"214 399 CURVE",
"203 334 LINE",
"343 342 OFFCURVE",
"429 449 OFFCURVE",
"429 556 CURVE SMOOTH",
"429 577 LINE",
"348 569 LINE"
);
}
);
width = 549;
}
);
unicode = 11404;
},
{
glyphname = UU_iv;
lastChange = "2018-01-30 20:22:39 +0000";
layers = (
{
layerId = UUID0;
paths = (
{
closed = 1;
nodes = (
"590 -25 LINE",
"618 39 OFFCURVE",
"638 120 OFFCURVE",
"638 214 CURVE SMOOTH",
"638 322 OFFCURVE",
"594 411 OFFCURVE",
"481 411 CURVE SMOOTH",
"433 411 OFFCURVE",
"372 381 OFFCURVE",
"342 357 CURVE",
"397 313 LINE",
"421 331 OFFCURVE",
"447 342 OFFCURVE",
"473 342 CURVE SMOOTH",
"535 342 OFFCURVE",
"560 287 OFFCURVE",
"560 217 CURVE SMOOTH",
"560 130 OFFCURVE",
"541 58 OFFCURVE",
"517 3 CURVE"
);
},
{
closed = 1;
nodes = (
"0 551 LINE",
"716 551 LINE",
"716 622 LINE",
"0 622 LINE"
);
},
{
closed = 1;
nodes = (
"348 554 LINE SMOOTH",
"348 488 OFFCURVE",
"312 410 OFFCURVE",
"214 399 CURVE",
"203 334 LINE",
"343 342 OFFCURVE",
"429 449 OFFCURVE",
"429 556 CURVE SMOOTH",
"429 577 LINE",
"348 569 LINE"
);
},
{
closed = 1;
nodes = (
"203 334 LINE",
"348 311 OFFCURVE",
"400 235 OFFCURVE",
"400 169 CURVE SMOOTH",
"400 94 OFFCURVE",
"361 60 OFFCURVE",
"296 60 CURVE SMOOTH",
"206 60 OFFCURVE",
"138 152 OFFCURVE",
"71 340 CURVE",
"0 317 LINE",
"85 70 OFFCURVE",
"168 -12 OFFCURVE",
"300 -12 CURVE SMOOTH",
"406 -12 OFFCURVE",
"481 51 OFFCURVE",
"481 165 CURVE SMOOTH",
"481 260 OFFCURVE",
"418 345 OFFCURVE",
"296 375 CURVE"
);
}
);
width = 706;
}
);
unicode = 11405;
category = Letter;
},
{
glyphname = R_iv;
lastChange = "2018-01-30 20:22:39 +0000";
layers = (
{
layerId = UUID0;
paths = (
{
closed = 1;
nodes = (
"720 622 LINE",
"0 622 LINE",
"0 551 LINE",
"720 551 LINE"
);
},
{
closed = 1;
nodes = (
"549 0 LINE",
"630 0 LINE",
"630 566 LINE",
"549 566 LINE"
);
},
{
closed = 1;
nodes = (
"-5 265 LINE",
"98 110 OFFCURVE",
"241 15 OFFCURVE",
"279 15 CURVE SMOOTH",
"303 15 OFFCURVE",
"314 46 OFFCURVE",
"314 151 CURVE SMOOTH",
"314 592 LINE",
"233 592 LINE",
"233 137 LINE",
"200 139 OFFCURVE",
"99 243 OFFCURVE",
"53 319 CURVE"
);
},
{
closed = 1;
nodes = (
"122 399 LINE",
"224 303 OFFCURVE",
"309 273 OFFCURVE",
"421 273 CURVE SMOOTH",
"496 273 OFFCURVE",
"572 295 OFFCURVE",
"624 341 CURVE",
"607 405 LINE",
"550 363 OFFCURVE",
"491 345 OFFCURVE",
"423 345 CURVE SMOOTH",
"322 345 OFFCURVE",
"240 382 OFFCURVE",
"165 450 CURVE"
);
},
{
closed = 1;
nodes = (
"715 -126 LINE",
"669 -150 OFFCURVE",
"644 -159 OFFCURVE",
"602 -159 CURVE SMOOTH",
"561 -159 OFFCURVE",
"521 -140 OFFCURVE",
"521 -94 CURVE SMOOTH",
"521 -50 OFFCURVE",
"553 -19 OFFCURVE",
"631 -10 CURVE",
"624 56 LINE",
"507 49 OFFCURVE",
"447 -14 OFFCURVE",
"447 -88 CURVE SMOOTH",
"447 -172 OFFCURVE",
"507 -230 OFFCURVE",
"607 -230 CURVE SMOOTH",
"661 -230 OFFCURVE",
"706 -213 OFFCURVE",
"740 -195 CURVE"
);
}
);
width = 710;
}
);
unicode = 11406;
},
{
glyphname = Rr_iv;
lastChange = "2018-01-30 20:22:39 +0000";
layers = (
{
layerId = UUID0;
paths = (
{
closed = 1;
nodes = (
"720 622 LINE",
"0 622 LINE",
"0 551 LINE",
"720 551 LINE"
);
},
{
closed = 1;
nodes = (
"549 0 LINE",
"630 0 LINE",
"630 566 LINE",
"549 566 LINE"
);
},
{
closed = 1;
nodes = (
"-5 265 LINE",
"98 110 OFFCURVE",
"241 15 OFFCURVE",
"279 15 CURVE SMOOTH",
"303 15 OFFCURVE",
"314 46 OFFCURVE",
"314 151 CURVE SMOOTH",
"314 592 LINE",
"233 592 LINE",
"233 137 LINE",
"200 139 OFFCURVE",
"99 243 OFFCURVE",
"53 319 CURVE"
);
},
{
closed = 1;
nodes = (
"689 -108 LINE",
"657 -121 OFFCURVE",
"627 -124 OFFCURVE",
"602 -124 CURVE SMOOTH",
"554 -124 OFFCURVE",
"521 -114 OFFCURVE",
"521 -77 CURVE SMOOTH",
"521 -44 OFFCURVE",
"553 -17 OFFCURVE",
"631 -10 CURVE",
"624 56 LINE",
"507 50 OFFCURVE",
"447 -6 OFFCURVE",
"447 -69 CURVE SMOOTH",
"447 -155 OFFCURVE",
"525 -193 OFFCURVE",
"607 -193 CURVE SMOOTH",
"645 -193 OFFCURVE",
"679 -185 OFFCURVE",
"708 -174 CURVE"
);
},
{
closed = 1;
nodes = (
"755 -258 LINE",
"709 -278 OFFCURVE",
"683 -286 OFFCURVE",
"641 -286 CURVE SMOOTH",
"591 -286 OFFCURVE",
"560 -270 OFFCURVE",
"560 -233 CURVE SMOOTH",
"560 -215 OFFCURVE",
"568 -193 OFFCURVE",
"587 -177 CURVE",
"512 -150 LINE",
"496 -171 OFFCURVE",
"486 -201 OFFCURVE",
"486 -224 CURVE SMOOTH",
"486 -300 OFFCURVE",
"540 -356 OFFCURVE",
"646 -356 CURVE SMOOTH",
"700 -356 OFFCURVE",
"745 -339 OFFCURVE",
"779 -321 CURVE"
);
},
{
closed = 1;
nodes = (
"122 399 LINE",
"224 303 OFFCURVE",
"309 273 OFFCURVE",
"421 273 CURVE SMOOTH",
"496 273 OFFCURVE",
"572 295 OFFCURVE",
"624 341 CURVE",
"607 405 LINE",
"550 363 OFFCURVE",
"491 345 OFFCURVE",
"423 345 CURVE SMOOTH",
"322 345 OFFCURVE",
"240 382 OFFCURVE",
"165 450 CURVE"
);
}
);
width = 710;
}
);
unicode = 11407;
category = Letter;
},
{
glyphname = L_iv;
lastChange = "2018-01-30 20:22:39 +0000";
layers = (
{
layerId = UUID0;
paths = (
{
closed = 1;
nodes = (
"154 632 OFFCURVE",
"110 572 OFFCURVE",
"110 521 CURVE SMOOTH",
"110 469 OFFCURVE",
"146 429 OFFCURVE",
"193 429 CURVE SMOOTH",
"239 429 OFFCURVE",
"276 469 OFFCURVE",
"276 520 CURVE SMOOTH",
"276 532 OFFCURVE",
"274 544 OFFCURVE",
"270 555 CURVE",
"379 541 OFFCURVE",
"430 433 OFFCURVE",
"430 323 CURVE SMOOTH",
"430 196 OFFCURVE",
"368 66 OFFCURVE",
"264 66 CURVE SMOOTH",
"186 66 OFFCURVE",
"102 162 OFFCURVE",
"67 243 CURVE",
"0 205 LINE",
"49 92 OFFCURVE",
"151 -6 OFFCURVE",
"271 -6 CURVE SMOOTH",
"420 -6 OFFCURVE",
"510 160 OFFCURVE",
"510 323 CURVE SMOOTH",
"510 478 OFFCURVE",
"429 632 OFFCURVE",
"240 632 CURVE SMOOTH"
);
}
);
width = 560;
}
);
unicode = 11408;
},
{
glyphname = LL_iv;
lastChange = "2018-01-30 20:22:39 +0000";
layers = (
{
layerId = UUID0;
paths = (
{
closed = 1;
nodes = (
"413 -271 LINE",
"418 -254 OFFCURVE",
"422 -235 OFFCURVE",
"422 -216 CURVE SMOOTH",
"422 -35 OFFCURVE",
"77 -106 OFFCURVE",
"77 105 CURVE SMOOTH",
"77 119 OFFCURVE",
"78 146 OFFCURVE",
"81 162 CURVE",
"18 195 LINE",
"9 169 OFFCURVE",
"0 136 OFFCURVE",
"0 107 CURVE SMOOTH",
"0 -159 OFFCURVE",
"339 -101 OFFCURVE",
"339 -218 CURVE SMOOTH",
"339 -227 OFFCURVE",
"337 -236 OFFCURVE",
"334 -245 CURVE"
);
},
{
closed = 1;
nodes = (
"178 632 OFFCURVE",
"117 585 OFFCURVE",
"117 520 CURVE SMOOTH",
"117 469 OFFCURVE",
"153 429 OFFCURVE",
"200 429 CURVE SMOOTH",
"246 429 OFFCURVE",
"283 469 OFFCURVE",
"283 520 CURVE SMOOTH",
"283 532 OFFCURVE",
"281 544 OFFCURVE",
"277 555 CURVE",
"386 541 OFFCURVE",
"437 433 OFFCURVE",
"437 323 CURVE SMOOTH",
"437 196 OFFCURVE",
"375 60 OFFCURVE",
"271 60 CURVE SMOOTH",
"213 60 OFFCURVE",
"151 90 OFFCURVE",
"88 205 CURVE",
"18 195 LINE",
"66 81 OFFCURVE",
"156 -12 OFFCURVE",
"278 -12 CURVE SMOOTH",
"427 -12 OFFCURVE",
"517 160 OFFCURVE",
"517 323 CURVE SMOOTH",
"517 478 OFFCURVE",
"436 632 OFFCURVE",
"247 632 CURVE SMOOTH"
);
}
);
width = 567;
}
);
unicode = 11409;
category = Letter;
},
{
glyphname = E_iv;
lastChange = "2018-01-30 20:22:39 +0000";
layers = (
{
layerId = UUID0;
paths = (
{
closed = 1;
nodes = (
"383 163 LINE SMOOTH",
"383 98 OFFCURVE",
"354 60 OFFCURVE",
"289 60 CURVE SMOOTH",
"201 60 OFFCURVE",
"104 156 OFFCURVE",
"67 237 CURVE",
"0 199 LINE",
"51 86 OFFCURVE",
"165 -12 OFFCURVE",
"289 -12 CURVE SMOOTH",
"395 -12 OFFCURVE",
"464 42 OFFCURVE",
"464 161 CURVE SMOOTH",
"464 622 LINE",
"383 622 LINE"
);
},
{
closed = 1;
nodes = (
"384 622 LINE",
"189 595 OFFCURVE",
"67 535 OFFCURVE",
"67 435 CURVE SMOOTH",
"67 384 OFFCURVE",
"103 344 OFFCURVE",
"150 344 CURVE SMOOTH",
"196 344 OFFCURVE",
"233 384 OFFCURVE",
"233 435 CURVE SMOOTH",
"233 461 OFFCURVE",
"223 484 OFFCURVE",
"208 501 CURVE",
"244 524 OFFCURVE",
"302 543 OFFCURVE",
"396 551 CURVE"
);
}
);
width = 544;
}
);
unicode = 1140A;
},
{
glyphname = AI_iv;
lastChange = "2018-01-30 20:22:39 +0000";
layers = (
{
layerId = UUID0;
paths = (
{
closed = 1;
nodes = (
"32 860 LINE",
"109 741 OFFCURVE",
"164 736 OFFCURVE",
"216 736 CURVE SMOOTH",
"253 736 OFFCURVE",
"289 750 OFFCURVE",
"330 750 CURVE SMOOTH",
"360 750 OFFCURVE",
"399 740 OFFCURVE",
"399 693 CURVE SMOOTH",
"399 645 OFFCURVE",
"366 621 OFFCURVE",
"328 613 CURVE",
"322 546 LINE",
"441 557 OFFCURVE",
"472 622 OFFCURVE",
"472 689 CURVE SMOOTH",
"472 773 OFFCURVE",
"409 818 OFFCURVE",
"331 818 CURVE SMOOTH",
"301 818 OFFCURVE",
"247 804 OFFCURVE",
"216 804 CURVE SMOOTH",
"183 804 OFFCURVE",
"150 819 OFFCURVE",
"92 897 CURVE"
);
},
{
closed = 1;
nodes = (
"384 622 LINE",
"189 597 OFFCURVE",
"67 533 OFFCURVE",
"67 435 CURVE SMOOTH",
"67 384 OFFCURVE",
"103 344 OFFCURVE",
"150 344 CURVE SMOOTH",
"196 344 OFFCURVE",
"233 384 OFFCURVE",
"233 435 CURVE SMOOTH",
"233 461 OFFCURVE",
"223 484 OFFCURVE",
"208 501 CURVE",
"244 524 OFFCURVE",
"302 543 OFFCURVE",
"396 551 CURVE"
);
},
{
closed = 1;
nodes = (
"383 163 LINE SMOOTH",
"383 98 OFFCURVE",
"354 60 OFFCURVE",
"289 60 CURVE SMOOTH",
"201 60 OFFCURVE",
"104 156 OFFCURVE",
"67 237 CURVE",
"0 199 LINE",
"51 86 OFFCURVE",
"165 -12 OFFCURVE",
"289 -12 CURVE SMOOTH",
"395 -12 OFFCURVE",
"464 42 OFFCURVE",
"464 161 CURVE SMOOTH",
"464 622 LINE",
"383 622 LINE"
);
}
);
width = 544;
}
);
unicode = 1140B;
category = Letter;
},
{
glyphname = O_iv;
lastChange = "2018-01-30 20:22:39 +0000";
layers = (
{
layerId = UUID0;
paths = (
{
closed = 1;
nodes = (
"357 675 LINE",
"348 628 OFFCURVE",
"321 619 OFFCURVE",
"287 619 CURVE SMOOTH",
"247 619 OFFCURVE",
"222 658 OFFCURVE",
"163 658 CURVE SMOOTH",
"132 658 OFFCURVE",
"96 642 OFFCURVE",
"54 585 CURVE",
"97 553 LINE",
"109 571 OFFCURVE",
"134 590 OFFCURVE",
"161 590 CURVE SMOOTH",
"190 590 OFFCURVE",
"233 551 OFFCURVE",
"289 551 CURVE SMOOTH",
"360 551 OFFCURVE",
"416 604 OFFCURVE",
"418 675 CURVE"
);
},
{
closed = 1;
nodes = (
"656 681 LINE",
"630 640 OFFCURVE",
"586 619 OFFCURVE",
"538 619 CURVE SMOOTH",
"507 619 OFFCURVE",
"428 631 OFFCURVE",
"418 675 CURVE",
"355 651 LINE",
"372 585 OFFCURVE",
"451 551 OFFCURVE",
"539 551 CURVE SMOOTH",
"610 551 OFFCURVE",
"670 580 OFFCURVE",
"711 651 CURVE"
);
},
{
closed = 1;
nodes = (
"589 0 LINE",
"670 0 LINE",
"670 622 LINE",
"589 622 LINE"
);
},
{
closed = 1;
nodes = (
"348 554 LINE SMOOTH",
"348 488 OFFCURVE",
"312 410 OFFCURVE",
"214 399 CURVE",
"203 334 LINE",
"343 342 OFFCURVE",
"429 449 OFFCURVE",
"429 556 CURVE SMOOTH",
"429 607 LINE",
"348 610 LINE"
);
},
{
closed = 1;
nodes = (
"203 334 LINE",
"348 311 OFFCURVE",
"400 235 OFFCURVE",
"400 169 CURVE SMOOTH",
"400 94 OFFCURVE",
"361 60 OFFCURVE",
"296 60 CURVE SMOOTH",
"206 60 OFFCURVE",
"138 152 OFFCURVE",
"71 340 CURVE",
"0 317 LINE",
"85 70 OFFCURVE",
"168 -12 OFFCURVE",
"300 -12 CURVE SMOOTH",
"406 -12 OFFCURVE",
"481 51 OFFCURVE",
"481 165 CURVE SMOOTH",
"481 260 OFFCURVE",
"418 345 OFFCURVE",
"296 375 CURVE"
);
}
);
width = 750;
}
);
unicode = 1140C;
},
{
glyphname = AU_iv;
lastChange = "2018-01-30 20:22:39 +0000";
layers = (
{
layerId = UUID0;
paths = (
{
closed = 1;
nodes = (
"267 860 LINE",
"344 741 OFFCURVE",
"399 736 OFFCURVE",
"451 736 CURVE SMOOTH",
"488 736 OFFCURVE",
"524 750 OFFCURVE",
"565 750 CURVE SMOOTH",
"595 750 OFFCURVE",
"634 740 OFFCURVE",
"634 693 CURVE SMOOTH",
"634 635 OFFCURVE",
"587 622 OFFCURVE",
"540 622 CURVE SMOOTH",
"476 622 OFFCURVE",
"444 644 OFFCURVE",
"418 675 CURVE",
"355 651 LINE",
"378 570 OFFCURVE",
"472 550 OFFCURVE",
"540 550 CURVE SMOOTH",
"661 550 OFFCURVE",
"707 622 OFFCURVE",
"707 689 CURVE SMOOTH",
"707 773 OFFCURVE",
"644 818 OFFCURVE",
"566 818 CURVE SMOOTH",
"536 818 OFFCURVE",
"482 804 OFFCURVE",
"451 804 CURVE SMOOTH",
"418 804 OFFCURVE",
"385 819 OFFCURVE",
"327 897 CURVE"
);
},
{
closed = 1;
nodes = (
"357 675 LINE",
"348 628 OFFCURVE",
"321 619 OFFCURVE",
"287 619 CURVE SMOOTH",
"247 619 OFFCURVE",
"222 658 OFFCURVE",
"163 658 CURVE SMOOTH",
"132 658 OFFCURVE",
"96 642 OFFCURVE",
"54 585 CURVE",
"97 553 LINE",
"109 571 OFFCURVE",
"134 590 OFFCURVE",
"161 590 CURVE SMOOTH",
"190 590 OFFCURVE",
"233 551 OFFCURVE",
"289 551 CURVE SMOOTH",
"360 551 OFFCURVE",
"416 604 OFFCURVE",
"418 675 CURVE"
);
},
{
closed = 1;
nodes = (
"348 554 LINE SMOOTH",
"348 488 OFFCURVE",
"312 410 OFFCURVE",
"214 399 CURVE",
"203 334 LINE",
"343 342 OFFCURVE",
"429 449 OFFCURVE",
"429 556 CURVE SMOOTH",
"429 607 LINE",
"348 610 LINE"
);
},
{
closed = 1;
nodes = (
"589 0 LINE",
"670 0 LINE",
"670 622 LINE",
"589 622 LINE"
);
},
{
closed = 1;
nodes = (
"203 334 LINE",
"348 311 OFFCURVE",
"400 235 OFFCURVE",
"400 169 CURVE SMOOTH",
"400 94 OFFCURVE",
"361 60 OFFCURVE",
"296 60 CURVE SMOOTH",
"206 60 OFFCURVE",
"138 152 OFFCURVE",
"71 340 CURVE",
"0 317 LINE",
"85 70 OFFCURVE",
"168 -12 OFFCURVE",
"300 -12 CURVE SMOOTH",
"406 -12 OFFCURVE",
"481 51 OFFCURVE",
"481 165 CURVE SMOOTH",
"481 260 OFFCURVE",
"418 345 OFFCURVE",
"296 375 CURVE"
);
}
);
width = 790;
}
);
unicode = 1140D;
category = Letter;
},
{
glyphname = Ka;
lastChange = "2018-01-30 20:22:39 +0000";
layers = (
{
layerId = UUID0;
paths = (
{
closed = 1;
nodes = (
"338 260 LINE",
"309 224 OFFCURVE",
"268 195 OFFCURVE",
"202 195 CURVE SMOOTH",
"155 195 OFFCURVE",
"116 219 OFFCURVE",
"116 278 CURVE SMOOTH",
"116 346 OFFCURVE",
"185 400 OFFCURVE",
"329 400 CURVE SMOOTH",
"478 400 OFFCURVE",
"539 321 OFFCURVE",
"539 228 CURVE SMOOTH",
"539 165 OFFCURVE",
"529 95 OFFCURVE",
"482 22 CURVE",
"552 -18 LINE",
"600 62 OFFCURVE",
"619 134 OFFCURVE",
"619 230 CURVE SMOOTH",
"619 376 OFFCURVE",
"514 470 OFFCURVE",
"329 470 CURVE SMOOTH",
"166 470 OFFCURVE",
"40 405 OFFCURVE",
"40 276 CURVE SMOOTH",
"40 172 OFFCURVE",
"117 121 OFFCURVE",
"200 121 CURVE SMOOTH",
"258 121 OFFCURVE",
"322 147 OFFCURVE",
"354 188 CURVE"
);
},
{
closed = 1;
nodes = (
"690 622 LINE",
"0 622 LINE",
"0 551 LINE",
"294 551 LINE",
"294 0 LINE",
"375 0 LINE",
"375 551 LINE",
"690 551 LINE"
);
}
);
width = 680;
}
);
unicode = 1140E;
category = Letter;
},
{
glyphname = Kha;
lastChange = "2018-01-30 20:22:39 +0000";
layers = (
{
layerId = UUID0;
paths = (
{
closed = 1;
nodes = (
"661 551 LINE",
"661 622 LINE",
"303 622 LINE",
"303 551 LINE",
"490 551 LINE",
"490 0 LINE",
"571 0 LINE",
"571 551 LINE"
);
},
{
closed = 1;
nodes = (
"565 301 LINE",
"538 267 OFFCURVE",
"490 227 OFFCURVE",
"427 227 CURVE SMOOTH",
"371 227 OFFCURVE",
"330 254 OFFCURVE",
"330 311 CURVE SMOOTH",
"330 369 OFFCURVE",
"369 399 OFFCURVE",
"433 399 CURVE SMOOTH",
"457 399 OFFCURVE",
"483 394 OFFCURVE",
"503 389 CURVE",
"509 458 LINE",
"490 464 OFFCURVE",
"446 468 OFFCURVE",
"424 468 CURVE SMOOTH",
"319 468 OFFCURVE",
"249 397 OFFCURVE",
"249 314 CURVE SMOOTH",
"249 221 OFFCURVE",
"319 159 OFFCURVE",
"414 159 CURVE SMOOTH",
"480 159 OFFCURVE",
"531 183 OFFCURVE",
"561 206 CURVE"
);
},
{
closed = 1;
nodes = (
"275 0 LINE",
"229 210 OFFCURVE",
"149 276 OFFCURVE",
"95 298 CURVE",
"169 321 OFFCURVE",
"233 362 OFFCURVE",
"233 470 CURVE SMOOTH",
"233 531 OFFCURVE",
"209 561 OFFCURVE",
"193 587 CURVE",
"110 569 LINE",
"137 551 OFFCURVE",
"152 516 OFFCURVE",
"152 470 CURVE SMOOTH",
"152 413 OFFCURVE",
"125 352 OFFCURVE",
"8 347 CURVE",
"0 276 LINE",
"89 244 OFFCURVE",
"155 181 OFFCURVE",
"194 0 CURVE"
);
},
{
closed = 1;
nodes = (
"458 622 LINE",
"0 622 LINE",
"0 551 LINE",
"458 551 LINE"
);
}
);
width = 651;
}
);
unicode = 1140F;
category = Letter;
},
{
glyphname = Ga;
lastChange = "2018-01-30 20:22:39 +0000";
layers = (
{
layerId = UUID0;
paths = (
{
closed = 1;
nodes = (
"459 545 LINE",
"422 574 OFFCURVE",
"364 602 OFFCURVE",
"286 602 CURVE SMOOTH",
"166 602 OFFCURVE",
"66 552 OFFCURVE",
"45 397 CURVE",
"141 397 OFFCURVE",
"221 367 OFFCURVE",
"221 281 CURVE SMOOTH",
"221 220 OFFCURVE",
"178 189 OFFCURVE",
"123 189 CURVE SMOOTH",
"89 189 OFFCURVE",
"60 199 OFFCURVE",
"29 214 CURVE",
"2 142 LINE",
"43 124 OFFCURVE",
"89 116 OFFCURVE",
"125 116 CURVE SMOOTH",
"224 116 OFFCURVE",
"297 182 OFFCURVE",
"297 284 CURVE SMOOTH",
"297 400 OFFCURVE",
"214 449 OFFCURVE",
"142 460 CURVE",
"165 510 OFFCURVE",
"232 531 OFFCURVE",
"292 531 CURVE SMOOTH",
"368 531 OFFCURVE",
"426 493 OFFCURVE",
"462 447 CURVE"
);
},
{
closed = 1;
nodes = (
"415 0 LINE",
"496 0 LINE",
"496 622 LINE",
"415 622 LINE"
);
}
);
width = 576;
}
);
unicode = 11410;
category = Letter;
},
{
glyphname = Gha;
lastChange = "2018-01-30 20:22:39 +0000";
layers = (
{
layerId = UUID0;
paths = (
{
closed = 1;
nodes = (
"248 403 LINE",
"208 403 OFFCURVE",
"168 396 OFFCURVE",
"135 375 CURVE",
"125 361 LINE",
"87 334 OFFCURVE",
"70 293 OFFCURVE",
"70 250 CURVE SMOOTH",
"70 160 OFFCURVE",
"140 102 OFFCURVE",
"243 102 CURVE SMOOTH",
"319 102 OFFCURVE",
"367 125 OFFCURVE",
"410 153 CURVE",
"405 172 LINE",
"405 0 LINE",
"486 0 LINE",
"486 551 LINE",
"576 551 LINE",
"576 622 LINE",
"384 622 OFFCURVE",
"192 622 OFFCURVE",
"0 622 CURVE",
"0 551 LINE",
"405 551 LINE",
"405 230 LINE",
"408 247 LINE",
"375 208 OFFCURVE",
"323 172 OFFCURVE",
"251 172 CURVE SMOOTH",
"192 172 OFFCURVE",
"151 197 OFFCURVE",
"151 253 CURVE SMOOTH",
"151 303 OFFCURVE",
"187 330 OFFCURVE",
"248 332 CURVE"
);
},
{
closed = 1;
nodes = (
"205 400 LINE",
"149 401 OFFCURVE",
"111 420 OFFCURVE",
"111 476 CURVE SMOOTH",
"111 511 OFFCURVE",
"126 545 OFFCURVE",
"154 562 CURVE",
"84 596 LINE",
"50 570 OFFCURVE",
"30 534 OFFCURVE",
"30 479 CURVE SMOOTH",
"30 398 OFFCURVE",
"95 338 OFFCURVE",
"195 338 CURVE"
);
}
);
width = 566;
}
);
unicode = 11411;
category = Letter;
},
{
glyphname = Nga;
lastChange = "2018-01-30 20:22:39 +0000";
layers = (
{
layerId = UUID0;
paths = (
{
closed = 1;
nodes = (
"401 579 LINE",
"391 523 OFFCURVE",
"319 474 OFFCURVE",
"237 416 CURVE SMOOTH",
"138 346 OFFCURVE",
"30 268 OFFCURVE",
"30 155 CURVE SMOOTH",
"30 46 OFFCURVE",
"95 -12 OFFCURVE",
"180 -12 CURVE SMOOTH",
"267 -12 OFFCURVE",
"304 53 OFFCURVE",
"331 108 CURVE SMOOTH",
"351 148 OFFCURVE",
"369 182 OFFCURVE",
"405 182 CURVE SMOOTH",
"437 182 OFFCURVE",
"455 157 OFFCURVE",
"455 120 CURVE SMOOTH",
"455 78 OFFCURVE",
"432 55 OFFCURVE",
"406 55 CURVE SMOOTH",
"382 55 OFFCURVE",
"344 72 OFFCURVE",
"339 138 CURVE",
"290 76 LINE",
"311 13 OFFCURVE",
"358 -12 OFFCURVE",
"406 -12 CURVE SMOOTH",
"496 -12 OFFCURVE",
"530 50 OFFCURVE",
"530 116 CURVE SMOOTH",
"530 183 OFFCURVE",
"501 248 OFFCURVE",
"403 248 CURVE SMOOTH",
"328 248 OFFCURVE",
"299 197 OFFCURVE",
"274 149 CURVE SMOOTH",
"250 104 OFFCURVE",
"230 62 OFFCURVE",
"180 62 CURVE SMOOTH",
"147 62 OFFCURVE",
"112 90 OFFCURVE",
"112 158 CURVE SMOOTH",
"112 240 OFFCURVE",
"193 298 OFFCURVE",
"279 359 CURVE SMOOTH",
"361 417 OFFCURVE",
"447 477 OFFCURVE",
"476 562 CURVE"
);
},
{
closed = 1;
nodes = (
"564 622 LINE",
"0 622 LINE",
"0 551 LINE",
"564 551 LINE"
);
}
);
width = 554;
}
);
unicode = 11412;
category = Letter;
},
{
glyphname = Ngha;
lastChange = "2018-01-30 20:22:39 +0000";
layers = (
{
layerId = UUID0;
paths = (
{
closed = 1;
nodes = (
"157 263 LINE",
"100 219 OFFCURVE",
"35 169 OFFCURVE",
"35 89 CURVE SMOOTH",
"35 25 OFFCURVE",
"76 -12 OFFCURVE",
"134 -12 CURVE SMOOTH",
"166 -12 OFFCURVE",
"186 2 OFFCURVE",
"201 19 CURVE",
"216 -3 OFFCURVE",
"241 -12 OFFCURVE",
"262 -12 CURVE SMOOTH",
"324 -12 OFFCURVE",
"346 29 OFFCURVE",
"346 72 CURVE SMOOTH",
"346 115 OFFCURVE",
"330 158 OFFCURVE",
"266 158 CURVE SMOOTH",
"214 158 OFFCURVE",
"193 123 OFFCURVE",
"177 91 CURVE SMOOTH",
"167 71 OFFCURVE",
"155 48 OFFCURVE",
"131 48 CURVE SMOOTH",
"116 48 OFFCURVE",
"98 63 OFFCURVE",
"98 91 CURVE SMOOTH",
"98 144 OFFCURVE",
"165 195 OFFCURVE",
"211 231 CURVE"
);
},
{
closed = 1;
nodes = (
"278 104 OFFCURVE",
"286 92 OFFCURVE",
"286 74 CURVE SMOOTH",
"286 55 OFFCURVE",
"276 44 OFFCURVE",
"265 44 CURVE SMOOTH",
"254 44 OFFCURVE",
"238 51 OFFCURVE",
"234 77 CURVE",
"242 92 OFFCURVE",
"251 104 OFFCURVE",
"264 104 CURVE SMOOTH"
);
},
{
closed = 1;
nodes = (
"0 622 LINE",
"0 551 LINE",
"295 551 LINE",
"295 539 LINE SMOOTH",
"295 480 OFFCURVE",
"20 493 OFFCURVE",
"20 345 CURVE SMOOTH",
"20 260 OFFCURVE",
"95 223 OFFCURVE",
"147 223 CURVE SMOOTH",
"214 223 OFFCURVE",
"283 247 OFFCURVE",
"313 247 CURVE SMOOTH",
"366 247 OFFCURVE",
"379 211 OFFCURVE",
"379 185 CURVE SMOOTH",
"379 0 LINE",
"460 0 LINE",
"460 184 LINE SMOOTH",
"460 271 OFFCURVE",
"414 319 OFFCURVE",
"325 319 CURVE SMOOTH",
"273 319 OFFCURVE",
"225 297 OFFCURVE",
"153 297 CURVE SMOOTH",
"119 297 OFFCURVE",
"100 310 OFFCURVE",
"100 343 CURVE SMOOTH",
"100 443 OFFCURVE",
"376 417 OFFCURVE",
"376 535 CURVE SMOOTH",
"376 551 LINE",
"530 551 LINE",
"530 622 LINE"
);
}
);
width = 520;
}
);
unicode = 11413;
category = Letter;
},
{
glyphname = Ca;
lastChange = "2018-01-30 20:22:39 +0000";
layers = (
{
layerId = UUID0;
paths = (
{
closed = 1;
nodes = (
"569 622 LINE",
"0 622 LINE",
"0 551 LINE",
"398 551 LINE",
"398 0 LINE",
"479 0 LINE",
"479 551 LINE",
"569 551 LINE"
);
},
{
closed = 1;
nodes = (
"401 262 LINE",
"363 222 OFFCURVE",
"317 188 OFFCURVE",
"251 188 CURVE SMOOTH",
"147 188 OFFCURVE",
"136 290 OFFCURVE",
"115 340 CURVE",
"216 347 OFFCURVE",
"248 400 OFFCURVE",
"308 400 CURVE SMOOTH",
"371 400 OFFCURVE",
"414 371 OFFCURVE",
"430 361 CURVE",
"439 437 LINE",
"412 451 OFFCURVE",
"366 470 OFFCURVE",
"315 470 CURVE SMOOTH",
"229 470 OFFCURVE",
"149 396 OFFCURVE",
"20 396 CURVE",
"62 279 OFFCURVE",
"58 118 OFFCURVE",
"251 118 CURVE SMOOTH",
"320 118 OFFCURVE",
"367 144 OFFCURVE",
"402 167 CURVE"
);
}
);
width = 559;
}
);
unicode = 11414;
category = Letter;
},
{
glyphname = Cha;
lastChange = "2018-01-30 20:22:39 +0000";
layers = (
{
layerId = UUID0;
paths = (
{
closed = 1;
nodes = (
"727 622 LINE",
"0 622 LINE",
"0 551 LINE",
"377 551 LINE",
"377 201 LINE SMOOTH",
"377 105 OFFCURVE",
"323 54 OFFCURVE",
"236 54 CURVE SMOOTH",
"203 54 OFFCURVE",
"146 69 OFFCURVE",
"146 132 CURVE SMOOTH",
"146 218 OFFCURVE",
"257 261 OFFCURVE",
"383 261 CURVE SMOOTH",
"509 261 OFFCURVE",
"596 222 OFFCURVE",
"596 136 CURVE SMOOTH",
"596 79 OFFCURVE",
"568 54 OFFCURVE",
"528 54 CURVE SMOOTH",
"490 54 OFFCURVE",
"441 69 OFFCURVE",
"416 133 CURVE",
"375 61 LINE",
"412 2 OFFCURVE",
"486 -14 OFFCURVE",
"526 -14 CURVE SMOOTH",
"626 -14 OFFCURVE",
"678 53 OFFCURVE",
"678 133 CURVE SMOOTH",
"678 261 OFFCURVE",
"548 330 OFFCURVE",
"383 330 CURVE SMOOTH",
"222 330 OFFCURVE",
"64 261 OFFCURVE",
"64 129 CURVE SMOOTH",
"64 40 OFFCURVE",
"134 -14 OFFCURVE",
"231 -14 CURVE SMOOTH",
"375 -14 OFFCURVE",
"458 64 OFFCURVE",
"458 206 CURVE SMOOTH",
"458 551 LINE",
"727 551 LINE"
);
},
{
closed = 1;
nodes = (
"430 383 LINE",
"393 352 OFFCURVE",
"314 320 OFFCURVE",
"251 320 CURVE SMOOTH",
"152 320 OFFCURVE",
"145 374 OFFCURVE",
"125 413 CURVE",
"222 418 OFFCURVE",
"242 453 OFFCURVE",
"300 453 CURVE SMOOTH",
"360 453 OFFCURVE",
"401 431 OFFCURVE",
"416 424 CURVE",
"431 496 LINE",
"405 506 OFFCURVE",
"361 521 OFFCURVE",
"312 521 CURVE SMOOTH",
"230 521 OFFCURVE",
"153 464 OFFCURVE",
"30 464 CURVE",
"70 375 OFFCURVE",
"70 250 OFFCURVE",
"255 250 CURVE SMOOTH",
"321 250 OFFCURVE",
"397 283 OFFCURVE",
"431 300 CURVE"
);
}
);
width = 717;
}
);
unicode = 11415;
category = Letter;
},
{
glyphname = Ja;
lastChange = "2018-01-30 20:22:39 +0000";
layers = (
{
layerId = UUID0;
paths = (
{
closed = 1;
nodes = (
"28 181 LINE",
"59 165 OFFCURVE",
"107 142 OFFCURVE",
"186 142 CURVE SMOOTH",
"241 142 OFFCURVE",
"304 166 OFFCURVE",
"304 245 CURVE SMOOTH",
"304 340 OFFCURVE",
"210 355 OFFCURVE",
"114 355 CURVE",
"119 412 LINE",
"199 453 OFFCURVE",
"251 499 OFFCURVE",
"299 562 CURVE",
"380 580 LINE",
"361 517 OFFCURVE",
"288 442 OFFCURVE",
"232 407 CURVE",
"327 388 OFFCURVE",
"380 336 OFFCURVE",
"380 242 CURVE SMOOTH",
"380 116 OFFCURVE",
"287 69 OFFCURVE",
"188 69 CURVE SMOOTH",
"106 69 OFFCURVE",
"45 91 OFFCURVE",
"4 109 CURVE"
);
},
{
closed = 1;
nodes = (
"497 0 LINE",
"497 339 LINE SMOOTH",
"497 419 OFFCURVE",
"384 493 OFFCURVE",
"320 534 CURVE",
"361 587 LINE",
"442 536 OFFCURVE",
"578 453 OFFCURVE",
"578 342 CURVE SMOOTH",
"578 0 LINE"
);
},
{
closed = 1;
nodes = (
"0 622 LINE",
"672 622 LINE",
"672 551 LINE",
"0 551 LINE"
);
}
);
width = 662;
}
);
unicode = 11416;
category = Letter;
},
{
glyphname = Jha;
lastChange = "2018-01-30 20:22:39 +0000";
layers = (
{
layerId = UUID0;
paths = (
{
closed = 1;
nodes = (
"666 622 LINE",
"-5 622 LINE",
"-5 551 LINE",
"666 551 LINE"
);
},
{
closed = 1;
nodes = (
"495 0 LINE",
"576 0 LINE",
"576 566 LINE",
"495 566 LINE"
);
},
{
closed = 1;
nodes = (
"306 350 LINE",
"415 208 OFFCURVE",
"534 123 OFFCURVE",
"568 130 CURVE",
"537 238 LINE",
"504 241 OFFCURVE",
"408 339 OFFCURVE",
"361 407 CURVE"
);
},
{
closed = 1;
nodes = (
"-20 265 LINE",
"83 110 OFFCURVE",
"226 15 OFFCURVE",
"264 15 CURVE SMOOTH",
"288 15 OFFCURVE",
"299 46 OFFCURVE",
"299 151 CURVE SMOOTH",
"299 592 LINE",
"218 592 LINE",
"218 137 LINE",
"185 139 OFFCURVE",
"84 243 OFFCURVE",
"38 319 CURVE"
);
}
);
width = 656;
}
);
unicode = 11417;
category = Letter;
},
{
glyphname = Nya;
lastChange = "2018-01-30 20:22:39 +0000";
layers = (
{
layerId = UUID0;
paths = (
{
closed = 1;
nodes = (
"701 36 LINE",
"674 79 OFFCURVE",
"634 126 OFFCURVE",
"609 161 CURVE SMOOTH",
"586 193 OFFCURVE",
"559 217 OFFCURVE",
"523 217 CURVE SMOOTH",
"497 217 OFFCURVE",
"479 197 OFFCURVE",
"479 161 CURVE SMOOTH",
"479 124 OFFCURVE",
"514 104 OFFCURVE",
"550 104 CURVE SMOOTH",
"650 104 OFFCURVE",
"721 155 OFFCURVE",
"721 227 CURVE SMOOTH",
"721 278 OFFCURVE",
"694 323 OFFCURVE",
"605 338 CURVE",
"573 293 LINE",
"625 292 OFFCURVE",
"650 261 OFFCURVE",
"650 227 CURVE SMOOTH",
"650 195 OFFCURVE",
"625 164 OFFCURVE",
"564 164 CURVE",
"549 138 LINE",
"578 105 OFFCURVE",
"611 63 OFFCURVE",
"647 3 CURVE"
);
},
{
closed = 1;
nodes = (
"541 289 LINE",
"616 292 OFFCURVE",
"707 324 OFFCURVE",
"707 411 CURVE SMOOTH",
"707 473 OFFCURVE",
"662 513 OFFCURVE",
"586 513 CURVE SMOOTH",
"523 513 OFFCURVE",
"474 485 OFFCURVE",
"442 455 CURVE",
"465 389 LINE",
"491 420 OFFCURVE",
"538 447 OFFCURVE",
"581 447 CURVE SMOOTH",
"614 447 OFFCURVE",
"638 433 OFFCURVE",
"638 406 CURVE SMOOTH",
"638 374 OFFCURVE",
"613 350 OFFCURVE",
"538 350 CURVE"
);
},
{
closed = 1;
nodes = (
"189 627 OFFCURVE",
"141 579 OFFCURVE",
"141 515 CURVE SMOOTH",
"141 464 OFFCURVE",
"177 424 OFFCURVE",
"224 424 CURVE SMOOTH",
"270 424 OFFCURVE",
"307 464 OFFCURVE",
"307 515 CURVE SMOOTH",
"307 525 OFFCURVE",
"306 535 OFFCURVE",
"303 543 CURVE",
"371 516 OFFCURVE",
"392 416 OFFCURVE",
"392 295 CURVE SMOOTH",
"392 173 OFFCURVE",
"352 60 OFFCURVE",
"261 60 CURVE SMOOTH",
"179 60 OFFCURVE",
"109 168 OFFCURVE",
"77 255 CURVE",
"10 216 LINE",
"56 92 OFFCURVE",
"141 -12 OFFCURVE",
"264 -12 CURVE SMOOTH",
"397 -12 OFFCURVE",
"472 133 OFFCURVE",
"472 296 CURVE SMOOTH",
"472 478 OFFCURVE",
"410 627 OFFCURVE",
"256 627 CURVE SMOOTH"
);
}
);
width = 751;
}
);
unicode = 11418;
category = Letter;
},
{
glyphname = Nyha;
lastChange = "2018-01-30 20:22:39 +0000";
layers = (
{
layerId = UUID0;
paths = (
{
closed = 1;
nodes = (
"328 22 LINE",
"345 32 OFFCURVE",
"373 49 OFFCURVE",
"373 82 CURVE SMOOTH",
"373 106 OFFCURVE",
"346 131 OFFCURVE",
"304 138 CURVE",
"275 103 LINE",
"301 102 OFFCURVE",
"316 96 OFFCURVE",
"316 81 CURVE SMOOTH",
"316 70 OFFCURVE",
"307 64 OFFCURVE",
"301 59 CURVE",
"291 70 OFFCURVE",
"281 77 OFFCURVE",
"268 77 CURVE SMOOTH",
"254 77 OFFCURVE",
"241 65 OFFCURVE",
"241 48 CURVE SMOOTH",
"241 29 OFFCURVE",
"258 14 OFFCURVE",
"275 14 CURVE SMOOTH",
"284 14 LINE",
"316 -29 LINE",
"351 -10 LINE"
);
},
{
closed = 1;
nodes = (
"273 103 LINE",
"309 104 OFFCURVE",
"363 127 OFFCURVE",
"363 168 CURVE SMOOTH",
"363 196 OFFCURVE",
"344 224 OFFCURVE",
"294 224 CURVE",
"255 224 OFFCURVE",
"227 199 OFFCURVE",
"216 188 CURVE",
"229 128 LINE",
"238 151 OFFCURVE",
"265 177 OFFCURVE",
"286 177 CURVE SMOOTH",
"298 177 OFFCURVE",
"307 171 OFFCURVE",
"307 162 CURVE SMOOTH",
"307 153 OFFCURVE",
"300 140 OFFCURVE",
"273 140 CURVE"
);
},
{
closed = 1;
nodes = (
"0 622 LINE",
"0 551 LINE",
"302 551 LINE",
"273 495 OFFCURVE",
"20 510 OFFCURVE",
"20 358 CURVE SMOOTH",
"20 280 OFFCURVE",
"95 243 OFFCURVE",
"147 243 CURVE SMOOTH",
"214 243 OFFCURVE",
"288 267 OFFCURVE",
"318 267 CURVE SMOOTH",
"379 267 OFFCURVE",
"399 235 OFFCURVE",
"399 191 CURVE SMOOTH",
"399 0 LINE",
"480 0 LINE",
"480 194 LINE SMOOTH",
"480 291 OFFCURVE",
"429 339 OFFCURVE",
"346 339 CURVE SMOOTH",
"278 339 OFFCURVE",
"225 317 OFFCURVE",
"153 317 CURVE SMOOTH",
"119 317 OFFCURVE",
"100 330 OFFCURVE",
"100 360 CURVE SMOOTH",
"100 462 OFFCURVE",
"376 430 OFFCURVE",
"385 551 CURVE",
"550 551 LINE",
"550 622 LINE"
);
},
{
closed = 1;
nodes = (
"112 252 OFFCURVE",
"81 232 OFFCURVE",
"81 200 CURVE SMOOTH",
"81 175 OFFCURVE",
"99 155 OFFCURVE",
"124 155 CURVE SMOOTH",
"142 155 OFFCURVE",
"159 168 OFFCURVE",
"165 186 CURVE",
"174 171 OFFCURVE",
"178 148 OFFCURVE",
"178 119 CURVE SMOOTH",
"178 76 OFFCURVE",
"166 36 OFFCURVE",
"142 36 CURVE SMOOTH",
"114 36 OFFCURVE",
"86 80 OFFCURVE",
"71 117 CURVE",
"23 91 LINE",
"44 33 OFFCURVE",
"83 -15 OFFCURVE",
"142 -15 CURVE SMOOTH",
"204 -15 OFFCURVE",
"239 48 OFFCURVE",
"239 120 CURVE SMOOTH",
"239 199 OFFCURVE",
"200 252 OFFCURVE",
"134 252 CURVE SMOOTH"
);
}
);
width = 540;
}
);
unicode = 11419;
category = Letter;
},
{
glyphname = Tta;
lastChange = "2018-01-30 20:22:39 +0000";
layers = (
{
layerId = UUID0;
paths = (
{
closed = 1;
nodes = (
"466 167 LINE",
"429 104 OFFCURVE",
"361 58 OFFCURVE",
"283 58 CURVE SMOOTH",
"178 58 OFFCURVE",
"124 165 OFFCURVE",
"115 285 CURVE",
"263 296 OFFCURVE",
"381 368 OFFCURVE",
"381 500 CURVE SMOOTH",
"381 551 LINE",
"553 551 LINE",
"553 622 LINE",
"0 622 LINE",
"0 551 LINE",
"300 551 LINE",
"300 498 LINE SMOOTH",
"300 400 OFFCURVE",
"185 351 OFFCURVE",
"28 346 CURVE",
"39 167 OFFCURVE",
"93 -12 OFFCURVE",
"283 -12 CURVE SMOOTH",
"380 -12 OFFCURVE",
"466 34 OFFCURVE",
"511 114 CURVE"
);
}
);
width = 533;
}
);
unicode = 1141A;
category = Letter;
},
{
glyphname = Ttha;
lastChange = "2018-01-30 20:22:39 +0000";
layers = (
{
layerId = UUID0;
paths = (
{
closed = 1;
nodes = (
"40 78 OFFCURVE",
"171 -12 OFFCURVE",
"311 -12 CURVE SMOOTH",
"451 -12 OFFCURVE",
"582 78 OFFCURVE",
"582 268 CURVE SMOOTH",
"582 471 OFFCURVE",
"411 630 OFFCURVE",
"311 630 CURVE SMOOTH",
"221 630 OFFCURVE",
"40 471 OFFCURVE",
"40 268 CURVE SMOOTH"
);
},
{
closed = 1;
nodes = (
"120 430 OFFCURVE",
"249 558 OFFCURVE",
"309 558 CURVE SMOOTH",
"370 558 OFFCURVE",
"502 430 OFFCURVE",
"502 268 CURVE SMOOTH",
"502 119 OFFCURVE",
"410 60 OFFCURVE",
"309 60 CURVE SMOOTH",
"209 60 OFFCURVE",
"120 119 OFFCURVE",
"120 268 CURVE SMOOTH"
);
}
);
width = 622;
}
);
unicode = 1141B;
category = Letter;
},
{
glyphname = Dda;
lastChange = "2018-01-30 20:22:39 +0000";
layers = (
{
layerId = UUID0;
paths = (
{
closed = 1;
nodes = (
"363 551 LINE",
"542 551 LINE",
"542 622 LINE",
"0 622 LINE",
"0 551 LINE",
"282 551 LINE",
"282 439 LINE",
"363 439 LINE"
);
},
{
closed = 1;
nodes = (
"213 485 OFFCURVE",
"149 442 OFFCURVE",
"149 373 CURVE SMOOTH",
"149 322 OFFCURVE",
"185 282 OFFCURVE",
"232 282 CURVE SMOOTH",
"280 282 OFFCURVE",
"315 322 OFFCURVE",
"315 373 CURVE SMOOTH",
"315 385 OFFCURVE",
"313 396 OFFCURVE",
"309 407 CURVE",
"388 390 OFFCURVE",
"397 292 OFFCURVE",
"397 246 CURVE SMOOTH",
"397 173 OFFCURVE",
"362 60 OFFCURVE",
"261 60 CURVE SMOOTH",
"186 60 OFFCURVE",
"122 149 OFFCURVE",
"87 230 CURVE",
"20 192 LINE",
"69 79 OFFCURVE",
"157 -12 OFFCURVE",
"261 -12 CURVE SMOOTH",
"411 -12 OFFCURVE",
"477 120 OFFCURVE",
"477 246 CURVE SMOOTH",
"477 346 OFFCURVE",
"433 485 OFFCURVE",
"279 485 CURVE SMOOTH"
);
}
);
width = 532;
}
);
unicode = 1141C;
category = Letter;
},
{
glyphname = Ddha;
lastChange = "2018-01-30 20:22:39 +0000";
layers = (
{
layerId = UUID0;
paths = (
{
closed = 1;
nodes = (
"205 58 OFFCURVE",
"132 164 OFFCURVE",
"117 285 CURVE",
"265 296 OFFCURVE",
"413 368 OFFCURVE",
"413 500 CURVE SMOOTH",
"413 551 LINE",
"590 551 LINE",
"590 622 LINE",
"0 622 LINE",
"0 551 LINE",
"332 551 LINE",
"332 498 LINE SMOOTH",
"332 400 OFFCURVE",
"187 351 OFFCURVE",
"30 346 CURVE",
"41 167 OFFCURVE",
"114 -12 OFFCURVE",
"329 -12 CURVE SMOOTH",
"472 -12 OFFCURVE",
"550 58 OFFCURVE",
"550 163 CURVE SMOOTH",
"550 212 OFFCURVE",
"511 280 OFFCURVE",
"424 280 CURVE SMOOTH",
"338 280 OFFCURVE",
"292 226 OFFCURVE",
"292 163 CURVE SMOOTH",
"292 109 OFFCURVE",
"323 67 OFFCURVE",
"372 45 CURVE",
"450 82 LINE",
"388 91 OFFCURVE",
"367 137 OFFCURVE",
"367 159 CURVE SMOOTH",
"367 196 OFFCURVE",
"394 214 OFFCURVE",
"419 214 CURVE SMOOTH",
"455 214 OFFCURVE",
"475 191 OFFCURVE",
"475 157 CURVE SMOOTH",
"475 99 OFFCURVE",
"426 58 OFFCURVE",
"327 58 CURVE SMOOTH"
);
}
);
width = 580;
}
);
unicode = 1141D;
category = Letter;
},
{
glyphname = Nna;
lastChange = "2018-01-30 20:22:39 +0000";
layers = (
{
layerId = UUID0;
paths = (
{
closed = 1;
nodes = (
"498 0 LINE",
"498 622 LINE",
"417 622 LINE",
"417 0 LINE"
);
},
{
closed = 1;
nodes = (
"328 204 LINE",
"291 172 OFFCURVE",
"253 151 OFFCURVE",
"203 151 CURVE SMOOTH",
"162 151 OFFCURVE",
"104 179 OFFCURVE",
"104 252 CURVE SMOOTH",
"104 323 OFFCURVE",
"151 358 OFFCURVE",
"242 361 CURVE",
"242 425 LINE",
"111 422 OFFCURVE",
"25 354 OFFCURVE",
"25 251 CURVE SMOOTH",
"25 142 OFFCURVE",
"103 81 OFFCURVE",
"207 81 CURVE SMOOTH",
"267 81 OFFCURVE",
"327 108 OFFCURVE",
"368 148 CURVE"
);
},
{
closed = 1;
nodes = (
"477 481 LINE",
"407 586 OFFCURVE",
"311 632 OFFCURVE",
"219 632 CURVE SMOOTH",
"130 632 OFFCURVE",
"53 587 OFFCURVE",
"53 494 CURVE SMOOTH",
"53 419 OFFCURVE",
"112 368 OFFCURVE",
"171 369 CURVE",
"239 425 LINE",
"177 425 OFFCURVE",
"132 440 OFFCURVE",
"132 492 CURVE SMOOTH",
"132 537 OFFCURVE",
"176 559 OFFCURVE",
"226 559 CURVE SMOOTH",
"302 559 OFFCURVE",
"394 514 OFFCURVE",
"450 398 CURVE"
);
}
);
width = 578;
}
);
unicode = 1141E;
category = Letter;
},
{
glyphname = Ta;
lastChange = "2018-01-30 20:22:39 +0000";
layers = (
{
layerId = UUID0;
paths = (
{
closed = 1;
nodes = (
"484 375 LINE SMOOTH",
"484 513 OFFCURVE",
"399 575 OFFCURVE",
"266 575 CURVE SMOOTH",
"124 575 OFFCURVE",
"50 482 OFFCURVE",
"50 369 CURVE SMOOTH",
"50 230 LINE",
"131 230 LINE",
"131 368 LINE SMOOTH",
"131 440 OFFCURVE",
"166 503 OFFCURVE",
"264 503 CURVE SMOOTH",
"379 503 OFFCURVE",
"403 434 OFFCURVE",
"403 368 CURVE SMOOTH",
"403 0 LINE",
"484 0 LINE"
);
},
{
closed = 1;
nodes = (
"604 622 LINE",
"0 622 LINE",
"0 551 LINE",
"604 551 LINE"
);
}
);
width = 564;
}
);
unicode = 1141F;
category = Letter;
},
{
glyphname = Tha;
lastChange = "2018-01-30 20:22:39 +0000";
layers = (
{
layerId = UUID0;
paths = (
{
closed = 1;
nodes = (
"560 0 LINE",
"560 622 LINE",
"479 622 LINE",
"479 0 LINE"
);
},
{
closed = 1;
nodes = (
"505 257 LINE",
"464 197 OFFCURVE",
"370 169 OFFCURVE",
"305 169 CURVE SMOOTH",
"239 169 OFFCURVE",
"176 191 OFFCURVE",
"159 249 CURVE",
"221 289 OFFCURVE",
"307 348 OFFCURVE",
"307 484 CURVE SMOOTH",
"307 569 OFFCURVE",
"257 632 OFFCURVE",
"177 632 CURVE SMOOTH",
"91 632 OFFCURVE",
"45 568 OFFCURVE",
"45 507 CURVE SMOOTH",
"45 441 OFFCURVE",
"89 379 OFFCURVE",
"185 379 CURVE SMOOTH",
"210 379 OFFCURVE",
"228 388 OFFCURVE",
"250 409 CURVE",
"250 478 LINE",
"232 459 OFFCURVE",
"214 446 OFFCURVE",
"185 446 CURVE SMOOTH",
"153 446 OFFCURVE",
"120 469 OFFCURVE",
"120 511 CURVE SMOOTH",
"120 548 OFFCURVE",
"147 566 OFFCURVE",
"172 566 CURVE SMOOTH",
"208 566 OFFCURVE",
"232 532 OFFCURVE",
"232 482 CURVE SMOOTH",
"232 363 OFFCURVE",
"152 311 OFFCURVE",
"71 279 CURVE",
"85 167 OFFCURVE",
"179 98 OFFCURVE",
"299 98 CURVE SMOOTH",
"363 98 OFFCURVE",
"477 125 OFFCURVE",
"514 191 CURVE"
);
}
);
width = 640;
}
);
unicode = 11420;
category = Letter;
},
{
glyphname = Da;
lastChange = "2018-01-30 20:22:39 +0000";
layers = (
{
layerId = UUID0;
paths = (
{
closed = 1;
nodes = (
"383 551 LINE",
"575 551 LINE",
"575 622 LINE",
"0 622 LINE",
"0 551 LINE",
"302 551 LINE",
"302 498 LINE SMOOTH",
"302 400 OFFCURVE",
"187 351 OFFCURVE",
"30 346 CURVE",
"41 167 OFFCURVE",
"95 -2 OFFCURVE",
"297 -2 CURVE SMOOTH",
"335 -2 OFFCURVE",
"368 3 OFFCURVE",
"393 10 CURVE",
"396 -14 OFFCURVE",
"402 -34 OFFCURVE",
"404 -48 CURVE",
"482 -34 LINE",
"478 -11 OFFCURVE",
"471 18 OFFCURVE",
"469 46 CURVE",
"516 55 OFFCURVE",
"548 85 OFFCURVE",
"548 141 CURVE SMOOTH",
"548 192 OFFCURVE",
"511 233 OFFCURVE",
"460 233 CURVE SMOOTH",
"413 233 OFFCURVE",
"376 201 OFFCURVE",
"376 141 CURVE SMOOTH",
"376 112 OFFCURVE",
"379 98 OFFCURVE",
"381 82 CURVE",
"361 74 OFFCURVE",
"334 68 OFFCURVE",
"299 68 CURVE SMOOTH",
"175 68 OFFCURVE",
"128 179 OFFCURVE",
"117 285 CURVE",
"265 296 OFFCURVE",
"383 368 OFFCURVE",
"383 500 CURVE SMOOTH"
);
}
);
width = 565;
}
);
unicode = 11421;
category = Letter;
},
{
glyphname = Dha;
lastChange = "2018-01-30 20:22:39 +0000";
layers = (
{
layerId = UUID0;
paths = (
{
closed = 1;
nodes = (
"415 0 LINE",
"496 0 LINE",
"496 622 LINE",
"415 622 LINE"
);
},
{
closed = 1;
nodes = (
"30 503 LINE SMOOTH",
"30 392 OFFCURVE",
"84 340 OFFCURVE",
"197 330 CURVE",
"260 387 LINE",
"131 388 OFFCURVE",
"111 437 OFFCURVE",
"111 512 CURVE SMOOTH",
"111 622 LINE",
"30 622 LINE"
);
},
{
closed = 1;
nodes = (
"318 383 LINE",
"298 386 OFFCURVE",
"276 388 OFFCURVE",
"251 388 CURVE SMOOTH",
"148 388 OFFCURVE",
"36 344 OFFCURVE",
"36 227 CURVE SMOOTH",
"36 119 OFFCURVE",
"134 81 OFFCURVE",
"233 81 CURVE SMOOTH",
"314 81 OFFCURVE",
"382 101 OFFCURVE",
"430 132 CURVE",
"435 221 LINE",
"399 177 OFFCURVE",
"316 151 OFFCURVE",
"235 151 CURVE SMOOTH",
"176 151 OFFCURVE",
"116 172 OFFCURVE",
"116 229 CURVE SMOOTH",
"116 299 OFFCURVE",
"187 318 OFFCURVE",
"254 318 CURVE SMOOTH",
"275 318 OFFCURVE",
"294 317 OFFCURVE",
"310 315 CURVE"
);
}
);
width = 576;
}
);
unicode = 11422;
category = Letter;
},
{
glyphname = Na;
lastChange = "2018-01-30 20:22:39 +0000";
layers = (
{
layerId = UUID0;
paths = (
{
closed = 1;
nodes = (
"462 0 LINE",
"462 551 LINE",
"552 551 LINE",
"552 622 LINE",
"0 622 LINE",
"0 551 LINE",
"381 551 LINE",
"381 0 LINE"
);
},
{
closed = 1;
nodes = (
"135 410 OFFCURVE",
"36 358 OFFCURVE",
"36 262 CURVE SMOOTH",
"36 204 OFFCURVE",
"72 164 OFFCURVE",
"119 164 CURVE SMOOTH",
"165 164 OFFCURVE",
"202 204 OFFCURVE",
"202 255 CURVE SMOOTH",
"202 278 OFFCURVE",
"194 299 OFFCURVE",
"182 315 CURVE",
"212 331 OFFCURVE",
"244 339 OFFCURVE",
"283 339 CURVE SMOOTH",
"342 339 OFFCURVE",
"385 327 OFFCURVE",
"407 315 CURVE",
"424 385 LINE",
"386 401 OFFCURVE",
"345 410 OFFCURVE",
"280 410 CURVE SMOOTH"
);
}
);
width = 542;
}
);
unicode = 11423;
category = Letter;
},
{
glyphname = Nha;
lastChange = "2018-01-30 20:22:39 +0000";
layers = (
{
layerId = UUID0;
paths = (
{
closed = 1;
nodes = (
"0 622 LINE",
"0 551 LINE",
"295 551 LINE",
"295 539 LINE SMOOTH",
"295 484 OFFCURVE",
"20 498 OFFCURVE",
"20 338 CURVE SMOOTH",
"20 260 OFFCURVE",
"95 223 OFFCURVE",
"147 223 CURVE SMOOTH",
"214 223 OFFCURVE",
"283 247 OFFCURVE",
"313 247 CURVE SMOOTH",
"366 247 OFFCURVE",
"379 211 OFFCURVE",
"379 185 CURVE SMOOTH",
"379 0 LINE",
"460 0 LINE",
"460 184 LINE SMOOTH",
"460 271 OFFCURVE",
"414 319 OFFCURVE",
"325 319 CURVE SMOOTH",
"273 319 OFFCURVE",
"225 297 OFFCURVE",
"153 297 CURVE SMOOTH",
"119 297 OFFCURVE",
"100 310 OFFCURVE",
"100 340 CURVE SMOOTH",
"100 443 OFFCURVE",
"376 417 OFFCURVE",
"376 535 CURVE SMOOTH",
"376 551 LINE",
"530 551 LINE",
"530 622 LINE"
);
},
{
closed = 1;
nodes = (
"300 267 LINE",
"219 267 LINE",
"219 0 LINE",
"300 0 LINE"
);
},
{
closed = 1;
nodes = (
"111 190 OFFCURVE",
"9 149 OFFCURVE",
"9 66 CURVE SMOOTH",
"9 24 OFFCURVE",
"38 -9 OFFCURVE",
"75 -9 CURVE SMOOTH",
"112 -9 OFFCURVE",
"141 24 OFFCURVE",
"141 66 CURVE SMOOTH",
"141 86 OFFCURVE",
"135 103 OFFCURVE",
"124 117 CURVE",
"152 132 OFFCURVE",
"191 140 OFFCURVE",
"229 140 CURVE",
"232 193 LINE"
);
}
);
width = 520;
}
);
unicode = 11424;
category = Letter;
},
{
glyphname = Pa;
lastChange = "2018-01-30 20:22:39 +0000";
layers = (
{
layerId = UUID0;
paths = (
{
closed = 1;
nodes = (
"410 257 LINE",
"374 211 OFFCURVE",
"316 171 OFFCURVE",
"240 171 CURVE SMOOTH",
"167 171 OFFCURVE",
"125 209 OFFCURVE",
"125 285 CURVE SMOOTH",
"125 354 OFFCURVE",
"177 397 OFFCURVE",
"177 461 CURVE SMOOTH",
"177 500 OFFCURVE",
"166 537 OFFCURVE",
"140 574 CURVE",
"63 564 LINE",
"76 541 OFFCURVE",
"97 503 OFFCURVE",
"97 457 CURVE SMOOTH",
"97 400 OFFCURVE",
"45 363 OFFCURVE",
"45 279 CURVE SMOOTH",
"45 170 OFFCURVE",
"114 100 OFFCURVE",
"234 100 CURVE SMOOTH",
"312 100 OFFCURVE",
"370 130 OFFCURVE",
"407 159 CURVE"
);
},
{
closed = 1;
nodes = (
"481 0 LINE",
"481 551 LINE",
"571 551 LINE",
"571 622 LINE",
"0 622 LINE",
"0 551 LINE",
"400 551 LINE",
"400 0 LINE"
);
}
);
width = 561;
}
);
unicode = 11425;
category = Letter;
},
{
glyphname = Pha;
lastChange = "2018-01-30 20:22:39 +0000";
layers = (
{
layerId = UUID0;
paths = (
{
closed = 1;
nodes = (
"168 349 LINE",
"262 363 OFFCURVE",
"361 405 OFFCURVE",
"361 520 CURVE SMOOTH",
"361 551 LINE",
"610 551 LINE",
"610 622 LINE",
"0 622 LINE",
"0 551 LINE",
"280 551 LINE",
"280 518 LINE SMOOTH",
"280 445 OFFCURVE",
"172 403 OFFCURVE",
"52 401 CURVE",
"53 382 LINE",
"355 -29 LINE",
"419 0 LINE"
);
},
{
closed = 1;
nodes = (
"309 296 LINE",
"307 287 OFFCURVE",
"306 278 OFFCURVE",
"306 269 CURVE SMOOTH",
"306 201 OFFCURVE",
"358 147 OFFCURVE",
"431 147 CURVE SMOOTH",
"509 147 OFFCURVE",
"547 206 OFFCURVE",
"547 267 CURVE SMOOTH",
"547 327 OFFCURVE",
"498 388 OFFCURVE",
"426 388 CURVE SMOOTH",
"337 388 OFFCURVE",
"271 310 OFFCURVE",
"242 229 CURVE",
"296 164 LINE",
"314 249 OFFCURVE",
"368 318 OFFCURVE",
"425 318 CURVE SMOOTH",
"452 318 OFFCURVE",
"476 301 OFFCURVE",
"476 265 CURVE SMOOTH",
"476 238 OFFCURVE",
"455 216 OFFCURVE",
"431 216 CURVE SMOOTH",
"399 216 OFFCURVE",
"373 237 OFFCURVE",
"373 278 CURVE SMOOTH",
"373 293 OFFCURVE",
"377 311 OFFCURVE",
"384 329 CURVE"
);
}
);
width = 600;
}
);
unicode = 11426;
category = Letter;
},
{
glyphname = Ba;
lastChange = "2018-01-30 20:22:39 +0000";
layers = (
{
layerId = UUID0;
paths = (
{
closed = 1;
nodes = (
"576 622 LINE",
"0 622 LINE",
"0 551 LINE",
"405 551 LINE",
"405 219 LINE",
"370 186 OFFCURVE",
"321 167 OFFCURVE",
"260 167 CURVE SMOOTH",
"187 167 OFFCURVE",
"131 205 OFFCURVE",
"131 287 CURVE SMOOTH",
"131 357 OFFCURVE",
"184 401 OFFCURVE",
"272 401 CURVE SMOOTH",
"352 401 OFFCURVE",
"405 376 OFFCURVE",
"431 363 CURVE",
"447 429 LINE",
"426 444 OFFCURVE",
"359 470 OFFCURVE",
"269 470 CURVE SMOOTH",
"138 470 OFFCURVE",
"50 400 OFFCURVE",
"50 286 CURVE SMOOTH",
"50 175 OFFCURVE",
"132 98 OFFCURVE",
"257 98 CURVE SMOOTH",
"319 98 OFFCURVE",
"369 115 OFFCURVE",
"405 141 CURVE",
"405 0 LINE",
"486 0 LINE",
"486 551 LINE",
"576 551 LINE"
);
}
);
width = 566;
}
);
unicode = 11427;
category = Letter;
},
{
glyphname = Bha;
lastChange = "2018-01-30 20:22:39 +0000";
layers = (
{
layerId = UUID0;
paths = (
{
closed = 1;
nodes = (
"223 -11 LINE",
"284 34 LINE",
"131 236 LINE",
"131 368 LINE SMOOTH",
"131 440 OFFCURVE",
"166 503 OFFCURVE",
"264 503 CURVE SMOOTH",
"379 503 OFFCURVE",
"403 434 OFFCURVE",
"403 368 CURVE SMOOTH",
"403 0 LINE",
"484 0 LINE",
"484 375 LINE SMOOTH",
"484 513 OFFCURVE",
"399 575 OFFCURVE",
"266 575 CURVE SMOOTH",
"124 575 OFFCURVE",
"50 482 OFFCURVE",
"50 369 CURVE SMOOTH",
"50 217 LINE"
);
},
{
closed = 1;
nodes = (
"574 622 LINE",
"0 622 LINE",
"0 551 LINE",
"574 551 LINE"
);
}
);
width = 564;
}
);
unicode = 11428;
category = Letter;
},
{
glyphname = Ma;
lastChange = "2018-01-30 20:22:39 +0000";
layers = (
{
layerId = UUID0;
paths = (
{
closed = 1;
nodes = (
"508 0 LINE",
"508 551 LINE",
"598 551 LINE",
"598 622 LINE",
"0 622 LINE",
"0 551 LINE",
"105 551 LINE",
"105 270 LINE",
"186 205 LINE",
"186 551 LINE",
"427 551 LINE",
"427 0 LINE"
);
},
{
closed = 1;
nodes = (
"111 317 OFFCURVE",
"20 296 OFFCURVE",
"20 205 CURVE SMOOTH",
"20 154 OFFCURVE",
"56 114 OFFCURVE",
"103 114 CURVE SMOOTH",
"149 114 OFFCURVE",
"186 154 OFFCURVE",
"186 205 CURVE SMOOTH",
"186 219 OFFCURVE",
"183 233 OFFCURVE",
"178 245 CURVE",
"190 246 OFFCURVE",
"203 247 OFFCURVE",
"219 247 CURVE SMOOTH",
"299 247 OFFCURVE",
"415 206 OFFCURVE",
"438 142 CURVE",
"455 243 LINE",
"381 297 OFFCURVE",
"297 317 OFFCURVE",
"209 317 CURVE SMOOTH"
);
}
);
width = 588;
}
);
unicode = 11429;
category = Letter;
},
{
glyphname = Mha;
lastChange = "2018-01-30 20:22:39 +0000";
layers = (
{
layerId = UUID0;
paths = (
{
closed = 1;
nodes = (
"194 129 LINE",
"264 65 LINE",
"264 270 LINE",
"194 270 LINE"
);
},
{
closed = 1;
nodes = (
"468 0 LINE",
"549 0 LINE",
"549 580 LINE",
"468 580 LINE"
);
},
{
closed = 1;
nodes = (
"0 622 LINE",
"0 551 LINE",
"304 551 LINE",
"304 539 LINE SMOOTH",
"304 514 OFFCURVE",
"248 498 OFFCURVE",
"195 481 CURVE SMOOTH",
"104 452 OFFCURVE",
"40 410 OFFCURVE",
"40 333 CURVE SMOOTH",
"40 250 OFFCURVE",
"105 213 OFFCURVE",
"184 213 CURVE SMOOTH",
"316 213 OFFCURVE",
"451 255 OFFCURVE",
"544 255 CURVE SMOOTH",
"611 255 OFFCURVE",
"619 219 OFFCURVE",
"619 193 CURVE SMOOTH",
"619 0 LINE",
"700 0 LINE",
"700 192 LINE SMOOTH",
"700 279 OFFCURVE",
"659 327 OFFCURVE",
"554 327 CURVE SMOOTH",
"465 327 OFFCURVE",
"305 287 OFFCURVE",
"184 287 CURVE SMOOTH",
"139 287 OFFCURVE",
"120 308 OFFCURVE",
"120 334 CURVE SMOOTH",
"120 378 OFFCURVE",
"172 398 OFFCURVE",
"240 422 CURVE SMOOTH",
"310 447 OFFCURVE",
"385 472 OFFCURVE",
"385 535 CURVE SMOOTH",
"385 551 LINE",
"770 551 LINE",
"770 622 LINE"
);
},
{
closed = 1;
nodes = (
"184 158 OFFCURVE",
"129 129 OFFCURVE",
"129 65 CURVE SMOOTH",
"129 23 OFFCURVE",
"159 -10 OFFCURVE",
"197 -10 CURVE SMOOTH",
"234 -10 OFFCURVE",
"264 23 OFFCURVE",
"264 65 CURVE SMOOTH",
"264 77 OFFCURVE",
"262 87 OFFCURVE",
"258 97 CURVE",
"268 98 OFFCURVE",
"279 99 OFFCURVE",
"292 99 CURVE SMOOTH",
"356 99 OFFCURVE",
"450 66 OFFCURVE",
"469 14 CURVE",
"483 96 LINE",
"423 141 OFFCURVE",
"355 158 OFFCURVE",
"283 158 CURVE SMOOTH"
);
}
);
width = 760;
}
);
unicode = 1142A;
category = Letter;
},
{
glyphname = Ya;
lastChange = "2018-01-30 20:22:39 +0000";
layers = (
{
layerId = UUID0;
paths = (
{
closed = 1;
nodes = (
"418 255 LINE",
"382 209 OFFCURVE",
"324 171 OFFCURVE",
"248 171 CURVE SMOOTH",
"182 171 OFFCURVE",
"107 197 OFFCURVE",
"92 259 CURVE",
"142 289 OFFCURVE",
"186 336 OFFCURVE",
"186 439 CURVE SMOOTH",
"186 572 LINE",
"105 562 LINE",
"105 435 LINE SMOOTH",
"105 378 OFFCURVE",
"85 318 OFFCURVE",
"8 283 CURVE",
"24 159 OFFCURVE",
"122 100 OFFCURVE",
"242 100 CURVE SMOOTH",
"322 100 OFFCURVE",
"380 132 OFFCURVE",
"418 166 CURVE"
);
},
{
closed = 1;
nodes = (
"489 0 LINE",
"489 551 LINE",
"579 551 LINE",
"579 622 LINE",
"0 622 LINE",
"0 551 LINE",
"408 551 LINE",
"408 0 LINE"
);
}
);
width = 569;
}
);
unicode = 1142B;
category = Letter;
},
{
glyphname = Ra;
lastChange = "2018-01-30 20:22:39 +0000";
layers = (
{
layerId = UUID0;
paths = (
{
closed = 1;
nodes = (
"416 368 LINE",
"386 384 OFFCURVE",
"346 393 OFFCURVE",
"303 393 CURVE SMOOTH",
"246 393 OFFCURVE",
"205 363 OFFCURVE",
"152 363 CURVE SMOOTH",
"107 363 OFFCURVE",
"78 373 OFFCURVE",
"54 383 CURVE",
"36 317 LINE",
"66 301 OFFCURVE",
"106 292 OFFCURVE",
"156 292 CURVE SMOOTH",
"212 292 OFFCURVE",
"247 322 OFFCURVE",
"303 322 CURVE SMOOTH",
"345 322 OFFCURVE",
"378 310 OFFCURVE",
"397 290 CURVE"
);
},
{
closed = 1;
nodes = (
"456 0 LINE",
"456 551 LINE",
"546 551 LINE",
"546 622 LINE",
"0 622 LINE",
"0 551 LINE",
"375 551 LINE",
"375 0 LINE"
);
}
);
width = 536;
}
);
unicode = 1142C;
category = Letter;
},
{
glyphname = Rha;
lastChange = "2018-01-30 20:22:39 +0000";
layers = (
{
layerId = UUID0;
paths = (
{
closed = 1;
nodes = (
"0 622 LINE",
"0 551 LINE",
"284 551 LINE",
"284 539 LINE SMOOTH",
"284 515 OFFCURVE",
"232 504 OFFCURVE",
"174 485 CURVE SMOOTH",
"102 462 OFFCURVE",
"20 427 OFFCURVE",
"20 338 CURVE SMOOTH",
"20 262 OFFCURVE",
"76 223 OFFCURVE",
"147 223 CURVE SMOOTH",
"214 223 OFFCURVE",
"268 247 OFFCURVE",
"298 247 CURVE SMOOTH",
"351 247 OFFCURVE",
"359 211 OFFCURVE",
"359 185 CURVE SMOOTH",
"359 0 LINE",
"440 0 LINE",
"440 184 LINE SMOOTH",
"440 271 OFFCURVE",
"399 319 OFFCURVE",
"310 319 CURVE SMOOTH",
"258 319 OFFCURVE",
"225 297 OFFCURVE",
"153 297 CURVE SMOOTH",
"119 297 OFFCURVE",
"100 310 OFFCURVE",
"100 340 CURVE SMOOTH",
"100 382 OFFCURVE",
"141 401 OFFCURVE",
"213 426 CURVE SMOOTH",
"298 455 OFFCURVE",
"365 476 OFFCURVE",
"365 535 CURVE SMOOTH",
"365 551 LINE",
"510 551 LINE",
"510 622 LINE"
);
},
{
closed = 1;
nodes = (
"277 267 LINE",
"196 267 LINE",
"196 0 LINE",
"277 0 LINE"
);
},
{
closed = 1;
nodes = (
"251 132 LINE",
"234 144 OFFCURVE",
"211 152 OFFCURVE",
"186 152 CURVE SMOOTH",
"154 152 OFFCURVE",
"130 127 OFFCURVE",
"100 127 CURVE SMOOTH",
"75 127 OFFCURVE",
"56 136 OFFCURVE",
"42 143 CURVE",
"34 92 LINE",
"51 78 OFFCURVE",
"74 71 OFFCURVE",
"102 71 CURVE SMOOTH",
"134 71 OFFCURVE",
"155 96 OFFCURVE",
"186 96 CURVE SMOOTH",
"211 96 OFFCURVE",
"229 86 OFFCURVE",
"241 70 CURVE"
);
}
);
width = 500;
}
);
unicode = 1142D;
category = Letter;
},
{
glyphname = La;
lastChange = "2018-01-30 20:22:39 +0000";
layers = (
{
layerId = UUID0;
paths = (
{
closed = 1;
nodes = (
"487 551 LINE",
"487 0 LINE",
"568 0 LINE",
"568 551 LINE",
"658 551 LINE",
"658 622 LINE",
"0 622 LINE",
"0 551 LINE"
);
},
{
closed = 1;
nodes = (
"391 477 OFFCURVE",
"336 460 OFFCURVE",
"301 419 CURVE",
"269 456 OFFCURVE",
"222 477 OFFCURVE",
"171 477 CURVE SMOOTH",
"75 477 OFFCURVE",
"15 412 OFFCURVE",
"15 332 CURVE SMOOTH",
"15 263 OFFCURVE",
"70 190 OFFCURVE",
"122 121 CURVE SMOOTH",
"222 -11 LINE",
"283 34 LINE",
"178 174 LINE SMOOTH",
"130 238 OFFCURVE",
"97 282 OFFCURVE",
"97 329 CURVE SMOOTH",
"97 386 OFFCURVE",
"139 409 OFFCURVE",
"172 409 CURVE SMOOTH",
"221 409 OFFCURVE",
"264 375 OFFCURVE",
"264 318 CURVE SMOOTH",
"264 310 LINE",
"338 310 LINE",
"338 405 OFFCURVE",
"411 409 OFFCURVE",
"440 409 CURVE SMOOTH",
"472 409 OFFCURVE",
"499 399 OFFCURVE",
"507 397 CURVE",
"520 468 LINE",
"503 472 OFFCURVE",
"474 477 OFFCURVE",
"436 477 CURVE SMOOTH"
);
}
);
width = 648;
}
);
unicode = 1142E;
category = Letter;
},
{
glyphname = Lha;
lastChange = "2018-01-30 20:22:39 +0000";
layers = (
{
layerId = UUID0;
paths = (
{
closed = 1;
nodes = (
"321 136 LINE",
"321 184 OFFCURVE",
"284 220 OFFCURVE",
"230 220 CURVE SMOOTH",
"205 220 OFFCURVE",
"181 209 OFFCURVE",
"163 190 CURVE",
"143 209 OFFCURVE",
"116 220 OFFCURVE",
"91 220 CURVE SMOOTH",
"37 220 OFFCURVE",
"0 184 OFFCURVE",
"0 136 CURVE SMOOTH",
"0 101 OFFCURVE",
"23 63 OFFCURVE",
"51 24 CURVE SMOOTH",
"85 -23 LINE",
"136 12 LINE",
"102 57 LINE SMOOTH",
"84 81 OFFCURVE",
"60 114 OFFCURVE",
"60 132 CURVE SMOOTH",
"60 156 OFFCURVE",
"78 166 OFFCURVE",
"95 166 CURVE SMOOTH",
"117 166 OFFCURVE",
"137 145 OFFCURVE",
"137 111 CURVE",
"191 111 LINE",
"191 145 OFFCURVE",
"208 166 OFFCURVE",
"230 166 CURVE SMOOTH",
"243 166 OFFCURVE",
"261 156 OFFCURVE",
"261 132 CURVE"
);
},
{
closed = 1;
nodes = (
"341 298 LINE",
"260 267 LINE",
"260 0 LINE",
"341 0 LINE"
);
},
{
closed = 1;
nodes = (
"0 622 LINE",
"0 551 LINE",
"313 551 LINE",
"302 530 OFFCURVE",
"253 519 OFFCURVE",
"187 502 CURVE SMOOTH",
"111 482 OFFCURVE",
"31 443 OFFCURVE",
"31 358 CURVE SMOOTH",
"31 289 OFFCURVE",
"89 243 OFFCURVE",
"163 243 CURVE SMOOTH",
"225 243 OFFCURVE",
"299 267 OFFCURVE",
"329 267 CURVE SMOOTH",
"390 267 OFFCURVE",
"410 235 OFFCURVE",
"410 191 CURVE SMOOTH",
"410 0 LINE",
"491 0 LINE",
"491 194 LINE SMOOTH",
"491 291 OFFCURVE",
"440 339 OFFCURVE",
"357 339 CURVE SMOOTH",
"289 339 OFFCURVE",
"236 317 OFFCURVE",
"164 317 CURVE SMOOTH",
"130 317 OFFCURVE",
"111 330 OFFCURVE",
"111 360 CURVE SMOOTH",
"111 406 OFFCURVE",
"155 424 OFFCURVE",
"229 445 CURVE SMOOTH",
"306 467 OFFCURVE",
"392 488 OFFCURVE",
"396 551 CURVE",
"561 551 LINE",
"561 622 LINE"
);
}
);
width = 551;
}
);
unicode = 1142F;
category = Letter;
},
{
glyphname = Wa;
lastChange = "2018-01-30 20:22:39 +0000";
layers = (
{
layerId = UUID0;
paths = (
{
closed = 1;
nodes = (
"492 509 LINE",
"347 504 OFFCURVE",
"15 455 OFFCURVE",
"15 259 CURVE SMOOTH",
"15 179 OFFCURVE",
"75 114 OFFCURVE",
"171 114 CURVE SMOOTH",
"243 114 OFFCURVE",
"309 156 OFFCURVE",
"331 229 CURVE",
"264 273 LINE",
"264 216 OFFCURVE",
"221 182 OFFCURVE",
"172 182 CURVE SMOOTH",
"139 182 OFFCURVE",
"97 205 OFFCURVE",
"97 262 CURVE SMOOTH",
"97 387 OFFCURVE",
"354 440 OFFCURVE",
"504 444 CURVE"
);
},
{
closed = 1;
nodes = (
"660 622 LINE",
"0 622 LINE",
"0 551 LINE",
"489 551 LINE",
"489 0 LINE",
"570 0 LINE",
"570 551 LINE",
"660 551 LINE"
);
},
{
closed = 1;
nodes = (
"502 243 LINE",
"498 204 OFFCURVE",
"449 182 OFFCURVE",
"417 182 CURVE SMOOTH",
"388 182 OFFCURVE",
"341 192 OFFCURVE",
"338 281 CURVE",
"264 281 LINE",
"264 151 OFFCURVE",
"344 114 OFFCURVE",
"416 114 CURVE SMOOTH",
"471 114 OFFCURVE",
"521 146 OFFCURVE",
"535 171 CURVE"
);
}
);
width = 650;
}
);
unicode = 11430;
category = Letter;
},
{
glyphname = Sha;
lastChange = "2018-01-30 20:22:39 +0000";
layers = (
{
layerId = UUID0;
paths = (
{
closed = 1;
nodes = (
"490 622 LINE",
"490 0 LINE",
"571 0 LINE",
"571 622 LINE"
);
},
{
closed = 1;
nodes = (
"528 329 LINE",
"461 388 OFFCURVE",
"410 431 OFFCURVE",
"379 594 CURVE",
"315 611 LINE",
"320 435 OFFCURVE",
"397 325 OFFCURVE",
"515 260 CURVE"
);
},
{
closed = 1;
nodes = (
"326 629 LINE",
"289 583 OFFCURVE",
"243 553 OFFCURVE",
"200 525 CURVE",
"156 553 OFFCURVE",
"110 583 OFFCURVE",
"73 629 CURVE",
"20 594 LINE",
"48 545 OFFCURVE",
"95 513 OFFCURVE",
"140 484 CURVE",
"99 452 OFFCURVE",
"70 413 OFFCURVE",
"70 350 CURVE SMOOTH",
"70 300 OFFCURVE",
"98 235 OFFCURVE",
"199 235 CURVE SMOOTH",
"301 235 OFFCURVE",
"329 300 OFFCURVE",
"329 350 CURVE SMOOTH",
"329 413 OFFCURVE",
"300 452 OFFCURVE",
"259 484 CURVE",
"304 513 OFFCURVE",
"351 545 OFFCURVE",
"379 594 CURVE"
);
},
{
closed = 1;
nodes = (
"254 326 OFFCURVE",
"236 301 OFFCURVE",
"204 301 CURVE SMOOTH",
"194 301 LINE SMOOTH",
"162 301 OFFCURVE",
"145 328 OFFCURVE",
"145 363 CURVE SMOOTH",
"145 397 OFFCURVE",
"168 422 OFFCURVE",
"200 446 CURVE",
"231 422 OFFCURVE",
"254 397 OFFCURVE",
"254 363 CURVE SMOOTH"
);
}
);
width = 651;
}
);
unicode = 11431;
category = Letter;
},
{
glyphname = Ssa;
lastChange = "2018-01-30 20:22:39 +0000";
layers = (
{
layerId = UUID0;
paths = (
{
closed = 1;
nodes = (
"417 230 LINE",
"459 286 LINE",
"154 522 LINE",
"116 463 LINE"
);
},
{
closed = 1;
nodes = (
"410 257 LINE",
"374 211 OFFCURVE",
"316 171 OFFCURVE",
"240 171 CURVE SMOOTH",
"167 171 OFFCURVE",
"125 209 OFFCURVE",
"125 285 CURVE SMOOTH",
"125 354 OFFCURVE",
"177 397 OFFCURVE",
"177 461 CURVE SMOOTH",
"177 491 OFFCURVE",
"174 537 OFFCURVE",
"148 574 CURVE",
"63 564 LINE",
"76 541 OFFCURVE",
"97 503 OFFCURVE",
"97 457 CURVE SMOOTH",
"97 400 OFFCURVE",
"45 363 OFFCURVE",
"45 279 CURVE SMOOTH",
"45 170 OFFCURVE",
"114 100 OFFCURVE",
"234 100 CURVE SMOOTH",
"312 100 OFFCURVE",
"370 130 OFFCURVE",
"407 159 CURVE"
);
},
{
closed = 1;
nodes = (
"481 0 LINE",
"481 551 LINE",
"571 551 LINE",
"571 622 LINE",
"0 622 LINE",
"0 551 LINE",
"400 551 LINE",
"400 0 LINE"
);
}
);
width = 561;
}
);
unicode = 11432;
category = Letter;
},
{
glyphname = Sa;
lastChange = "2018-01-30 20:22:39 +0000";
layers = (
{
layerId = UUID0;
paths = (
{
closed = 1;
nodes = (
"581 551 LINE",
"581 622 LINE",
"243 622 LINE",
"243 551 LINE",
"410 551 LINE",
"410 0 LINE",
"491 0 LINE",
"491 551 LINE"
);
},
{
closed = 1;
nodes = (
"398 622 LINE",
"-10 622 LINE",
"-10 551 LINE",
"398 551 LINE"
);
},
{
closed = 1;
nodes = (
"94 289 LINE",
"148 301 OFFCURVE",
"213 346 OFFCURVE",
"213 457 CURVE SMOOTH",
"213 515 OFFCURVE",
"191 545 OFFCURVE",
"170 571 CURVE",
"90 553 LINE",
"117 535 OFFCURVE",
"132 500 OFFCURVE",
"132 458 CURVE SMOOTH",
"132 397 OFFCURVE",
"102 333 OFFCURVE",
"21 331 CURVE",
"16 271 LINE",
"204 0 LINE",
"300 0 LINE"
);
},
{
closed = 1;
nodes = (
"461 286 LINE",
"358 313 OFFCURVE",
"238 333 OFFCURVE",
"116 333 CURVE SMOOTH",
"83 333 OFFCURVE",
"54 333 OFFCURVE",
"21 331 CURVE",
"37 262 LINE",
"64 263 OFFCURVE",
"75 262 OFFCURVE",
"102 262 CURVE SMOOTH",
"238 262 OFFCURVE",
"343 242 OFFCURVE",
"461 215 CURVE"
);
}
);
width = 571;
}
);
unicode = 11433;
category = Letter;
},
{
glyphname = Ha;
lastChange = "2018-01-30 20:22:39 +0000";
layers = (
{
layerId = UUID0;
paths = (
{
closed = 1;
nodes = (
"0 622 LINE",
"0 551 LINE",
"304 551 LINE",
"304 539 LINE SMOOTH",
"304 416 OFFCURVE",
"20 463 OFFCURVE",
"20 297 CURVE SMOOTH",
"20 196 OFFCURVE",
"95 162 OFFCURVE",
"177 162 CURVE SMOOTH",
"230 162 OFFCURVE",
"268 174 OFFCURVE",
"298 174 CURVE SMOOTH",
"351 174 OFFCURVE",
"360 146 OFFCURVE",
"360 120 CURVE SMOOTH",
"360 69 OFFCURVE",
"334 35 OFFCURVE",
"323 22 CURVE",
"385 -11 LINE",
"396 0 OFFCURVE",
"440 47 OFFCURVE",
"440 122 CURVE SMOOTH",
"440 192 OFFCURVE",
"399 246 OFFCURVE",
"310 246 CURVE SMOOTH",
"258 246 OFFCURVE",
"225 236 OFFCURVE",
"177 236 CURVE SMOOTH",
"128 236 OFFCURVE",
"100 248 OFFCURVE",
"100 299 CURVE SMOOTH",
"100 402 OFFCURVE",
"385 364 OFFCURVE",
"385 537 CURVE SMOOTH",
"385 551 LINE",
"485 551 LINE",
"485 622 LINE"
);
},
{
closed = 1;
nodes = (
"172 16 LINE",
"139 53 OFFCURVE",
"112 84 OFFCURVE",
"112 138 CURVE SMOOTH",
"112 181 OFFCURVE",
"131 205 OFFCURVE",
"132 211 CURVE",
"67 244 LINE",
"50 219 OFFCURVE",
"32 185 OFFCURVE",
"32 144 CURVE SMOOTH",
"32 77 OFFCURVE",
"73 15 OFFCURVE",
"112 -28 CURVE"
);
}
);
width = 475;
}
);
unicode = 11434;
category = Letter;
},
{
glyphname = AA_dv;
lastChange = "2018-01-30 20:22:39 +0000";
layers = (
{
layerId = UUID0;
paths = (
{
closed = 1;
nodes = (
"131 0 LINE",
"131 551 LINE",
"221 551 LINE",
"221 622 LINE",
"0 622 LINE",
"0 551 LINE",
"50 551 LINE",
"50 0 LINE"
);
}
);
width = 211;
}
);
unicode = 11435;
category = Letter;
},
{
glyphname = I_dv;
lastChange = "2018-01-30 20:22:39 +0000";
layers = (
{
layerId = UUID0;
paths = (
{
closed = 1;
nodes = (
"50 0 LINE",
"131 0 LINE",
"131 551 LINE",
"251 551 LINE",
"251 622 LINE",
"0 622 LINE",
"0 551 LINE",
"50 551 LINE"
);
},
{
closed = 1;
nodes = (
"131 618 LINE",
"110 644 OFFCURVE",
"92 686 OFFCURVE",
"92 720 CURVE SMOOTH",
"92 741 OFFCURVE",
"96 793 OFFCURVE",
"177 793 CURVE SMOOTH",
"238 793 OFFCURVE",
"298 757 OFFCURVE",
"365 706 CURVE SMOOTH",
"543 569 LINE",
"585 619 LINE",
"427 740 LINE SMOOTH",
"323 819 OFFCURVE",
"254 865 OFFCURVE",
"164 865 CURVE SMOOTH",
"56 865 OFFCURVE",
"11 805 OFFCURVE",
"11 733 CURVE SMOOTH",
"11 686 OFFCURVE",
"33 639 OFFCURVE",
"52 614 CURVE"
);
}
);
width = 211;
}
);
unicode = 11436;
},
{
glyphname = II_dv;
lastChange = "2018-01-30 20:22:39 +0000";
layers = (
{
layerId = UUID0;
paths = (
{
closed = 1;
nodes = (
"3 747 LINE SMOOTH",
"-46 796 OFFCURVE",
"-96 835 OFFCURVE",
"-161 835 CURVE SMOOTH",
"-227 835 OFFCURVE",
"-265 786 OFFCURVE",
"-265 723 CURVE SMOOTH",
"-265 664 OFFCURVE",
"-239 619 OFFCURVE",
"-221 591 CURVE",
"-155 620 LINE",
"-172 647 OFFCURVE",
"-188 679 OFFCURVE",
"-188 718 CURVE SMOOTH",
"-188 747 OFFCURVE",
"-170 763 OFFCURVE",
"-148 763 CURVE SMOOTH",
"-114 763 OFFCURVE",
"-79 731 OFFCURVE",
"-42 697 CURVE SMOOTH",
"41 622 LINE",
"0 622 LINE",
"0 551 LINE",
"50 551 LINE",
"50 0 LINE",
"131 0 LINE",
"131 551 LINE",
"251 551 LINE",
"251 622 LINE",
"128 622 LINE"
);
}
);
width = 211;
}
);
unicode = 11437;
category = Letter;
},
{
glyphname = U_dv;
lastChange = "2018-01-30 20:22:39 +0000";
layers = (
{
layerId = UUID0;
paths = (
{
closed = 1;
nodes = (
"0 -229 LINE",
"-55 -135 OFFCURVE",
"-171 -61 OFFCURVE",
"-301 -61 CURVE SMOOTH",
"-362 -61 OFFCURVE",
"-400 -75 OFFCURVE",
"-431 -92 CURVE",
"-405 -161 LINE",
"-387 -150 OFFCURVE",
"-354 -133 OFFCURVE",
"-300 -133 CURVE SMOOTH",
"-187 -133 OFFCURVE",
"-105 -200 OFFCURVE",
"-64 -271 CURVE"
);
}
);
width = 0;
}
);
unicode = 11438;
category = Mark;
},
{
glyphname = UU_dv;
lastChange = "2018-01-30 20:22:39 +0000";
layers = (
{
layerId = UUID0;
paths = (
{
closed = 1;
nodes = (
"-233 10 LINE",
"-233 -63 LINE SMOOTH",
"-233 -98 OFFCURVE",
"-258 -172 OFFCURVE",
"-319 -172 CURVE SMOOTH",
"-343 -172 OFFCURVE",
"-361 -158 OFFCURVE",
"-361 -133 CURVE SMOOTH",
"-361 -111 OFFCURVE",
"-342 -96 OFFCURVE",
"-312 -96 CURVE SMOOTH",
"-225 -96 OFFCURVE",
"-135 -144 OFFCURVE",
"-62 -235 CURVE",
"0 -196 LINE",
"-81 -98 OFFCURVE",
"-199 -26 OFFCURVE",
"-310 -26 CURVE SMOOTH",
"-385 -26 OFFCURVE",
"-434 -74 OFFCURVE",
"-434 -137 CURVE SMOOTH",
"-434 -202 OFFCURVE",
"-384 -238 OFFCURVE",
"-325 -238 CURVE SMOOTH",
"-214 -238 OFFCURVE",
"-152 -128 OFFCURVE",
"-152 -75 CURVE SMOOTH",
"-152 15 LINE"
);
}
);
width = 0;
}
);
unicode = 11439;
category = Mark;
},
{
glyphname = R_dv;
lastChange = "2018-01-30 20:22:39 +0000";
layers = (
{
layerId = UUID0;
paths = (
{
closed = 1;
nodes = (
"-25 -164 LINE",
"-71 -188 OFFCURVE",
"-96 -198 OFFCURVE",
"-138 -198 CURVE SMOOTH",
"-179 -198 OFFCURVE",
"-219 -178 OFFCURVE",
"-219 -132 CURVE SMOOTH",
"-219 -88 OFFCURVE",
"-187 -57 OFFCURVE",
"-109 -48 CURVE",
"-116 18 LINE",
"-233 11 OFFCURVE",
"-293 -52 OFFCURVE",
"-293 -126 CURVE SMOOTH",
"-293 -210 OFFCURVE",
"-233 -268 OFFCURVE",
"-133 -268 CURVE SMOOTH",
"-79 -268 OFFCURVE",
"-34 -251 OFFCURVE",
"0 -233 CURVE"
);
}
);
width = 0;
}
);
unicode = 1143A;
category = Mark;
},
{
glyphname = RR_dv;
lastChange = "2018-01-30 20:22:39 +0000";
layers = (
{
layerId = UUID0;
paths = (
{
closed = 1;
nodes = (
"-59 -148 LINE",
"-93 -162 OFFCURVE",
"-118 -168 OFFCURVE",
"-154 -168 CURVE SMOOTH",
"-202 -168 OFFCURVE",
"-225 -151 OFFCURVE",
"-225 -114 CURVE SMOOTH",
"-225 -81 OFFCURVE",
"-193 -55 OFFCURVE",
"-115 -48 CURVE",
"-121 18 LINE",
"-238 12 OFFCURVE",
"-299 -44 OFFCURVE",
"-299 -114 CURVE SMOOTH",
"-299 -193 OFFCURVE",
"-231 -238 OFFCURVE",
"-149 -238 CURVE SMOOTH",
"-105 -238 OFFCURVE",
"-68 -228 OFFCURVE",
"-37 -214 CURVE"
);
},
{
closed = 1;
nodes = (
"-22 -304 LINE",
"-56 -318 OFFCURVE",
"-82 -324 OFFCURVE",
"-117 -324 CURVE SMOOTH",
"-167 -324 OFFCURVE",
"-196 -307 OFFCURVE",
"-196 -270 CURVE SMOOTH",
"-196 -252 OFFCURVE",
"-188 -238 OFFCURVE",
"-169 -222 CURVE",
"-244 -195 LINE",
"-260 -216 OFFCURVE",
"-270 -239 OFFCURVE",
"-270 -272 CURVE SMOOTH",
"-270 -338 OFFCURVE",
"-218 -394 OFFCURVE",
"-112 -394 CURVE SMOOTH",
"-67 -394 OFFCURVE",
"-31 -384 OFFCURVE",
"0 -370 CURVE"
);
}
);
width = 0;
}
);
unicode = 1143B;
category = Mark;
},
{
glyphname = L_dv;
lastChange = "2018-01-30 20:22:39 +0000";
layers = (
{
layerId = UUID0;
paths = (
{
closed = 1;
nodes = (
"-43 -258 LINE",
"-62 -268 OFFCURVE",
"-85 -272 OFFCURVE",
"-112 -272 CURVE SMOOTH",
"-161 -272 OFFCURVE",
"-173 -249 OFFCURVE",
"-173 -233 CURVE SMOOTH",
"-173 -195 OFFCURVE",
"-98 -152 OFFCURVE",
"-98 -84 CURVE SMOOTH",
"-98 -49 OFFCURVE",
"-122 11 OFFCURVE",
"-208 11 CURVE SMOOTH",
"-261 11 OFFCURVE",
"-301 -24 OFFCURVE",
"-316 -52 CURVE",
"-262 -92 LINE",
"-256 -75 OFFCURVE",
"-238 -59 OFFCURVE",
"-210 -59 CURVE SMOOTH",
"-184 -59 OFFCURVE",
"-170 -79 OFFCURVE",
"-170 -92 CURVE SMOOTH",
"-170 -141 OFFCURVE",
"-245 -165 OFFCURVE",
"-245 -243 CURVE SMOOTH",
"-245 -281 OFFCURVE",
"-214 -341 OFFCURVE",
"-123 -341 CURVE SMOOTH",
"-90 -341 OFFCURVE",
"-58 -333 OFFCURVE",
"-38 -325 CURVE"
);
}
);
width = 0;
}
);
unicode = 1143C;
category = Mark;
},
{
glyphname = LL_dv;
lastChange = "2018-01-30 20:22:39 +0000";
layers = (
{
layerId = UUID0;
paths = (
{
closed = 1;
nodes = (
"-169 -185 LINE",
"-184 -192 OFFCURVE",
"-201 -197 OFFCURVE",
"-232 -197 CURVE SMOOTH",
"-262 -197 OFFCURVE",
"-273 -178 OFFCURVE",
"-273 -168 CURVE SMOOTH",
"-273 -143 OFFCURVE",
"-215 -117 OFFCURVE",
"-215 -64 CURVE SMOOTH",
"-215 -37 OFFCURVE",
"-240 10 OFFCURVE",
"-309 10 CURVE SMOOTH",
"-354 10 OFFCURVE",
"-389 -18 OFFCURVE",
"-399 -31 CURVE",
"-363 -78 LINE",
"-353 -65 OFFCURVE",
"-336 -55 OFFCURVE",
"-316 -55 CURVE SMOOTH",
"-295 -55 OFFCURVE",
"-287 -69 OFFCURVE",
"-287 -79 CURVE SMOOTH",
"-287 -109 OFFCURVE",
"-345 -126 OFFCURVE",
"-345 -186 CURVE SMOOTH",
"-345 -215 OFFCURVE",
"-319 -262 OFFCURVE",
"-238 -262 CURVE SMOOTH",
"-211 -262 OFFCURVE",
"-178 -255 OFFCURVE",
"-162 -248 CURVE"
);
},
{
closed = 1;
nodes = (
"-143 -320 LINE",
"-163 -326 OFFCURVE",
"-181 -329 OFFCURVE",
"-208 -329 CURVE SMOOTH",
"-245 -329 OFFCURVE",
"-265 -312 OFFCURVE",
"-265 -277 CURVE SMOOTH",
"-265 -261 OFFCURVE",
"-257 -242 OFFCURVE",
"-243 -226 CURVE",
"-304 -204 LINE",
"-318 -216 OFFCURVE",
"-335 -248 OFFCURVE",
"-335 -279 CURVE SMOOTH",
"-335 -341 OFFCURVE",
"-296 -394 OFFCURVE",
"-210 -394 CURVE SMOOTH",
"-173 -394 OFFCURVE",
"-152 -390 OFFCURVE",
"-131 -384 CURVE"
);
}
);
width = 0;
}
);
unicode = 1143D;
category = Mark;
},
{
glyphname = E_dv;
lastChange = "2018-01-30 20:22:39 +0000";
layers = (
{
layerId = UUID0;
paths = (
{
closed = 1;
nodes = (
"-377 679 LINE",
"-385 632 OFFCURVE",
"-412 623 OFFCURVE",
"-445 623 CURVE SMOOTH",
"-484 623 OFFCURVE",
"-508 658 OFFCURVE",
"-566 658 CURVE SMOOTH",
"-596 658 OFFCURVE",
"-631 642 OFFCURVE",
"-672 585 CURVE",
"-630 553 LINE",
"-618 571 OFFCURVE",
"-594 590 OFFCURVE",
"-568 590 CURVE SMOOTH",
"-539 590 OFFCURVE",
"-497 551 OFFCURVE",
"-443 551 CURVE SMOOTH",
"-374 551 OFFCURVE",
"-320 607 OFFCURVE",
"-317 679 CURVE"
);
},
{
closed = 1;
nodes = (
"-105 681 LINE",
"-130 640 OFFCURVE",
"-173 623 OFFCURVE",
"-220 623 CURVE SMOOTH",
"-250 623 OFFCURVE",
"-307 635 OFFCURVE",
"-317 679 CURVE",
"-379 655 LINE",
"-362 589 OFFCURVE",
"-304 551 OFFCURVE",
"-219 551 CURVE SMOOTH",
"-149 551 OFFCURVE",
"-91 580 OFFCURVE",
"-51 651 CURVE"
);
}
);
width = 0;
}
);
unicode = 1143E;
category = Mark;
},
{
glyphname = AI_dv;
lastChange = "2018-01-30 20:22:39 +0000";
layers = (
{
layerId = UUID0;
paths = (
{
closed = 1;
nodes = (
"-434 859 LINE",
"-360 741 OFFCURVE",
"-309 736 OFFCURVE",
"-259 736 CURVE SMOOTH",
"-223 736 OFFCURVE",
"-200 750 OFFCURVE",
"-160 750 CURVE SMOOTH",
"-131 750 OFFCURVE",
"-93 740 OFFCURVE",
"-93 693 CURVE SMOOTH",
"-93 636 OFFCURVE",
"-135 624 OFFCURVE",
"-181 624 CURVE SMOOTH",
"-243 624 OFFCURVE",
"-263 645 OFFCURVE",
"-288 676 CURVE",
"-349 652 LINE",
"-327 572 OFFCURVE",
"-247 551 OFFCURVE",
"-181 551 CURVE SMOOTH",
"-64 551 OFFCURVE",
"-22 623 OFFCURVE",
"-22 689 CURVE SMOOTH",
"-22 773 OFFCURVE",
"-83 817 OFFCURVE",
"-159 817 CURVE SMOOTH",
"-188 817 OFFCURVE",
"-229 804 OFFCURVE",
"-259 804 CURVE SMOOTH",
"-291 804 OFFCURVE",
"-320 818 OFFCURVE",
"-376 896 CURVE"
);
},
{
closed = 1;
nodes = (
"-347 676 LINE",
"-356 630 OFFCURVE",
"-382 621 OFFCURVE",
"-415 621 CURVE SMOOTH",
"-454 621 OFFCURVE",
"-478 658 OFFCURVE",
"-535 658 CURVE SMOOTH",
"-565 658 OFFCURVE",
"-600 642 OFFCURVE",
"-641 586 CURVE",
"-599 554 LINE",
"-588 572 OFFCURVE",
"-563 591 OFFCURVE",
"-537 591 CURVE SMOOTH",
"-509 591 OFFCURVE",
"-467 552 OFFCURVE",
"-413 552 CURVE SMOOTH",
"-344 552 OFFCURVE",
"-291 605 OFFCURVE",
"-288 676 CURVE"
);
}
);
width = 0;
}
);
unicode = 1143F;
category = Mark;
},
{
glyphname = O_dv;
lastChange = "2018-01-30 20:22:39 +0000";
layers = (
{
layerId = UUID0;
paths = (
{
closed = 1;
nodes = (
"28 0 LINE",
"109 0 LINE",
"109 622 LINE",
"28 622 LINE"
);
},
{
closed = 1;
nodes = (
"-258 674 LINE",
"-269 627 OFFCURVE",
"-305 618 OFFCURVE",
"-344 618 CURVE SMOOTH",
"-390 618 OFFCURVE",
"-418 657 OFFCURVE",
"-486 657 CURVE SMOOTH",
"-521 657 OFFCURVE",
"-566 647 OFFCURVE",
"-612 594 CURVE",
"-574 551 LINE",
"-560 569 OFFCURVE",
"-518 590 OFFCURVE",
"-488 590 CURVE SMOOTH",
"-454 590 OFFCURVE",
"-405 551 OFFCURVE",
"-342 551 CURVE SMOOTH",
"-260 551 OFFCURVE",
"-196 603 OFFCURVE",
"-194 674 CURVE"
);
},
{
closed = 1;
nodes = (
"78 680 LINE",
"48 639 OFFCURVE",
"-2 618 OFFCURVE",
"-56 618 CURVE SMOOTH",
"-92 618 OFFCURVE",
"-183 630 OFFCURVE",
"-194 674 CURVE",
"-259 650 LINE",
"-240 585 OFFCURVE",
"-157 551 OFFCURVE",
"-55 551 CURVE SMOOTH",
"25 551 OFFCURVE",
"82 566 OFFCURVE",
"129 636 CURVE"
);
}
);
width = 209;
}
);
unicode = 11440;
},
{
glyphname = AU_dv;
lastChange = "2018-01-30 20:22:39 +0000";
layers = (
{
layerId = UUID0;
paths = (
{
closed = 1;
nodes = (
"28 0 LINE",
"109 0 LINE",
"109 622 LINE",
"28 622 LINE"
);
},
{
closed = 1;
nodes = (
"-256 674 LINE",
"-267 627 OFFCURVE",
"-305 618 OFFCURVE",
"-344 618 CURVE SMOOTH",
"-390 618 OFFCURVE",
"-418 657 OFFCURVE",
"-486 657 CURVE SMOOTH",
"-521 657 OFFCURVE",
"-566 647 OFFCURVE",
"-612 594 CURVE",
"-574 551 LINE",
"-560 569 OFFCURVE",
"-518 590 OFFCURVE",
"-488 590 CURVE SMOOTH",
"-454 590 OFFCURVE",
"-405 551 OFFCURVE",
"-342 551 CURVE SMOOTH",
"-260 551 OFFCURVE",
"-196 603 OFFCURVE",
"-196 674 CURVE"
);
},
{
closed = 1;
nodes = (
"-297 860 LINE",
"-220 741 OFFCURVE",
"-165 736 OFFCURVE",
"-113 736 CURVE SMOOTH",
"-76 736 OFFCURVE",
"-40 750 OFFCURVE",
"1 750 CURVE SMOOTH",
"31 750 OFFCURVE",
"70 740 OFFCURVE",
"70 693 CURVE SMOOTH",
"70 635 OFFCURVE",
"6 618 OFFCURVE",
"-56 618 CURVE SMOOTH",
"-146 618 OFFCURVE",
"-173 638 OFFCURVE",
"-196 674 CURVE",
"-259 650 LINE",
"-239 562 OFFCURVE",
"-116 550 OFFCURVE",
"-46 550 CURVE SMOOTH",
"75 550 OFFCURVE",
"143 622 OFFCURVE",
"143 689 CURVE SMOOTH",
"143 773 OFFCURVE",
"79 816 OFFCURVE",
"1 816 CURVE SMOOTH",
"-29 816 OFFCURVE",
"-83 802 OFFCURVE",
"-114 802 CURVE SMOOTH",
"-147 802 OFFCURVE",
"-180 817 OFFCURVE",
"-238 895 CURVE"
);
}
);
width = 209;
}
);
unicode = 11441;
category = Letter;
},
{
glyphname = Virama;
lastChange = "2018-01-30 20:22:39 +0000";
layers = (
{
layerId = UUID0;
paths = (
{
closed = 1;
nodes = (
"-369 -72 LINE",
"-319 -136 OFFCURVE",
"-234 -227 OFFCURVE",
"-137 -311 CURVE",
"-83 -257 LINE",
"-167 -190 OFFCURVE",
"-245 -111 OFFCURVE",
"-300 -40 CURVE",
"-305 -40 LINE"
);
}
);
width = 0;
}
);
unicode = 11442;
category = Mark;
},
{
glyphname = Candrabindu;
lastChange = "2018-01-30 20:22:39 +0000";
layers = (
{
layerId = UUID0;
paths = (
{
closed = 1;
nodes = (
"-280 837 LINE",
"-265 817 OFFCURVE",
"-238 802 OFFCURVE",
"-210 802 CURVE SMOOTH",
"-147 802 OFFCURVE",
"-125 842 OFFCURVE",
"-125 877 CURVE SMOOTH",
"-125 911 OFFCURVE",
"-146 932 OFFCURVE",
"-182 939 CURVE",
"-182 969 LINE",
"-239 969 LINE",
"-239 907 LINE",
"-197 905 OFFCURVE",
"-177 896 OFFCURVE",
"-177 879 CURVE SMOOTH",
"-177 862 OFFCURVE",
"-191 853 OFFCURVE",
"-213 853 CURVE SMOOTH",
"-226 853 OFFCURVE",
"-239 858 OFFCURVE",
"-250 867 CURVE"
);
},
{
closed = 1;
nodes = (
"-389 764 LINE",
"-344 706 OFFCURVE",
"-286 680 OFFCURVE",
"-208 680 CURVE SMOOTH",
"-128 680 OFFCURVE",
"-71 705 OFFCURVE",
"-27 764 CURVE",
"-73 809 LINE",
"-100 773 OFFCURVE",
"-142 742 OFFCURVE",
"-208 742 CURVE SMOOTH",
"-273 742 OFFCURVE",
"-315 774 OFFCURVE",
"-343 809 CURVE"
);
}
);
width = 0;
}
);
unicode = 11443;
category = Mark;
},
{
glyphname = Anusvara;
lastChange = "2018-01-30 20:22:39 +0000";
layers = (
{
layerId = UUID0;
paths = (
{
closed = 1;
nodes = (
"-39 680 OFFCURVE",
"0 719 OFFCURVE",
"0 766 CURVE SMOOTH",
"0 815 OFFCURVE",
"-39 852 OFFCURVE",
"-92 852 CURVE SMOOTH",
"-147 852 OFFCURVE",
"-184 813 OFFCURVE",
"-184 766 CURVE SMOOTH",
"-184 716 OFFCURVE",
"-142 680 OFFCURVE",
"-92 680 CURVE SMOOTH"
);
},
{
closed = 1;
nodes = (
"-115 729 OFFCURVE",
"-132 745 OFFCURVE",
"-132 766 CURVE SMOOTH",
"-132 787 OFFCURVE",
"-117 804 OFFCURVE",
"-93 804 CURVE SMOOTH",
"-69 804 OFFCURVE",
"-52 788 OFFCURVE",
"-52 766 CURVE SMOOTH",
"-52 745 OFFCURVE",
"-69 729 OFFCURVE",
"-93 729 CURVE SMOOTH"
);
}
);
width = 0;
}
);
unicode = 11444;
category = Mark;
},
{
glyphname = Visarga;
lastChange = "2018-01-30 20:22:39 +0000";
layers = (
{
layerId = UUID0;
paths = (
{
closed = 1;
nodes = (
"317 349 LINE SMOOTH",
"366 403 OFFCURVE",
"404 459 OFFCURVE",
"404 523 CURVE SMOOTH",
"404 592 OFFCURVE",
"345 648 OFFCURVE",
"249 648 CURVE SMOOTH",
"142 648 OFFCURVE",
"91 583 OFFCURVE",
"91 507 CURVE SMOOTH",
"91 426 OFFCURVE",
"134 385 OFFCURVE",
"181 332 CURVE SMOOTH",
"193 319 LINE",
"170 294 LINE SMOOTH",
"107 226 OFFCURVE",
"80 176 OFFCURVE",
"80 121 CURVE SMOOTH",
"80 41 OFFCURVE",
"144 -12 OFFCURVE",
"237 -12 CURVE SMOOTH",
"330 -12 OFFCURVE",
"395 43 OFFCURVE",
"395 137 CURVE SMOOTH",
"395 209 OFFCURVE",
"360 253 OFFCURVE",
"319 295 CURVE SMOOTH",
"293 322 LINE"
);
},
{
closed = 1;
nodes = (
"194 426 OFFCURVE",
"171 458 OFFCURVE",
"171 500 CURVE SMOOTH",
"171 554 OFFCURVE",
"209 576 OFFCURVE",
"252 576 CURVE SMOOTH",
"295 576 OFFCURVE",
"324 551 OFFCURVE",
"324 516 CURVE SMOOTH",
"324 484 OFFCURVE",
"311 448 OFFCURVE",
"255 388 CURVE SMOOTH",
"243 375 LINE",
"228 390 LINE SMOOTH"
);
},
{
closed = 1;
nodes = (
"181 59 OFFCURVE",
"160 92 OFFCURVE",
"160 123 CURVE SMOOTH",
"160 156 OFFCURVE",
"182 196 OFFCURVE",
"227 247 CURVE SMOOTH",
"242 264 LINE",
"255 250 LINE SMOOTH",
"285 216 OFFCURVE",
"315 181 OFFCURVE",
"315 137 CURVE SMOOTH",
"315 87 OFFCURVE",
"285 59 OFFCURVE",
"234 59 CURVE SMOOTH"
);
}
);
width = 484;
}
);
unicode = 11445;
category = Mark;
},
{
glyphname = Nukta;
lastChange = "2018-01-30 20:22:39 +0000";
layers = (
{
layerId = UUID0;
paths = (
{
closed = 1;
nodes = (
"-372 -167 OFFCURVE",
"-347 -192 OFFCURVE",
"-317 -192 CURVE SMOOTH",
"-286 -192 OFFCURVE",
"-262 -167 OFFCURVE",
"-262 -134 CURVE SMOOTH",
"-262 -102 OFFCURVE",
"-286 -76 OFFCURVE",
"-317 -76 CURVE SMOOTH",
"-347 -76 OFFCURVE",
"-372 -102 OFFCURVE",
"-372 -134 CURVE SMOOTH"
);
}
);
width = 0;
}
);
unicode = 11446;
category = Mark;
},
{
glyphname = Avagraha;
lastChange = "2018-01-30 20:22:39 +0000";
layers = (
{
layerId = UUID0;
paths = (
{
closed = 1;
nodes = (
"189 598 LINE",
"207 578 OFFCURVE",
"217 559 OFFCURVE",
"217 534 CURVE SMOOTH",
"217 508 OFFCURVE",
"202 496 OFFCURVE",
"171 470 CURVE SMOOTH",
"139 444 LINE SMOOTH",
"103 414 OFFCURVE",
"90 386 OFFCURVE",
"90 360 CURVE SMOOTH",
"90 243 OFFCURVE",
"276 257 OFFCURVE",
"276 170 CURVE SMOOTH",
"276 132 OFFCURVE",
"249 100 OFFCURVE",
"189 87 CURVE",
"144 127 OFFCURVE",
"111 131 OFFCURVE",
"84 131 CURVE SMOOTH",
"47 131 OFFCURVE",
"20 111 OFFCURVE",
"20 71 CURVE SMOOTH",
"20 31 OFFCURVE",
"60 0 OFFCURVE",
"105 0 CURVE SMOOTH",
"127 0 OFFCURVE",
"147 3 OFFCURVE",
"167 9 CURVE",
"204 -33 OFFCURVE",
"241 -84 OFFCURVE",
"286 -148 CURVE",
"351 -106 LINE",
"321 -65 OFFCURVE",
"287 -19 OFFCURVE",
"249 24 CURVE",
"324 54 OFFCURVE",
"359 109 OFFCURVE",
"359 176 CURVE SMOOTH",
"359 298 OFFCURVE",
"173 309 OFFCURVE",
"173 360 CURVE SMOOTH",
"173 370 OFFCURVE",
"178 379 OFFCURVE",
"198 395 CURVE SMOOTH",
"234 424 LINE SMOOTH",
"282 463 OFFCURVE",
"300 487 OFFCURVE",
"300 534 CURVE SMOOTH",
"300 576 OFFCURVE",
"282 601 OFFCURVE",
"253 640 CURVE"
);
}
);
width = 439;
}
);
unicode = 11447;
category = Mark;
},
{
glyphname = Finalanusvara;
lastChange = "2018-01-30 20:22:39 +0000";
layers = (
{
layerId = UUID0;
paths = (
{
closed = 1;
nodes = (
"50 329 OFFCURVE",
"75 304 OFFCURVE",
"105 304 CURVE SMOOTH",
"136 304 OFFCURVE",
"160 329 OFFCURVE",
"160 362 CURVE SMOOTH",
"160 394 OFFCURVE",
"136 420 OFFCURVE",
"105 420 CURVE SMOOTH",
"75 420 OFFCURVE",
"50 394 OFFCURVE",
"50 362 CURVE SMOOTH"
);
},
{
closed = 1;
nodes = (
"66 125 LINE",
"84 40 OFFCURVE",
"155 -61 OFFCURVE",
"265 -137 CURVE",
"319 -86 LINE",
"246 -40 OFFCURVE",
"169 55 OFFCURVE",
"134 147 CURVE"
);
}
);
width = 299;
}
);
unicode = 11448;
category = Mark;
},
{
glyphname = Om;
lastChange = "2018-01-30 20:22:39 +0000";
layers = (
{
layerId = UUID0;
paths = (
{
closed = 1;
nodes = (
"339 291 LINE",
"450 291 OFFCURVE",
"488 234 OFFCURVE",
"488 178 CURVE SMOOTH",
"488 91 OFFCURVE",
"436 58 OFFCURVE",
"382 58 CURVE SMOOTH",
"296 58 OFFCURVE",
"209 115 OFFCURVE",
"83 312 CURVE",
"20 280 LINE",
"140 60 OFFCURVE",
"266 -12 OFFCURVE",
"382 -12 CURVE SMOOTH",
"477 -12 OFFCURVE",
"569 54 OFFCURVE",
"569 178 CURVE SMOOTH",
"569 268 OFFCURVE",
"501 361 OFFCURVE",
"351 361 CURVE"
);
},
{
closed = 1;
nodes = (
"726 517 LINE",
"694 586 OFFCURVE",
"641 634 OFFCURVE",
"561 634 CURVE SMOOTH",
"450 634 OFFCURVE",
"356 484 OFFCURVE",
"277 347 CURVE",
"339 291 LINE",
"397 400 OFFCURVE",
"497 560 OFFCURVE",
"561 560 CURVE SMOOTH",
"607 560 OFFCURVE",
"643 521 OFFCURVE",
"660 478 CURVE"
);
},
{
closed = 1;
nodes = (
"456 551 LINE",
"425 603 OFFCURVE",
"367 634 OFFCURVE",
"294 634 CURVE SMOOTH",
"229 634 OFFCURVE",
"158 599 OFFCURVE",
"102 521 CURVE",
"155 476 LINE",
"195 531 OFFCURVE",
"241 560 OFFCURVE",
"289 560 CURVE SMOOTH",
"345 560 OFFCURVE",
"382 534 OFFCURVE",
"395 489 CURVE"
);
},
{
closed = 1;
nodes = (
"155 827 LINE",
"205 722 OFFCURVE",
"287 680 OFFCURVE",
"397 680 CURVE SMOOTH",
"508 680 OFFCURVE",
"588 729 OFFCURVE",
"636 831 CURVE",
"572 860 LINE",
"549 805 OFFCURVE",
"496 746 OFFCURVE",
"397 746 CURVE SMOOTH",
"296 746 OFFCURVE",
"243 805 OFFCURVE",
"219 860 CURVE"
);
},
{
closed = 1;
nodes = (
"306 850 LINE",
"318 825 OFFCURVE",
"353 802 OFFCURVE",
"392 802 CURVE SMOOTH",
"465 802 OFFCURVE",
"494 844 OFFCURVE",
"494 887 CURVE SMOOTH",
"494 921 OFFCURVE",
"462 956 OFFCURVE",
"420 961 CURVE",
"420 1031 LINE",
"366 1031 LINE",
"366 932 LINE",
"423 925 OFFCURVE",
"434 907 OFFCURVE",
"434 890 CURVE SMOOTH",
"434 874 OFFCURVE",
"426 858 OFFCURVE",
"397 858 CURVE SMOOTH",
"375 858 OFFCURVE",
"360 864 OFFCURVE",
"347 877 CURVE"
);
}
);
width = 746;
}
);
unicode = 11449;
category = Letter;
},
{
glyphname = Siddhi;
lastChange = "2018-01-30 20:22:39 +0000";
layers = (
{
layerId = UUID0;
paths = (
{
closed = 1;
nodes = (
"217 213 LINE SMOOTH",
"203 228 OFFCURVE",
"196 238 OFFCURVE",
"196 250 CURVE SMOOTH",
"196 261 OFFCURVE",
"202 275 OFFCURVE",
"220 295 CURVE SMOOTH",
"294 380 LINE SMOOTH",
"338 431 OFFCURVE",
"349 460 OFFCURVE",
"349 494 CURVE SMOOTH",
"349 559 OFFCURVE",
"292 632 OFFCURVE",
"204 632 CURVE SMOOTH",
"137 632 OFFCURVE",
"70 575 OFFCURVE",
"70 508 CURVE SMOOTH",
"70 440 OFFCURVE",
"155 367 OFFCURVE",
"225 319 CURVE",
"259 390 LINE",
"206 419 OFFCURVE",
"145 470 OFFCURVE",
"145 508 CURVE SMOOTH",
"145 541 OFFCURVE",
"174 566 OFFCURVE",
"206 566 CURVE SMOOTH",
"240 566 OFFCURVE",
"274 528 OFFCURVE",
"274 494 CURVE SMOOTH",
"274 475 OFFCURVE",
"264 452 OFFCURVE",
"240 424 CURVE SMOOTH",
"146 315 LINE SMOOTH",
"120 285 OFFCURVE",
"111 267 OFFCURVE",
"111 251 CURVE SMOOTH",
"111 232 OFFCURVE",
"124 210 OFFCURVE",
"147 185 CURVE SMOOTH",
"315 0 LINE",
"406 0 LINE"
);
}
);
width = 436;
}
);
unicode = 1144A;
category = Letter;
},
{
glyphname = Danda;
lastChange = "2018-01-30 20:22:39 +0000";
layers = (
{
layerId = UUID0;
paths = (
{
closed = 1;
nodes = (
"124 -100 LINE",
"205 -100 LINE",
"205 722 LINE",
"124 722 LINE"
);
}
);
width = 329;
}
);
unicode = 1144B;
category = Letter;
},
{
glyphname = Dbldanda;
lastChange = "2018-01-30 20:22:39 +0000";
layers = (
{
layerId = UUID0;
paths = (
{
closed = 1;
nodes = (
"124 -100 LINE",
"205 -100 LINE",
"205 722 LINE",
"124 722 LINE"
);
},
{
closed = 1;
nodes = (
"284 -100 LINE",
"365 -100 LINE",
"365 722 LINE",
"284 722 LINE"
);
}
);
width = 489;
}
);
unicode = 1144C;
category = Letter;
},
{
glyphname = Comma;
lastChange = "2018-01-30 20:22:39 +0000";
layers = (
{
layerId = UUID0;
paths = (
{
closed = 1;
nodes = (
"50 125 LINE",
"68 40 OFFCURVE",
"139 -61 OFFCURVE",
"249 -137 CURVE",
"303 -86 LINE",
"230 -40 OFFCURVE",
"153 55 OFFCURVE",
"118 147 CURVE"
);
}
);
width = 283;
}
);
unicode = 1144D;
category = Letter;
},
{
glyphname = Gapfiller;
lastChange = "2018-01-30 20:22:39 +0000";
layers = (
{
layerId = UUID0;
paths = (
{
closed = 1;
nodes = (
"283 35 LINE",
"189 113 LINE",
"281 198 LINE",
"233 247 LINE",
"140 163 LINE SMOOTH",
"119 144 OFFCURVE",
"110 127 OFFCURVE",
"110 109 CURVE SMOOTH",
"110 91 OFFCURVE",
"122 72 OFFCURVE",
"143 55 CURVE SMOOTH",
"233 -21 LINE"
);
},
{
closed = 1;
nodes = (
"283 355 LINE",
"189 433 LINE",
"281 518 LINE",
"233 567 LINE",
"140 483 LINE SMOOTH",
"119 464 OFFCURVE",
"110 447 OFFCURVE",
"110 429 CURVE SMOOTH",
"110 411 OFFCURVE",
"122 392 OFFCURVE",
"143 375 CURVE SMOOTH",
"233 299 LINE"
);
}
);
width = 393;
}
);
unicode = 1144E;
category = Letter;
},
{
glyphname = Abbreviation;
lastChange = "2018-01-30 20:22:39 +0000";
layers = (
{
layerId = UUID0;
paths = (
{
closed = 1;
nodes = (
"255 175 OFFCURVE",
"306 236 OFFCURVE",
"306 312 CURVE SMOOTH",
"306 390 OFFCURVE",
"255 449 OFFCURVE",
"178 449 CURVE SMOOTH",
"99 449 OFFCURVE",
"50 386 OFFCURVE",
"50 312 CURVE SMOOTH",
"50 232 OFFCURVE",
"105 175 OFFCURVE",
"178 175 CURVE SMOOTH"
);
},
{
closed = 1;
nodes = (
"143 240 OFFCURVE",
"120 270 OFFCURVE",
"120 312 CURVE SMOOTH",
"120 351 OFFCURVE",
"140 384 OFFCURVE",
"178 384 CURVE SMOOTH",
"214 384 OFFCURVE",
"236 353 OFFCURVE",
"236 312 CURVE SMOOTH",
"236 270 OFFCURVE",
"214 240 OFFCURVE",
"178 240 CURVE SMOOTH"
);
}
);
width = 356;
}
);
unicode = 1144F;
category = Letter;
},
{
glyphname = Zero_Newa;
lastChange = "2018-01-30 20:22:39 +0000";
layers = (
{
layerId = UUID0;
paths = (
{
closed = 1;
nodes = (
"406 52 OFFCURVE",
"496 154 OFFCURVE",
"496 305 CURVE SMOOTH",
"496 458 OFFCURVE",
"415 562 OFFCURVE",
"272 562 CURVE SMOOTH",
"140 562 OFFCURVE",
"50 459 OFFCURVE",
"50 308 CURVE SMOOTH",
"50 146 OFFCURVE",
"135 52 OFFCURVE",
"273 52 CURVE SMOOTH"
);
},
{
closed = 1;
nodes = (
"186 124 OFFCURVE",
"130 195 OFFCURVE",
"130 304 CURVE SMOOTH",
"130 416 OFFCURVE",
"191 490 OFFCURVE",
"276 490 CURVE SMOOTH",
"360 490 OFFCURVE",
"416 420 OFFCURVE",
"416 309 CURVE SMOOTH",
"416 199 OFFCURVE",
"357 124 OFFCURVE",
"270 124 CURVE SMOOTH"
);
}
);
width = 546;
}
);
unicode = 11450;
category = Letter;
},
{
glyphname = One_Newa;
lastChange = "2018-01-30 20:22:39 +0000";
layers = (
{
layerId = UUID0;
paths = (
{
closed = 1;
nodes = (
"113 232 LINE",
"212 286 OFFCURVE",
"331 348 OFFCURVE",
"331 488 CURVE SMOOTH",
"331 546 OFFCURVE",
"299 632 OFFCURVE",
"196 632 CURVE SMOOTH",
"104 632 OFFCURVE",
"63 568 OFFCURVE",
"63 507 CURVE SMOOTH",
"63 441 OFFCURVE",
"109 379 OFFCURVE",
"212 379 CURVE SMOOTH",
"230 379 OFFCURVE",
"248 388 OFFCURVE",
"270 409 CURVE",
"270 484 LINE",
"255 452 OFFCURVE",
"234 446 OFFCURVE",
"205 446 CURVE SMOOTH",
"173 446 OFFCURVE",
"140 469 OFFCURVE",
"140 511 CURVE SMOOTH",
"140 548 OFFCURVE",
"167 566 OFFCURVE",
"192 566 CURVE SMOOTH",
"236 566 OFFCURVE",
"249 525 OFFCURVE",
"249 491 CURVE SMOOTH",
"249 371 OFFCURVE",
"132 306 OFFCURVE",
"35 285 CURVE",
"30 231 LINE",
"192 0 LINE",
"288 0 LINE",
"116 242 LINE",
"87 258 LINE"
);
}
);
width = 361;
}
);
unicode = 11451;
category = Letter;
},
{
glyphname = Two_Newa;
lastChange = "2018-01-30 20:22:39 +0000";
layers = (
{
layerId = UUID0;
paths = (
{
closed = 1;
nodes = (
"381 510 OFFCURVE",
"334 633 OFFCURVE",
"190 633 CURVE SMOOTH",
"95 633 OFFCURVE",
"37 572 OFFCURVE",
"20 500 CURVE",
"90 479 LINE",
"97 509 OFFCURVE",
"128 561 OFFCURVE",
"195 561 CURVE SMOOTH",
"280 561 OFFCURVE",
"301 470 OFFCURVE",
"301 398 CURVE SMOOTH",
"301 310 OFFCURVE",
"280 237 OFFCURVE",
"225 213 CURVE",
"186 254 OFFCURVE",
"146 282 OFFCURVE",
"109 282 CURVE SMOOTH",
"67 282 OFFCURVE",
"39 257 OFFCURVE",
"39 220 CURVE SMOOTH",
"39 150 OFFCURVE",
"114 130 OFFCURVE",
"176 129 CURVE",
"218 88 OFFCURVE",
"245 39 OFFCURVE",
"287 -39 CURVE",
"365 2 LINE",
"341 50 OFFCURVE",
"309 106 OFFCURVE",
"272 155 CURVE",
"336 197 OFFCURVE",
"381 284 OFFCURVE",
"381 398 CURVE SMOOTH"
);
}
);
width = 431;
}
);
unicode = 11452;
category = Letter;
},
{
glyphname = Three_Newa;
lastChange = "2018-01-30 20:22:39 +0000";
layers = (
{
layerId = UUID0;
paths = (
{
closed = 1;
nodes = (
"391 256 OFFCURVE",
"342 317 OFFCURVE",
"255 335 CURVE",
"328 375 OFFCURVE",
"362 427 OFFCURVE",
"362 498 CURVE SMOOTH",
"362 572 OFFCURVE",
"315 633 OFFCURVE",
"205 633 CURVE SMOOTH",
"130 633 OFFCURVE",
"63 597 OFFCURVE",
"17 528 CURVE",
"77 479 LINE",
"118 534 OFFCURVE",
"163 561 OFFCURVE",
"206 561 CURVE SMOOTH",
"260 561 OFFCURVE",
"282 531 OFFCURVE",
"282 495 CURVE SMOOTH",
"282 416 OFFCURVE",
"205 368 OFFCURVE",
"101 333 CURVE",
"121 270 LINE",
"145 277 LINE",
"153 279 OFFCURVE",
"177 284 OFFCURVE",
"190 284 CURVE SMOOTH",
"264 284 OFFCURVE",
"311 242 OFFCURVE",
"311 183 CURVE SMOOTH",
"311 126 OFFCURVE",
"272 74 OFFCURVE",
"205 63 CURVE",
"171 101 OFFCURVE",
"125 142 OFFCURVE",
"79 142 CURVE SMOOTH",
"50 142 OFFCURVE",
"10 129 OFFCURVE",
"10 80 CURVE SMOOTH",
"10 10 OFFCURVE",
"85 -10 OFFCURVE",
"153 -11 CURVE",
"189 -52 OFFCURVE",
"216 -101 OFFCURVE",
"258 -179 CURVE",
"336 -138 LINE",
"315 -94 OFFCURVE",
"286 -45 OFFCURVE",
"255 0 CURVE",
"328 27 OFFCURVE",
"391 76 OFFCURVE",
"391 181 CURVE SMOOTH"
);
}
);
width = 441;
}
);
unicode = 11453;
category = Letter;
},
{
glyphname = Four_Newa;
lastChange = "2018-01-30 20:22:39 +0000";
layers = (
{
layerId = UUID0;
paths = (
{
closed = 1;
nodes = (
"183 308 LINE SMOOTH",
"121 236 OFFCURVE",
"66 165 OFFCURVE",
"66 103 CURVE SMOOTH",
"66 18 OFFCURVE",
"137 -12 OFFCURVE",
"229 -12 CURVE SMOOTH",
"329 -12 OFFCURVE",
"388 45 OFFCURVE",
"388 123 CURVE SMOOTH",
"388 204 OFFCURVE",
"316 270 OFFCURVE",
"236 332 CURVE SMOOTH",
"145 402 OFFCURVE",
"100 437 OFFCURVE",
"100 461 CURVE SMOOTH",
"100 490 OFFCURVE",
"169 576 OFFCURVE",
"206 622 CURVE",
"126 622 LINE",
"54 534 OFFCURVE",
"20 484 OFFCURVE",
"20 452 CURVE SMOOTH",
"20 419 OFFCURVE",
"96 351 OFFCURVE",
"195 272 CURVE SMOOTH",
"283 202 OFFCURVE",
"308 168 OFFCURVE",
"308 127 CURVE SMOOTH",
"308 69 OFFCURVE",
"263 60 OFFCURVE",
"224 60 CURVE SMOOTH",
"181 60 OFFCURVE",
"146 75 OFFCURVE",
"146 107 CURVE SMOOTH",
"146 153 OFFCURVE",
"196 215 OFFCURVE",
"262 293 CURVE SMOOTH",
"539 622 LINE",
"452 622 LINE"
);
}
);
width = 509;
}
);
unicode = 11454;
category = Letter;
},
{
glyphname = Five_Newa;
lastChange = "2018-01-30 20:22:39 +0000";
layers = (
{
layerId = UUID0;
paths = (
{
closed = 1;
nodes = (
"463 0 LINE",
"544 0 LINE",
"544 419 LINE",
"463 398 LINE"
);
},
{
closed = 1;
nodes = (
"-10 276 LINE",
"36 124 OFFCURVE",
"94 34 OFFCURVE",
"218 34 CURVE SMOOTH",
"328 34 OFFCURVE",
"385 127 OFFCURVE",
"385 230 CURVE SMOOTH",
"385 325 OFFCURVE",
"320 410 OFFCURVE",
"213 436 CURVE",
"117 389 LINE",
"270 375 OFFCURVE",
"305 300 OFFCURVE",
"305 234 CURVE SMOOTH",
"305 164 OFFCURVE",
"282 106 OFFCURVE",
"215 106 CURVE SMOOTH",
"134 106 OFFCURVE",
"102 175 OFFCURVE",
"60 304 CURVE"
);
},
{
closed = 1;
nodes = (
"302 622 LINE",
"290 565 OFFCURVE",
"189 477 OFFCURVE",
"104 442 CURVE",
"117 389 LINE",
"216 416 OFFCURVE",
"359 512 OFFCURVE",
"370 622 CURVE"
);
},
{
closed = 1;
nodes = (
"463 397 LINE",
"544 419 LINE",
"370 622 LINE",
"320 565 LINE"
);
}
);
width = 594;
}
);
unicode = 11455;
category = Letter;
},
{
glyphname = Six_Newa;
lastChange = "2018-01-30 20:22:39 +0000";
layers = (
{
layerId = UUID0;
paths = (
{
closed = 1;
nodes = (
"394 586 LINE",
"345 617 OFFCURVE",
"283 632 OFFCURVE",
"224 632 CURVE SMOOTH",
"106 632 OFFCURVE",
"46 557 OFFCURVE",
"46 478 CURVE SMOOTH",
"46 391 OFFCURVE",
"118 312 OFFCURVE",
"249 312 CURVE SMOOTH",
"296 312 LINE",
"286 382 LINE",
"254 382 LINE SMOOTH",
"163 382 OFFCURVE",
"126 436 OFFCURVE",
"126 477 CURVE SMOOTH",
"126 525 OFFCURVE",
"163 560 OFFCURVE",
"230 560 CURVE SMOOTH",
"273 560 OFFCURVE",
"321 546 OFFCURVE",
"358 524 CURVE"
);
},
{
closed = 1;
nodes = (
"215 368 LINE",
"100 338 OFFCURVE",
"40 273 OFFCURVE",
"40 185 CURVE SMOOTH",
"40 63 OFFCURVE",
"133 10 OFFCURVE",
"237 10 CURVE SMOOTH",
"299 10 OFFCURVE",
"390 24 OFFCURVE",
"404 59 CURVE",
"358 132 LINE",
"332 102 OFFCURVE",
"284 85 OFFCURVE",
"240 85 CURVE SMOOTH",
"166 85 OFFCURVE",
"120 127 OFFCURVE",
"120 187 CURVE SMOOTH",
"120 276 OFFCURVE",
"221 312 OFFCURVE",
"296 312 CURVE"
);
},
{
closed = 1;
nodes = (
"411 152 OFFCURVE",
"383 187 OFFCURVE",
"342 187 CURVE SMOOTH",
"305 187 OFFCURVE",
"285 153 OFFCURVE",
"285 107 CURVE SMOOTH",
"285 61 OFFCURVE",
"314 25 OFFCURVE",
"348 25 CURVE SMOOTH",
"383 25 OFFCURVE",
"411 61 OFFCURVE",
"411 107 CURVE SMOOTH"
);
},
{
closed = 1;
nodes = (
"31 -68 LINE",
"122 -75 OFFCURVE",
"170 -164 OFFCURVE",
"290 -164 CURVE SMOOTH",
"362 -164 OFFCURVE",
"432 -123 OFFCURVE",
"432 -31 CURVE SMOOTH",
"432 1 OFFCURVE",
"409 74 OFFCURVE",
"372 108 CURVE",
"300 54 LINE",
"330 20 OFFCURVE",
"356 11 OFFCURVE",
"356 -36 CURVE SMOOTH",
"356 -74 OFFCURVE",
"322 -90 OFFCURVE",
"286 -90 CURVE SMOOTH",
"186 -90 OFFCURVE",
"142 -5 OFFCURVE",
"20 3 CURVE"
);
}
);
width = 432;
}
);
unicode = 11456;
category = Letter;
},
{
glyphname = Seven_Newa;
lastChange = "2018-01-30 20:22:39 +0000";
layers = (
{
layerId = UUID0;
paths = (
{
closed = 1;
nodes = (
"414 433 LINE SMOOTH",
"414 571 OFFCURVE",
"339 633 OFFCURVE",
"226 633 CURVE SMOOTH",
"104 633 OFFCURVE",
"40 540 OFFCURVE",
"40 427 CURVE SMOOTH",
"40 288 LINE",
"121 288 LINE",
"121 426 LINE SMOOTH",
"121 498 OFFCURVE",
"146 561 OFFCURVE",
"224 561 CURVE SMOOTH",
"319 561 OFFCURVE",
"333 492 OFFCURVE",
"333 426 CURVE SMOOTH",
"333 0 LINE",
"414 0 LINE"
);
}
);
width = 464;
}
);
unicode = 11457;
category = Letter;
},
{
glyphname = Eight_Newa;
lastChange = "2018-01-30 20:22:39 +0000";
layers = (
{
layerId = UUID0;
paths = (
{
closed = 1;
nodes = (
"82 454 LINE",
"94 460 OFFCURVE",
"109 463 OFFCURVE",
"124 463 CURVE SMOOTH",
"155 463 OFFCURVE",
"184 449 OFFCURVE",
"184 414 CURVE SMOOTH",
"184 345 OFFCURVE",
"62 271 OFFCURVE",
"62 135 CURVE SMOOTH",
"62 37 OFFCURVE",
"128 -12 OFFCURVE",
"230 -12 CURVE SMOOTH",
"366 -12 OFFCURVE",
"468 98 OFFCURVE",
"549 226 CURVE",
"483 265 LINE",
"403 141 OFFCURVE",
"313 60 OFFCURVE",
"232 60 CURVE SMOOTH",
"171 60 OFFCURVE",
"142 100 OFFCURVE",
"142 143 CURVE SMOOTH",
"142 251 OFFCURVE",
"264 306 OFFCURVE",
"264 419 CURVE SMOOTH",
"264 494 OFFCURVE",
"198 525 OFFCURVE",
"148 525 CURVE"
);
},
{
closed = 1;
nodes = (
"10 508 LINE",
"35 438 LINE",
"465 592 LINE",
"440 659 LINE"
);
}
);
width = 559;
}
);
unicode = 11458;
category = Letter;
},
{
glyphname = Nine_Newa;
lastChange = "2018-01-30 20:22:39 +0000";
layers = (
{
layerId = UUID0;
paths = (
{
closed = 1;
nodes = (
"400 253 OFFCURVE",
"455 314 OFFCURVE",
"455 404 CURVE SMOOTH",
"455 520 OFFCURVE",
"376 593 OFFCURVE",
"158 661 CURVE",
"132 596 LINE",
"289 550 OFFCURVE",
"374 498 OFFCURVE",
"374 399 CURVE SMOOTH",
"374 354 OFFCURVE",
"345 325 OFFCURVE",
"314 325 CURVE SMOOTH",
"286 325 OFFCURVE",
"259 342 OFFCURVE",
"259 383 CURVE SMOOTH",
"259 402 OFFCURVE",
"262 434 OFFCURVE",
"267 465 CURVE",
"250 470 OFFCURVE",
"230 475 OFFCURVE",
"196 475 CURVE SMOOTH",
"76 475 OFFCURVE",
"30 396 OFFCURVE",
"30 316 CURVE SMOOTH",
"30 189 OFFCURVE",
"146 59 OFFCURVE",
"403 -60 CURVE",
"439 11 LINE",
"262 94 OFFCURVE",
"112 190 OFFCURVE",
"112 316 CURVE SMOOTH",
"112 379 OFFCURVE",
"151 402 OFFCURVE",
"187 402 CURVE",
"184 386 OFFCURVE",
"182 369 OFFCURVE",
"182 358 CURVE SMOOTH",
"182 298 OFFCURVE",
"234 253 OFFCURVE",
"313 253 CURVE SMOOTH"
);
}
);
width = 485;
}
);
unicode = 11459;
category = Letter;
},
{
glyphname = Placeholder;
lastChange = "2018-01-30 20:22:39 +0000";
layers = (
{
layerId = UUID0;
paths = (
{
closed = 1;
nodes = (
"1126 317 OFFCURVE",
"1100 201 OFFCURVE",
"1020 201 CURVE SMOOTH",
"950 201 OFFCURVE",
"929 381 OFFCURVE",
"810 381 CURVE SMOOTH",
"672 381 OFFCURVE",
"682 174 OFFCURVE",
"592 174 CURVE SMOOTH",
"503 174 OFFCURVE",
"463 470 OFFCURVE",
"252 470 CURVE SMOOTH",
"137 470 OFFCURVE",
"50 364 OFFCURVE",
"50 238 CURVE SMOOTH",
"50 138 OFFCURVE",
"107 11 OFFCURVE",
"261 11 CURVE SMOOTH",
"345 11 OFFCURVE",
"391 55 OFFCURVE",
"391 123 CURVE SMOOTH",
"391 174 OFFCURVE",
"355 214 OFFCURVE",
"308 214 CURVE SMOOTH",
"261 214 OFFCURVE",
"225 175 OFFCURVE",
"225 123 CURVE SMOOTH",
"225 111 OFFCURVE",
"227 100 OFFCURVE",
"231 89 CURVE",
"150 104 OFFCURVE",
"130 193 OFFCURVE",
"130 241 CURVE SMOOTH",
"130 329 OFFCURVE",
"183 398 OFFCURVE",
"258 398 CURVE SMOOTH",
"423 398 OFFCURVE",
"429 102 OFFCURVE",
"588 102 CURVE SMOOTH",
"742 102 OFFCURVE",
"730 310 OFFCURVE",
"811 310 CURVE SMOOTH",
"875 310 OFFCURVE",
"897 130 OFFCURVE",
"1019 130 CURVE SMOOTH",
"1121 130 OFFCURVE",
"1166 246 OFFCURVE",
"1210 246 CURVE SMOOTH",
"1230 246 OFFCURVE",
"1249 232 OFFCURVE",
"1270 207 CURVE",
"1324 260 LINE",
"1291 293 OFFCURVE",
"1263 317 OFFCURVE",
"1213 317 CURVE SMOOTH"
);
}
);
width = 1352;
}
);
unicode = 1145B;
category = Letter;
},
{
glyphname = Insertion;
lastChange = "2018-01-30 20:22:39 +0000";
layers = (
{
layerId = UUID0;
paths = (
{
closed = 1;
nodes = (
"356 556 OFFCURVE",
"380 581 OFFCURVE",
"380 614 CURVE SMOOTH",
"380 646 OFFCURVE",
"356 672 OFFCURVE",
"325 672 CURVE SMOOTH",
"295 672 OFFCURVE",
"270 646 OFFCURVE",
"270 614 CURVE SMOOTH",
"270 581 OFFCURVE",
"295 556 OFFCURVE",
"325 556 CURVE SMOOTH"
);
},
{
closed = 1;
nodes = (
"370 350 LINE",
"569 622 LINE",
"480 622 LINE",
"325 411 LINE",
"169 622 LINE",
"80 622 LINE",
"279 350 LINE"
);
},
{
closed = 1;
nodes = (
"279 272 LINE",
"80 0 LINE",
"169 0 LINE",
"325 211 LINE",
"480 0 LINE",
"569 0 LINE",
"370 272 LINE"
);
},
{
closed = 1;
nodes = (
"295 66 OFFCURVE",
"270 41 OFFCURVE",
"270 8 CURVE SMOOTH",
"270 -24 OFFCURVE",
"295 -50 OFFCURVE",
"325 -50 CURVE SMOOTH",
"356 -50 OFFCURVE",
"380 -24 OFFCURVE",
"380 8 CURVE SMOOTH",
"380 41 OFFCURVE",
"356 66 OFFCURVE",
"325 66 CURVE SMOOTH"
);
}
);
width = 649;
}
);
unicode = 1145D;
category = Letter;
},
{
glyphname = periodcentered;
lastChange = "2018-01-30 20:22:39 +0000";
layers = (
{
layerId = UUID0;
paths = (
{
closed = 1;
nodes = (
"150 297 OFFCURVE",
"175 272 OFFCURVE",
"205 272 CURVE SMOOTH",
"236 272 OFFCURVE",
"260 297 OFFCURVE",
"260 330 CURVE SMOOTH",
"260 362 OFFCURVE",
"236 388 OFFCURVE",
"205 388 CURVE SMOOTH",
"175 388 OFFCURVE",
"150 362 OFFCURVE",
"150 330 CURVE SMOOTH"
);
}
);
width = 410;
}
);
unicode = 00B7;
category = Letter;
},
{
glyphname = Ka.nohd;
lastChange = "2018-01-30 20:22:39 +0000";
layers = (
{
layerId = UUID0;
paths = (
{
closed = 1;
nodes = (
"294 0 LINE",
"375 0 LINE",
"375 610 LINE",
"294 610 LINE"
);
},
{
closed = 1;
nodes = (
"338 260 LINE",
"309 224 OFFCURVE",
"268 195 OFFCURVE",
"202 195 CURVE SMOOTH",
"155 195 OFFCURVE",
"116 219 OFFCURVE",
"116 278 CURVE SMOOTH",
"116 346 OFFCURVE",
"185 400 OFFCURVE",
"329 400 CURVE SMOOTH",
"478 400 OFFCURVE",
"539 321 OFFCURVE",
"539 228 CURVE SMOOTH",
"539 165 OFFCURVE",
"529 95 OFFCURVE",
"482 22 CURVE",
"552 -18 LINE",
"600 62 OFFCURVE",
"619 134 OFFCURVE",
"619 230 CURVE SMOOTH",
"619 376 OFFCURVE",
"514 470 OFFCURVE",
"329 470 CURVE SMOOTH",
"166 470 OFFCURVE",
"40 405 OFFCURVE",
"40 276 CURVE SMOOTH",
"40 172 OFFCURVE",
"117 121 OFFCURVE",
"200 121 CURVE SMOOTH",
"258 121 OFFCURVE",
"322 147 OFFCURVE",
"354 188 CURVE"
);
}
);
width = 680;
}
);
category = Letter;
},
{
glyphname = Kha.nohd;
lastChange = "2018-01-30 20:22:39 +0000";
layers = (
{
layerId = UUID0;
paths = (
{
closed = 1;
nodes = (
"490 600 LINE",
"490 0 LINE",
"571 0 LINE",
"571 600 LINE"
);
},
{
closed = 1;
nodes = (
"565 301 LINE",
"538 267 OFFCURVE",
"490 227 OFFCURVE",
"427 227 CURVE SMOOTH",
"371 227 OFFCURVE",
"330 254 OFFCURVE",
"330 311 CURVE SMOOTH",
"330 369 OFFCURVE",
"369 399 OFFCURVE",
"433 399 CURVE SMOOTH",
"457 399 OFFCURVE",
"483 394 OFFCURVE",
"503 389 CURVE",
"509 458 LINE",
"490 464 OFFCURVE",
"446 468 OFFCURVE",
"424 468 CURVE SMOOTH",
"319 468 OFFCURVE",
"249 397 OFFCURVE",
"249 314 CURVE SMOOTH",
"249 221 OFFCURVE",
"319 159 OFFCURVE",
"414 159 CURVE SMOOTH",
"480 159 OFFCURVE",
"531 183 OFFCURVE",
"561 206 CURVE"
);
},
{
closed = 1;
nodes = (
"275 0 LINE",
"229 210 OFFCURVE",
"149 276 OFFCURVE",
"95 298 CURVE",
"169 321 OFFCURVE",
"233 362 OFFCURVE",
"233 470 CURVE SMOOTH",
"233 522 OFFCURVE",
"211 574 OFFCURVE",
"195 600 CURVE",
"112 600 LINE",
"131 571 OFFCURVE",
"152 516 OFFCURVE",
"152 468 CURVE SMOOTH",
"152 413 OFFCURVE",
"125 352 OFFCURVE",
"8 347 CURVE",
"0 276 LINE",
"89 244 OFFCURVE",
"156 181 OFFCURVE",
"194 0 CURVE"
);
}
);
width = 651;
}
);
category = Letter;
},
{
glyphname = Gha.nohd;
lastChange = "2018-01-30 20:22:39 +0000";
layers = (
{
layerId = UUID0;
paths = (
{
closed = 1;
nodes = (
"248 403 LINE",
"208 403 OFFCURVE",
"168 396 OFFCURVE",
"135 375 CURVE",
"125 361 LINE",
"87 334 OFFCURVE",
"70 293 OFFCURVE",
"70 250 CURVE SMOOTH",
"70 160 OFFCURVE",
"140 102 OFFCURVE",
"243 102 CURVE SMOOTH",
"319 102 OFFCURVE",
"367 127 OFFCURVE",
"410 158 CURVE",
"405 172 LINE",
"405 0 LINE",
"486 0 LINE",
"486 600 LINE",
"405 600 LINE",
"405 230 LINE",
"408 247 LINE",
"375 208 OFFCURVE",
"323 172 OFFCURVE",
"251 172 CURVE SMOOTH",
"192 172 OFFCURVE",
"151 197 OFFCURVE",
"151 253 CURVE SMOOTH",
"151 303 OFFCURVE",
"187 330 OFFCURVE",
"248 332 CURVE"
);
},
{
closed = 1;
nodes = (
"205 400 LINE",
"149 401 OFFCURVE",
"111 420 OFFCURVE",
"111 476 CURVE SMOOTH",
"111 530 OFFCURVE",
"155 583 OFFCURVE",
"183 600 CURVE",
"93 600 LINE",
"59 574 OFFCURVE",
"30 534 OFFCURVE",
"30 479 CURVE SMOOTH",
"30 398 OFFCURVE",
"95 338 OFFCURVE",
"195 338 CURVE"
);
}
);
width = 589;
}
);
category = Letter;
},
{
glyphname = Nga.nohd;
lastChange = "2018-01-30 20:22:39 +0000";
layers = (
{
layerId = UUID0;
paths = (
{
closed = 1;
nodes = (
"370 600 LINE",
"370 590 LINE SMOOTH",
"370 454 OFFCURVE",
"30 366 OFFCURVE",
"30 145 CURVE SMOOTH",
"30 43 OFFCURVE",
"95 -12 OFFCURVE",
"176 -12 CURVE SMOOTH",
"336 -12 OFFCURVE",
"319 182 OFFCURVE",
"405 182 CURVE SMOOTH",
"437 182 OFFCURVE",
"455 157 OFFCURVE",
"455 120 CURVE SMOOTH",
"455 78 OFFCURVE",
"432 55 OFFCURVE",
"406 55 CURVE SMOOTH",
"382 55 OFFCURVE",
"344 72 OFFCURVE",
"339 138 CURVE",
"290 76 LINE",
"311 13 OFFCURVE",
"363 -12 OFFCURVE",
"406 -12 CURVE SMOOTH",
"486 -12 OFFCURVE",
"530 45 OFFCURVE",
"530 116 CURVE SMOOTH",
"530 183 OFFCURVE",
"501 248 OFFCURVE",
"409 248 CURVE SMOOTH",
"274 248 OFFCURVE",
"279 62 OFFCURVE",
"180 62 CURVE SMOOTH",
"147 62 OFFCURVE",
"112 87 OFFCURVE",
"112 148 CURVE SMOOTH",
"112 326 OFFCURVE",
"451 416 OFFCURVE",
"451 591 CURVE SMOOTH",
"451 600 LINE"
);
}
);
width = 554;
}
);
category = Letter;
},
{
glyphname = Ngha.nohd;
lastChange = "2018-01-30 20:22:39 +0000";
layers = (
{
layerId = UUID0;
paths = (
{
closed = 1;
nodes = (
"177 263 LINE",
"120 219 OFFCURVE",
"55 169 OFFCURVE",
"55 89 CURVE SMOOTH",
"55 25 OFFCURVE",
"96 -12 OFFCURVE",
"154 -12 CURVE SMOOTH",
"186 -12 OFFCURVE",
"206 2 OFFCURVE",
"221 19 CURVE",
"236 -3 OFFCURVE",
"261 -12 OFFCURVE",
"282 -12 CURVE SMOOTH",
"344 -12 OFFCURVE",
"366 29 OFFCURVE",
"366 72 CURVE SMOOTH",
"366 115 OFFCURVE",
"350 158 OFFCURVE",
"286 158 CURVE SMOOTH",
"245 158 OFFCURVE",
"222 131 OFFCURVE",
"206 103 CURVE SMOOTH",
"190 75 OFFCURVE",
"175 48 OFFCURVE",
"151 48 CURVE SMOOTH",
"136 48 OFFCURVE",
"118 63 OFFCURVE",
"118 91 CURVE SMOOTH",
"118 144 OFFCURVE",
"185 195 OFFCURVE",
"231 231 CURVE"
);
},
{
closed = 1;
nodes = (
"298 104 OFFCURVE",
"306 92 OFFCURVE",
"306 74 CURVE SMOOTH",
"306 55 OFFCURVE",
"296 44 OFFCURVE",
"285 44 CURVE SMOOTH",
"274 44 OFFCURVE",
"258 51 OFFCURVE",
"254 77 CURVE",
"262 92 OFFCURVE",
"271 104 OFFCURVE",
"284 104 CURVE SMOOTH"
);
},
{
closed = 1;
nodes = (
"324 559 LINE SMOOTH",
"324 522 OFFCURVE",
"266 504 OFFCURVE",
"196 482 CURVE SMOOTH",
"122 459 OFFCURVE",
"40 423 OFFCURVE",
"40 338 CURVE SMOOTH",
"40 260 OFFCURVE",
"115 223 OFFCURVE",
"167 223 CURVE SMOOTH",
"234 223 OFFCURVE",
"303 247 OFFCURVE",
"333 247 CURVE SMOOTH",
"386 247 OFFCURVE",
"399 211 OFFCURVE",
"399 185 CURVE SMOOTH",
"399 0 LINE",
"480 0 LINE",
"480 184 LINE SMOOTH",
"480 271 OFFCURVE",
"434 319 OFFCURVE",
"345 319 CURVE SMOOTH",
"293 319 OFFCURVE",
"245 297 OFFCURVE",
"173 297 CURVE SMOOTH",
"139 297 OFFCURVE",
"120 310 OFFCURVE",
"120 340 CURVE SMOOTH",
"120 386 OFFCURVE",
"178 403 OFFCURVE",
"240 425 CURVE SMOOTH",
"318 452 OFFCURVE",
"405 468 OFFCURVE",
"405 555 CURVE SMOOTH",
"405 600 LINE",
"324 600 LINE"
);
}
);
width = 540;
}
);
category = Letter;
},
{
glyphname = Ca.nohd;
lastChange = "2018-01-30 20:22:39 +0000";
layers = (
{
layerId = UUID0;
paths = (
{
closed = 1;
nodes = (
"388 0 LINE",
"469 0 LINE",
"469 600 LINE",
"388 600 LINE"
);
},
{
closed = 1;
nodes = (
"392 262 LINE",
"354 222 OFFCURVE",
"307 188 OFFCURVE",
"241 188 CURVE SMOOTH",
"137 188 OFFCURVE",
"126 290 OFFCURVE",
"105 340 CURVE",
"206 347 OFFCURVE",
"238 400 OFFCURVE",
"298 400 CURVE SMOOTH",
"361 400 OFFCURVE",
"404 371 OFFCURVE",
"420 361 CURVE",
"429 437 LINE",
"402 451 OFFCURVE",
"356 470 OFFCURVE",
"305 470 CURVE SMOOTH",
"219 470 OFFCURVE",
"139 396 OFFCURVE",
"10 396 CURVE",
"52 279 OFFCURVE",
"48 118 OFFCURVE",
"241 118 CURVE SMOOTH",
"310 118 OFFCURVE",
"357 144 OFFCURVE",
"392 167 CURVE"
);
}
);
width = 549;
}
);
category = Letter;
},
{
glyphname = Cha.nohd;
lastChange = "2018-01-30 20:22:39 +0000";
layers = (
{
layerId = UUID0;
paths = (
{
closed = 1;
nodes = (
"357 201 LINE SMOOTH",
"357 103 OFFCURVE",
"290 54 OFFCURVE",
"216 54 CURVE SMOOTH",
"183 54 OFFCURVE",
"126 69 OFFCURVE",
"126 132 CURVE SMOOTH",
"126 218 OFFCURVE",
"237 261 OFFCURVE",
"363 261 CURVE SMOOTH",
"489 261 OFFCURVE",
"576 222 OFFCURVE",
"576 136 CURVE SMOOTH",
"576 79 OFFCURVE",
"548 54 OFFCURVE",
"508 54 CURVE SMOOTH",
"470 54 OFFCURVE",
"421 69 OFFCURVE",
"396 133 CURVE",
"355 61 LINE",
"392 2 OFFCURVE",
"466 -14 OFFCURVE",
"506 -14 CURVE SMOOTH",
"606 -14 OFFCURVE",
"658 53 OFFCURVE",
"658 133 CURVE SMOOTH",
"658 261 OFFCURVE",
"528 330 OFFCURVE",
"363 330 CURVE SMOOTH",
"202 330 OFFCURVE",
"44 261 OFFCURVE",
"44 129 CURVE SMOOTH",
"44 40 OFFCURVE",
"114 -14 OFFCURVE",
"211 -14 CURVE SMOOTH",
"327 -14 OFFCURVE",
"438 57 OFFCURVE",
"438 186 CURVE SMOOTH",
"438 600 LINE",
"357 600 LINE"
);
},
{
closed = 1;
nodes = (
"410 383 LINE",
"373 352 OFFCURVE",
"294 320 OFFCURVE",
"231 320 CURVE SMOOTH",
"132 320 OFFCURVE",
"125 374 OFFCURVE",
"105 413 CURVE",
"202 418 OFFCURVE",
"222 453 OFFCURVE",
"280 453 CURVE SMOOTH",
"340 453 OFFCURVE",
"381 431 OFFCURVE",
"396 424 CURVE",
"411 496 LINE",
"385 506 OFFCURVE",
"341 521 OFFCURVE",
"292 521 CURVE SMOOTH",
"210 521 OFFCURVE",
"133 464 OFFCURVE",
"10 464 CURVE",
"50 375 OFFCURVE",
"50 250 OFFCURVE",
"235 250 CURVE SMOOTH",
"301 250 OFFCURVE",
"376 283 OFFCURVE",
"410 300 CURVE"
);
}
);
width = 697;
}
);
category = Letter;
},
{
glyphname = Ja.nohd;
lastChange = "2018-01-30 20:22:39 +0000";
layers = (
{
layerId = UUID0;
paths = (
{
closed = 1;
nodes = (
"28 181 LINE",
"59 165 OFFCURVE",
"107 142 OFFCURVE",
"186 142 CURVE SMOOTH",
"241 142 OFFCURVE",
"304 166 OFFCURVE",
"304 245 CURVE SMOOTH",
"304 340 OFFCURVE",
"210 355 OFFCURVE",
"114 355 CURVE",
"119 412 LINE",
"199 453 OFFCURVE",
"299 532 OFFCURVE",
"299 568 CURVE SMOOTH",
"299 610 LINE",
"380 610 LINE",
"380 583 LINE SMOOTH",
"380 517 OFFCURVE",
"288 442 OFFCURVE",
"232 407 CURVE",
"327 388 OFFCURVE",
"380 336 OFFCURVE",
"380 242 CURVE SMOOTH",
"380 116 OFFCURVE",
"287 69 OFFCURVE",
"188 69 CURVE SMOOTH",
"106 69 OFFCURVE",
"45 91 OFFCURVE",
"4 109 CURVE"
);
},
{
closed = 1;
nodes = (
"497 0 LINE",
"497 319 LINE SMOOTH",
"497 417 OFFCURVE",
"454 451 OFFCURVE",
"320 534 CURVE",
"361 587 LINE",
"512 494 OFFCURVE",
"578 452 OFFCURVE",
"578 322 CURVE SMOOTH",
"578 0 LINE"
);
}
);
width = 662;
}
);
category = Letter;
},
{
glyphname = Jha.nohd;
lastChange = "2018-01-30 20:22:39 +0000";
layers = (
{
layerId = UUID0;
paths = (
{
closed = 1;
nodes = (
"520 0 LINE",
"601 0 LINE",
"601 600 LINE",
"520 600 LINE"
);
},
{
closed = 1;
nodes = (
"-15 265 LINE",
"88 110 OFFCURVE",
"231 15 OFFCURVE",
"269 15 CURVE SMOOTH",
"293 15 OFFCURVE",
"304 46 OFFCURVE",
"304 151 CURVE SMOOTH",
"304 600 LINE",
"223 600 LINE",
"223 137 LINE",
"190 139 OFFCURVE",
"89 243 OFFCURVE",
"43 319 CURVE"
);
},
{
closed = 1;
nodes = (
"311 350 LINE",
"420 208 OFFCURVE",
"540 130 OFFCURVE",
"573 130 CURVE",
"542 238 LINE",
"509 241 OFFCURVE",
"413 339 OFFCURVE",
"366 407 CURVE"
);
}
);
width = 681;
}
);
category = Letter;
},
{
glyphname = Nyha.nohd;
lastChange = "2018-01-30 20:22:39 +0000";
layers = (
{
layerId = UUID0;
paths = (
{
closed = 1;
nodes = (
"324 600 LINE",
"324 560 LINE SMOOTH",
"324 507 OFFCURVE",
"40 510 OFFCURVE",
"40 358 CURVE SMOOTH",
"40 280 OFFCURVE",
"115 243 OFFCURVE",
"167 243 CURVE SMOOTH",
"234 243 OFFCURVE",
"308 267 OFFCURVE",
"338 267 CURVE SMOOTH",
"399 267 OFFCURVE",
"419 235 OFFCURVE",
"419 191 CURVE SMOOTH",
"419 0 LINE",
"500 0 LINE",
"500 194 LINE SMOOTH",
"500 291 OFFCURVE",
"449 339 OFFCURVE",
"366 339 CURVE SMOOTH",
"298 339 OFFCURVE",
"245 317 OFFCURVE",
"173 317 CURVE SMOOTH",
"139 317 OFFCURVE",
"120 330 OFFCURVE",
"120 360 CURVE SMOOTH",
"120 462 OFFCURVE",
"405 442 OFFCURVE",
"405 551 CURVE SMOOTH",
"405 600 LINE"
);
},
{
closed = 1;
nodes = (
"348 22 LINE",
"365 32 OFFCURVE",
"393 49 OFFCURVE",
"393 82 CURVE SMOOTH",
"393 106 OFFCURVE",
"366 131 OFFCURVE",
"324 138 CURVE",
"296 103 LINE",
"322 104 OFFCURVE",
"336 95 OFFCURVE",
"336 81 CURVE SMOOTH",
"336 70 OFFCURVE",
"327 64 OFFCURVE",
"321 59 CURVE",
"311 70 OFFCURVE",
"301 77 OFFCURVE",
"288 77 CURVE SMOOTH",
"274 77 OFFCURVE",
"261 65 OFFCURVE",
"261 48 CURVE SMOOTH",
"261 29 OFFCURVE",
"278 14 OFFCURVE",
"295 14 CURVE SMOOTH",
"304 14 LINE",
"336 -29 LINE",
"371 -10 LINE"
);
},
{
closed = 1;
nodes = (
"293 103 LINE",
"329 104 OFFCURVE",
"383 127 OFFCURVE",
"383 168 CURVE SMOOTH",
"383 196 OFFCURVE",
"364 224 OFFCURVE",
"314 224 CURVE SMOOTH",
"275 224 OFFCURVE",
"247 199 OFFCURVE",
"236 188 CURVE",
"249 136 LINE",
"258 155 OFFCURVE",
"285 177 OFFCURVE",
"306 177 CURVE SMOOTH",
"318 177 OFFCURVE",
"327 171 OFFCURVE",
"327 162 CURVE SMOOTH",
"327 153 OFFCURVE",
"320 140 OFFCURVE",
"293 140 CURVE"
);
},
{
closed = 1;
nodes = (
"130 252 OFFCURVE",
"101 233 OFFCURVE",
"101 199 CURVE SMOOTH",
"101 183 OFFCURVE",
"113 155 OFFCURVE",
"144 155 CURVE SMOOTH",
"162 155 OFFCURVE",
"179 168 OFFCURVE",
"185 186 CURVE",
"194 171 OFFCURVE",
"198 148 OFFCURVE",
"198 119 CURVE SMOOTH",
"198 76 OFFCURVE",
"186 36 OFFCURVE",
"162 36 CURVE SMOOTH",
"134 36 OFFCURVE",
"106 80 OFFCURVE",
"91 117 CURVE",
"43 91 LINE",
"64 33 OFFCURVE",
"109 -15 OFFCURVE",
"162 -15 CURVE SMOOTH",
"224 -15 OFFCURVE",
"259 48 OFFCURVE",
"259 120 CURVE SMOOTH",
"259 199 OFFCURVE",
"220 252 OFFCURVE",
"154 252 CURVE SMOOTH"
);
}
);
width = 560;
}
);
category = Letter;
},
{
glyphname = Tta.nohd;
lastChange = "2018-01-30 20:22:39 +0000";
layers = (
{
layerId = UUID0;
paths = (
{
closed = 1;
nodes = (
"466 167 LINE",
"429 104 OFFCURVE",
"361 58 OFFCURVE",
"283 58 CURVE SMOOTH",
"178 58 OFFCURVE",
"134 165 OFFCURVE",
"115 285 CURVE",
"263 296 OFFCURVE",
"381 368 OFFCURVE",
"381 500 CURVE SMOOTH",
"381 600 LINE",
"300 600 LINE",
"300 498 LINE SMOOTH",
"300 400 OFFCURVE",
"185 351 OFFCURVE",
"28 346 CURVE",
"39 167 OFFCURVE",
"93 -12 OFFCURVE",
"283 -12 CURVE SMOOTH",
"380 -12 OFFCURVE",
"466 34 OFFCURVE",
"511 114 CURVE"
);
}
);
width = 533;
}
);
category = Letter;
},
{
glyphname = Dda.nohd;
lastChange = "2018-01-30 20:22:39 +0000";
layers = (
{
layerId = UUID0;
paths = (
{
closed = 1;
nodes = (
"343 600 LINE",
"262 600 LINE",
"262 439 LINE",
"343 439 LINE"
);
},
{
closed = 1;
nodes = (
"211 485 OFFCURVE",
"149 438 OFFCURVE",
"149 373 CURVE SMOOTH",
"149 322 OFFCURVE",
"185 282 OFFCURVE",
"232 282 CURVE SMOOTH",
"278 282 OFFCURVE",
"315 322 OFFCURVE",
"315 373 CURVE SMOOTH",
"315 385 OFFCURVE",
"313 396 OFFCURVE",
"309 407 CURVE",
"388 390 OFFCURVE",
"397 292 OFFCURVE",
"397 246 CURVE SMOOTH",
"397 173 OFFCURVE",
"362 60 OFFCURVE",
"251 60 CURVE SMOOTH",
"186 60 OFFCURVE",
"122 149 OFFCURVE",
"87 230 CURVE",
"20 192 LINE",
"69 79 OFFCURVE",
"157 -12 OFFCURVE",
"250 -12 CURVE SMOOTH",
"411 -12 OFFCURVE",
"477 120 OFFCURVE",
"477 246 CURVE SMOOTH",
"477 346 OFFCURVE",
"433 485 OFFCURVE",
"279 485 CURVE SMOOTH"
);
}
);
width = 532;
}
);
category = Letter;
},
{
glyphname = Ddha.nohd;
lastChange = "2018-01-30 20:22:39 +0000";
layers = (
{
layerId = UUID0;
paths = (
{
closed = 1;
nodes = (
"185 58 OFFCURVE",
"132 164 OFFCURVE",
"117 285 CURVE",
"265 296 OFFCURVE",
"413 368 OFFCURVE",
"413 500 CURVE SMOOTH",
"413 600 LINE",
"332 600 LINE",
"332 498 LINE SMOOTH",
"332 400 OFFCURVE",
"187 351 OFFCURVE",
"30 346 CURVE",
"41 167 OFFCURVE",
"94 -12 OFFCURVE",
"309 -12 CURVE SMOOTH",
"452 -12 OFFCURVE",
"550 58 OFFCURVE",
"550 163 CURVE SMOOTH",
"550 212 OFFCURVE",
"511 280 OFFCURVE",
"424 280 CURVE SMOOTH",
"338 280 OFFCURVE",
"292 216 OFFCURVE",
"292 155 CURVE SMOOTH",
"292 109 OFFCURVE",
"317 67 OFFCURVE",
"366 45 CURVE",
"450 91 LINE",
"378 91 OFFCURVE",
"367 137 OFFCURVE",
"367 159 CURVE SMOOTH",
"367 196 OFFCURVE",
"394 214 OFFCURVE",
"419 214 CURVE SMOOTH",
"455 214 OFFCURVE",
"475 191 OFFCURVE",
"475 157 CURVE SMOOTH",
"475 99 OFFCURVE",
"415 58 OFFCURVE",
"314 58 CURVE SMOOTH"
);
}
);
width = 580;
}
);
category = Letter;
},
{
glyphname = Ta.nohd;
lastChange = "2018-01-30 20:22:39 +0000";
layers = (
{
layerId = UUID0;
paths = (
{
closed = 1;
nodes = (
"483 375 LINE SMOOTH",
"483 513 OFFCURVE",
"398 575 OFFCURVE",
"265 575 CURVE SMOOTH",
"123 575 OFFCURVE",
"49 482 OFFCURVE",
"49 369 CURVE SMOOTH",
"49 230 LINE",
"130 230 LINE",
"130 368 LINE SMOOTH",
"130 440 OFFCURVE",
"165 503 OFFCURVE",
"263 503 CURVE SMOOTH",
"378 503 OFFCURVE",
"402 434 OFFCURVE",
"402 368 CURVE SMOOTH",
"402 0 LINE",
"483 0 LINE"
);
}
);
width = 564;
}
);
category = Letter;
},
{
glyphname = Da.nohd;
lastChange = "2018-01-30 20:22:39 +0000";
layers = (
{
layerId = UUID0;
paths = (
{
closed = 1;
nodes = (
"548 192 OFFCURVE",
"511 233 OFFCURVE",
"465 233 CURVE SMOOTH",
"418 233 OFFCURVE",
"382 192 OFFCURVE",
"382 141 CURVE SMOOTH",
"382 119 OFFCURVE",
"382 100 OFFCURVE",
"383 82 CURVE",
"361 74 OFFCURVE",
"334 68 OFFCURVE",
"299 68 CURVE SMOOTH",
"175 68 OFFCURVE",
"128 179 OFFCURVE",
"117 285 CURVE",
"265 296 OFFCURVE",
"383 368 OFFCURVE",
"383 500 CURVE SMOOTH",
"383 600 LINE",
"302 600 LINE",
"302 498 LINE SMOOTH",
"302 400 OFFCURVE",
"187 351 OFFCURVE",
"30 346 CURVE",
"41 167 OFFCURVE",
"95 -2 OFFCURVE",
"297 -2 CURVE SMOOTH",
"335 -2 OFFCURVE",
"365 2 OFFCURVE",
"389 9 CURVE",
"392 -14 OFFCURVE",
"395 -33 OFFCURVE",
"398 -49 CURVE",
"476 -35 LINE",
"472 -12 OFFCURVE",
"469 17 OFFCURVE",
"467 45 CURVE",
"474 51 LINE",
"516 55 OFFCURVE",
"548 93 OFFCURVE",
"548 141 CURVE SMOOTH"
);
}
);
width = 585;
}
);
category = Letter;
},
{
glyphname = Na.nohd;
lastChange = "2018-01-30 20:22:39 +0000";
layers = (
{
layerId = UUID0;
paths = (
{
closed = 1;
nodes = (
"446 0 LINE",
"446 600 LINE",
"365 600 LINE",
"365 0 LINE"
);
},
{
closed = 1;
nodes = (
"137 410 OFFCURVE",
"20 352 OFFCURVE",
"20 256 CURVE SMOOTH",
"20 205 OFFCURVE",
"56 164 OFFCURVE",
"103 164 CURVE SMOOTH",
"149 164 OFFCURVE",
"186 204 OFFCURVE",
"186 255 CURVE SMOOTH",
"186 278 OFFCURVE",
"178 299 OFFCURVE",
"166 315 CURVE",
"197 331 OFFCURVE",
"239 339 OFFCURVE",
"284 339 CURVE SMOOTH",
"337 339 OFFCURVE",
"370 327 OFFCURVE",
"389 307 CURVE",
"408 385 LINE",
"378 401 OFFCURVE",
"338 410 OFFCURVE",
"288 410 CURVE SMOOTH"
);
}
);
width = 526;
}
);
category = Letter;
},
{
glyphname = Nha.nohd;
lastChange = "2018-01-30 20:22:39 +0000";
layers = (
{
layerId = UUID0;
paths = (
{
closed = 1;
nodes = (
"300 267 LINE",
"219 267 LINE",
"219 0 LINE",
"300 0 LINE"
);
},
{
closed = 1;
nodes = (
"324 539 LINE SMOOTH",
"324 484 OFFCURVE",
"40 498 OFFCURVE",
"40 338 CURVE SMOOTH",
"40 260 OFFCURVE",
"115 223 OFFCURVE",
"167 223 CURVE SMOOTH",
"234 223 OFFCURVE",
"288 247 OFFCURVE",
"318 247 CURVE SMOOTH",
"371 247 OFFCURVE",
"379 211 OFFCURVE",
"379 185 CURVE SMOOTH",
"379 0 LINE",
"460 0 LINE",
"460 184 LINE SMOOTH",
"460 271 OFFCURVE",
"419 319 OFFCURVE",
"330 319 CURVE SMOOTH",
"278 319 OFFCURVE",
"245 297 OFFCURVE",
"173 297 CURVE SMOOTH",
"139 297 OFFCURVE",
"120 310 OFFCURVE",
"120 340 CURVE SMOOTH",
"120 443 OFFCURVE",
"405 417 OFFCURVE",
"405 535 CURVE SMOOTH",
"405 600 LINE",
"324 600 LINE"
);
},
{
closed = 1;
nodes = (
"143 193 OFFCURVE",
"12 159 OFFCURVE",
"12 68 CURVE SMOOTH",
"12 24 OFFCURVE",
"41 -9 OFFCURVE",
"78 -9 CURVE SMOOTH",
"114 -9 OFFCURVE",
"144 24 OFFCURVE",
"144 66 CURVE SMOOTH",
"144 86 OFFCURVE",
"138 103 OFFCURVE",
"127 117 CURVE",
"155 132 OFFCURVE",
"194 140 OFFCURVE",
"232 140 CURVE",
"235 193 LINE"
);
}
);
width = 520;
}
);
category = Letter;
},
{
glyphname = Pa.nohd;
lastChange = "2018-01-30 20:22:39 +0000";
layers = (
{
layerId = UUID0;
paths = (
{
closed = 1;
nodes = (
"395 257 LINE",
"359 211 OFFCURVE",
"301 171 OFFCURVE",
"225 171 CURVE SMOOTH",
"152 171 OFFCURVE",
"110 209 OFFCURVE",
"110 285 CURVE SMOOTH",
"110 354 OFFCURVE",
"162 397 OFFCURVE",
"162 478 CURVE SMOOTH",
"162 504 OFFCURVE",
"156 565 OFFCURVE",
"131 600 CURVE",
"50 600 LINE",
"66 573 OFFCURVE",
"82 533 OFFCURVE",
"82 477 CURVE SMOOTH",
"82 400 OFFCURVE",
"30 363 OFFCURVE",
"30 279 CURVE SMOOTH",
"30 170 OFFCURVE",
"99 100 OFFCURVE",
"219 100 CURVE SMOOTH",
"297 100 OFFCURVE",
"355 130 OFFCURVE",
"392 159 CURVE"
);
},
{
closed = 1;
nodes = (
"385 0 LINE",
"466 0 LINE",
"466 600 LINE",
"385 600 LINE"
);
}
);
width = 546;
}
);
category = Letter;
},
{
glyphname = Pha.nohd;
lastChange = "2018-01-30 20:22:39 +0000";
layers = (
{
layerId = UUID0;
paths = (
{
closed = 1;
nodes = (
"169 349 LINE",
"263 363 OFFCURVE",
"362 405 OFFCURVE",
"362 520 CURVE SMOOTH",
"362 600 LINE",
"281 600 LINE",
"281 518 LINE SMOOTH",
"281 445 OFFCURVE",
"173 403 OFFCURVE",
"53 401 CURVE",
"54 382 LINE",
"356 -29 LINE",
"420 0 LINE"
);
},
{
closed = 1;
nodes = (
"310 296 LINE",
"308 287 OFFCURVE",
"307 278 OFFCURVE",
"307 269 CURVE SMOOTH",
"307 201 OFFCURVE",
"359 147 OFFCURVE",
"423 147 CURVE SMOOTH",
"515 147 OFFCURVE",
"548 220 OFFCURVE",
"548 267 CURVE SMOOTH",
"548 327 OFFCURVE",
"499 388 OFFCURVE",
"427 388 CURVE SMOOTH",
"338 388 OFFCURVE",
"272 310 OFFCURVE",
"243 229 CURVE",
"297 164 LINE",
"315 249 OFFCURVE",
"369 318 OFFCURVE",
"426 318 CURVE SMOOTH",
"453 318 OFFCURVE",
"477 301 OFFCURVE",
"477 265 CURVE SMOOTH",
"477 238 OFFCURVE",
"456 216 OFFCURVE",
"424 216 CURVE SMOOTH",
"400 216 OFFCURVE",
"374 237 OFFCURVE",
"374 278 CURVE SMOOTH",
"374 293 OFFCURVE",
"378 311 OFFCURVE",
"385 329 CURVE"
);
}
);
width = 600;
}
);
category = Letter;
},
{
glyphname = Ba.nohd;
lastChange = "2018-01-30 20:22:39 +0000";
layers = (
{
layerId = UUID0;
paths = (
{
closed = 1;
nodes = (
"385 219 LINE",
"350 186 OFFCURVE",
"301 167 OFFCURVE",
"231 167 CURVE SMOOTH",
"167 167 OFFCURVE",
"111 205 OFFCURVE",
"111 287 CURVE SMOOTH",
"111 357 OFFCURVE",
"164 401 OFFCURVE",
"252 401 CURVE SMOOTH",
"332 401 OFFCURVE",
"385 376 OFFCURVE",
"411 363 CURVE",
"425 435 LINE",
"406 444 OFFCURVE",
"339 470 OFFCURVE",
"249 470 CURVE SMOOTH",
"118 470 OFFCURVE",
"30 400 OFFCURVE",
"30 286 CURVE SMOOTH",
"30 175 OFFCURVE",
"112 98 OFFCURVE",
"225 98 CURVE SMOOTH",
"299 98 OFFCURVE",
"349 113 OFFCURVE",
"385 134 CURVE",
"385 0 LINE",
"466 0 LINE",
"466 600 LINE",
"385 600 LINE"
);
}
);
width = 546;
}
);
category = Letter;
},
{
glyphname = Bha.nohd;
lastChange = "2018-01-30 20:22:39 +0000";
layers = (
{
layerId = UUID0;
paths = (
{
closed = 1;
nodes = (
"223 -11 LINE",
"284 34 LINE",
"131 236 LINE",
"131 368 LINE SMOOTH",
"131 440 OFFCURVE",
"166 503 OFFCURVE",
"264 503 CURVE SMOOTH",
"379 503 OFFCURVE",
"403 434 OFFCURVE",
"403 368 CURVE SMOOTH",
"403 0 LINE",
"484 0 LINE",
"484 375 LINE SMOOTH",
"484 513 OFFCURVE",
"399 575 OFFCURVE",
"266 575 CURVE SMOOTH",
"124 575 OFFCURVE",
"50 482 OFFCURVE",
"50 369 CURVE SMOOTH",
"50 217 LINE"
);
}
);
width = 564;
}
);
category = Letter;
},
{
glyphname = Bha.alt.nohd;
lastChange = "2018-01-30 20:22:39 +0000";
layers = (
{
layerId = UUID0;
paths = (
{
closed = 1;
nodes = (
"269 362 LINE",
"269 419 OFFCURVE",
"280 506 OFFCURVE",
"342 506 CURVE SMOOTH",
"378 506 OFFCURVE",
"403 483 OFFCURVE",
"403 426 CURVE SMOOTH",
"403 0 LINE",
"484 0 LINE",
"484 429 LINE SMOOTH",
"484 509 OFFCURVE",
"452 574 OFFCURVE",
"347 574 CURVE SMOOTH",
"258 574 OFFCURVE",
"203 517 OFFCURVE",
"192 417 CURVE"
);
},
{
closed = 1;
nodes = (
"55 451 LINE",
"213 298 LINE",
"269 362 LINE",
"114 508 LINE"
);
}
);
width = 564;
}
);
category = Letter;
},
{
glyphname = Ma.nohd;
lastChange = "2018-01-30 20:22:39 +0000";
layers = (
{
layerId = UUID0;
paths = (
{
closed = 1;
nodes = (
"105 270 LINE",
"186 205 LINE",
"186 600 LINE",
"105 600 LINE"
);
},
{
closed = 1;
nodes = (
"427 0 LINE",
"508 0 LINE",
"508 600 LINE",
"427 600 LINE"
);
},
{
closed = 1;
nodes = (
"109 317 OFFCURVE",
"20 294 OFFCURVE",
"20 206 CURVE SMOOTH",
"20 153 OFFCURVE",
"56 114 OFFCURVE",
"103 114 CURVE SMOOTH",
"149 114 OFFCURVE",
"186 154 OFFCURVE",
"186 205 CURVE SMOOTH",
"186 219 OFFCURVE",
"183 233 OFFCURVE",
"178 245 CURVE",
"190 246 OFFCURVE",
"203 247 OFFCURVE",
"219 247 CURVE SMOOTH",
"299 247 OFFCURVE",
"415 206 OFFCURVE",
"438 142 CURVE",
"455 243 LINE",
"381 297 OFFCURVE",
"297 317 OFFCURVE",
"209 317 CURVE SMOOTH"
);
}
);
width = 588;
}
);
category = Letter;
},
{
glyphname = Mha.nohd;
lastChange = "2018-01-30 20:22:39 +0000";
layers = (
{
layerId = UUID0;
paths = (
{
closed = 1;
nodes = (
"509 327 CURVE",
"509 600 LINE",
"428 600 LINE",
"428 319 LINE",
"353 307 OFFCURVE",
"266 287 OFFCURVE",
"173 287 CURVE SMOOTH",
"139 287 OFFCURVE",
"120 300 OFFCURVE",
"120 330 CURVE SMOOTH",
"120 433 OFFCURVE",
"385 417 OFFCURVE",
"385 535 CURVE SMOOTH",
"385 600 LINE",
"304 600 LINE",
"304 539 LINE SMOOTH",
"304 484 OFFCURVE",
"40 488 OFFCURVE",
"40 328 CURVE SMOOTH",
"40 250 OFFCURVE",
"115 213 OFFCURVE",
"167 213 CURVE SMOOTH",
"194 213 LINE",
"194 147 LINE",
"156 134 OFFCURVE",
"129 109 OFFCURVE",
"129 66 CURVE SMOOTH",
"129 23 OFFCURVE",
"159 -10 OFFCURVE",
"197 -10 CURVE SMOOTH",
"234 -10 OFFCURVE",
"264 23 OFFCURVE",
"264 65 CURVE SMOOTH",
"264 98 LINE",
"272 99 OFFCURVE",
"282 99 OFFCURVE",
"292 99 CURVE SMOOTH",
"334 99 OFFCURVE",
"390 85 OFFCURVE",
"428 60 CURVE",
"428 0 LINE",
"509 0 LINE",
"509 255 LINE",
"571 253 OFFCURVE",
"579 218 OFFCURVE",
"579 193 CURVE SMOOTH",
"579 0 LINE",
"660 0 LINE",
"660 192 LINE SMOOTH",
"660 286 OFFCURVE",
"613 327 OFFCURVE"
);
},
{
closed = 1;
nodes = (
"264 158 LINE",
"264 219 LINE",
"327 226 OFFCURVE",
"379 239 OFFCURVE",
"428 248 CURVE",
"428 129 LINE",
"383 150 OFFCURVE",
"334 158 OFFCURVE",
"283 158 CURVE SMOOTH"
);
}
);
width = 720;
}
);
category = Letter;
},
{
glyphname = Ya.nohd;
lastChange = "2018-01-30 20:22:39 +0000";
layers = (
{
layerId = UUID0;
paths = (
{
closed = 1;
nodes = (
"418 255 LINE",
"382 209 OFFCURVE",
"324 171 OFFCURVE",
"248 171 CURVE SMOOTH",
"182 171 OFFCURVE",
"107 197 OFFCURVE",
"92 259 CURVE",
"142 289 OFFCURVE",
"186 336 OFFCURVE",
"186 439 CURVE SMOOTH",
"186 600 LINE",
"105 600 LINE",
"105 435 LINE SMOOTH",
"105 378 OFFCURVE",
"85 318 OFFCURVE",
"8 283 CURVE",
"24 159 OFFCURVE",
"122 100 OFFCURVE",
"242 100 CURVE SMOOTH",
"320 100 OFFCURVE",
"378 128 OFFCURVE",
"415 157 CURVE"
);
},
{
closed = 1;
nodes = (
"489 0 LINE",
"489 600 LINE",
"408 600 LINE",
"408 0 LINE"
);
}
);
width = 569;
}
);
category = Letter;
},
{
glyphname = Ra.nohd;
lastChange = "2018-01-30 20:22:39 +0000";
layers = (
{
layerId = UUID0;
paths = (
{
closed = 1;
nodes = (
"396 368 LINE",
"366 384 OFFCURVE",
"326 393 OFFCURVE",
"283 393 CURVE SMOOTH",
"226 393 OFFCURVE",
"185 363 OFFCURVE",
"132 363 CURVE SMOOTH",
"87 363 OFFCURVE",
"58 373 OFFCURVE",
"34 383 CURVE",
"16 317 LINE",
"46 301 OFFCURVE",
"86 292 OFFCURVE",
"136 292 CURVE SMOOTH",
"192 292 OFFCURVE",
"227 322 OFFCURVE",
"283 322 CURVE SMOOTH",
"325 322 OFFCURVE",
"358 310 OFFCURVE",
"377 290 CURVE"
);
},
{
closed = 1;
nodes = (
"436 0 LINE",
"436 600 LINE",
"355 600 LINE",
"355 0 LINE"
);
}
);
width = 516;
}
);
category = Letter;
},
{
glyphname = Rha.nohd;
lastChange = "2018-01-30 20:22:39 +0000";
layers = (
{
layerId = UUID0;
paths = (
{
closed = 1;
nodes = (
"324 539 LINE SMOOTH",
"324 484 OFFCURVE",
"40 498 OFFCURVE",
"40 338 CURVE SMOOTH",
"40 260 OFFCURVE",
"115 223 OFFCURVE",
"167 223 CURVE SMOOTH",
"234 223 OFFCURVE",
"288 247 OFFCURVE",
"318 247 CURVE SMOOTH",
"371 247 OFFCURVE",
"379 211 OFFCURVE",
"379 185 CURVE SMOOTH",
"379 0 LINE",
"460 0 LINE",
"460 184 LINE SMOOTH",
"460 271 OFFCURVE",
"419 319 OFFCURVE",
"330 319 CURVE SMOOTH",
"278 319 OFFCURVE",
"245 297 OFFCURVE",
"173 297 CURVE SMOOTH",
"139 297 OFFCURVE",
"120 310 OFFCURVE",
"120 340 CURVE SMOOTH",
"120 443 OFFCURVE",
"405 417 OFFCURVE",
"405 535 CURVE SMOOTH",
"405 600 LINE",
"324 600 LINE"
);
},
{
closed = 1;
nodes = (
"297 267 LINE",
"216 267 LINE",
"216 0 LINE",
"297 0 LINE"
);
},
{
closed = 1;
nodes = (
"271 132 LINE",
"254 144 OFFCURVE",
"231 152 OFFCURVE",
"206 152 CURVE SMOOTH",
"174 152 OFFCURVE",
"150 127 OFFCURVE",
"120 127 CURVE SMOOTH",
"95 127 OFFCURVE",
"76 136 OFFCURVE",
"62 143 CURVE",
"54 92 LINE",
"71 78 OFFCURVE",
"94 71 OFFCURVE",
"122 71 CURVE SMOOTH",
"154 71 OFFCURVE",
"175 96 OFFCURVE",
"206 96 CURVE SMOOTH",
"231 96 OFFCURVE",
"249 86 OFFCURVE",
"261 70 CURVE"
);
}
);
width = 518;
}
);
category = Letter;
},
{
glyphname = La.nohd;
lastChange = "2018-01-30 20:22:39 +0000";
layers = (
{
layerId = UUID0;
paths = (
{
closed = 1;
nodes = (
"502 0 LINE",
"583 0 LINE",
"583 600 LINE",
"502 600 LINE"
);
},
{
closed = 1;
nodes = (
"406 477 OFFCURVE",
"351 460 OFFCURVE",
"316 419 CURVE",
"284 456 OFFCURVE",
"237 477 OFFCURVE",
"186 477 CURVE SMOOTH",
"90 477 OFFCURVE",
"30 412 OFFCURVE",
"30 332 CURVE SMOOTH",
"30 263 OFFCURVE",
"85 190 OFFCURVE",
"137 121 CURVE SMOOTH",
"237 -11 LINE",
"298 34 LINE",
"193 174 LINE SMOOTH",
"145 238 OFFCURVE",
"112 282 OFFCURVE",
"112 329 CURVE SMOOTH",
"112 386 OFFCURVE",
"154 409 OFFCURVE",
"187 409 CURVE SMOOTH",
"236 409 OFFCURVE",
"279 376 OFFCURVE",
"279 316 CURVE SMOOTH",
"279 310 LINE",
"353 310 LINE",
"353 405 OFFCURVE",
"426 409 OFFCURVE",
"455 409 CURVE SMOOTH",
"487 409 OFFCURVE",
"514 399 OFFCURVE",
"522 397 CURVE",
"535 468 LINE",
"518 472 OFFCURVE",
"489 477 OFFCURVE",
"451 477 CURVE SMOOTH"
);
}
);
width = 663;
}
);
category = Letter;
},
{
glyphname = Lha.nohd;
lastChange = "2018-01-30 20:22:39 +0000";
layers = (
{
layerId = UUID0;
paths = (
{
closed = 1;
nodes = (
"335 600 LINE",
"335 563 LINE SMOOTH",
"335 502 OFFCURVE",
"51 510 OFFCURVE",
"51 358 CURVE SMOOTH",
"51 280 OFFCURVE",
"126 243 OFFCURVE",
"178 243 CURVE SMOOTH",
"245 243 OFFCURVE",
"319 267 OFFCURVE",
"349 267 CURVE SMOOTH",
"410 267 OFFCURVE",
"430 235 OFFCURVE",
"430 191 CURVE SMOOTH",
"430 0 LINE",
"511 0 LINE",
"511 194 LINE SMOOTH",
"511 291 OFFCURVE",
"460 339 OFFCURVE",
"377 339 CURVE SMOOTH",
"309 339 OFFCURVE",
"256 317 OFFCURVE",
"184 317 CURVE SMOOTH",
"150 317 OFFCURVE",
"131 330 OFFCURVE",
"131 360 CURVE SMOOTH",
"131 462 OFFCURVE",
"416 431 OFFCURVE",
"416 562 CURVE SMOOTH",
"416 600 LINE"
);
},
{
closed = 1;
nodes = (
"341 136 LINE",
"341 184 OFFCURVE",
"304 220 OFFCURVE",
"250 220 CURVE SMOOTH",
"225 220 OFFCURVE",
"201 209 OFFCURVE",
"183 190 CURVE",
"163 209 OFFCURVE",
"136 220 OFFCURVE",
"111 220 CURVE SMOOTH",
"57 220 OFFCURVE",
"20 184 OFFCURVE",
"20 136 CURVE SMOOTH",
"20 101 OFFCURVE",
"43 63 OFFCURVE",
"71 24 CURVE SMOOTH",
"105 -23 LINE",
"156 12 LINE",
"122 57 LINE SMOOTH",
"104 81 OFFCURVE",
"80 114 OFFCURVE",
"80 132 CURVE SMOOTH",
"80 156 OFFCURVE",
"98 166 OFFCURVE",
"115 166 CURVE SMOOTH",
"137 166 OFFCURVE",
"157 145 OFFCURVE",
"157 111 CURVE",
"211 111 LINE",
"211 145 OFFCURVE",
"228 166 OFFCURVE",
"250 166 CURVE SMOOTH",
"263 166 OFFCURVE",
"281 156 OFFCURVE",
"281 132 CURVE"
);
},
{
closed = 1;
nodes = (
"361 298 LINE",
"280 267 LINE",
"280 0 LINE",
"361 0 LINE"
);
}
);
width = 571;
}
);
category = Letter;
},
{
glyphname = Wa.nohd;
lastChange = "2018-01-30 20:22:39 +0000";
layers = (
{
layerId = UUID0;
paths = (
{
closed = 1;
nodes = (
"507 509 LINE",
"362 504 OFFCURVE",
"30 455 OFFCURVE",
"30 259 CURVE SMOOTH",
"30 179 OFFCURVE",
"90 114 OFFCURVE",
"186 114 CURVE SMOOTH",
"258 114 OFFCURVE",
"324 156 OFFCURVE",
"346 229 CURVE",
"279 273 LINE",
"279 216 OFFCURVE",
"236 182 OFFCURVE",
"187 182 CURVE SMOOTH",
"154 182 OFFCURVE",
"112 205 OFFCURVE",
"112 262 CURVE SMOOTH",
"112 387 OFFCURVE",
"369 440 OFFCURVE",
"519 444 CURVE"
);
},
{
closed = 1;
nodes = (
"504 0 LINE",
"585 0 LINE",
"585 600 LINE",
"504 600 LINE"
);
},
{
closed = 1;
nodes = (
"517 243 LINE",
"513 204 OFFCURVE",
"464 182 OFFCURVE",
"432 182 CURVE SMOOTH",
"403 182 OFFCURVE",
"356 192 OFFCURVE",
"353 281 CURVE",
"279 281 LINE",
"279 151 OFFCURVE",
"359 114 OFFCURVE",
"431 114 CURVE SMOOTH",
"486 114 OFFCURVE",
"536 146 OFFCURVE",
"550 171 CURVE"
);
}
);
width = 665;
}
);
category = Letter;
},
{
glyphname = Ssa.nohd;
lastChange = "2018-01-30 20:22:39 +0000";
layers = (
{
layerId = UUID0;
paths = (
{
closed = 1;
nodes = (
"402 230 LINE",
"444 286 LINE",
"139 522 LINE",
"101 463 LINE"
);
},
{
closed = 1;
nodes = (
"466 0 LINE",
"466 600 LINE",
"385 600 LINE",
"385 0 LINE"
);
},
{
closed = 1;
nodes = (
"395 257 LINE",
"359 211 OFFCURVE",
"301 171 OFFCURVE",
"225 171 CURVE SMOOTH",
"152 171 OFFCURVE",
"110 209 OFFCURVE",
"110 285 CURVE SMOOTH",
"110 354 OFFCURVE",
"162 397 OFFCURVE",
"162 478 CURVE SMOOTH",
"162 504 OFFCURVE",
"156 565 OFFCURVE",
"131 600 CURVE",
"50 600 LINE",
"66 573 OFFCURVE",
"82 533 OFFCURVE",
"82 477 CURVE SMOOTH",
"82 400 OFFCURVE",
"30 363 OFFCURVE",
"30 279 CURVE SMOOTH",
"30 170 OFFCURVE",
"99 100 OFFCURVE",
"219 100 CURVE SMOOTH",
"297 100 OFFCURVE",
"355 130 OFFCURVE",
"392 159 CURVE"
);
}
);
width = 546;
}
);
category = Letter;
},
{
glyphname = Sa.nohd;
lastChange = "2018-01-30 20:22:39 +0000";
layers = (
{
layerId = UUID0;
paths = (
{
closed = 1;
nodes = (
"410 600 LINE",
"410 0 LINE",
"491 0 LINE",
"491 600 LINE"
);
},
{
closed = 1;
nodes = (
"94 289 LINE",
"148 301 OFFCURVE",
"213 346 OFFCURVE",
"213 465 CURVE SMOOTH",
"213 515 OFFCURVE",
"183 574 OFFCURVE",
"167 600 CURVE",
"81 600 LINE",
"97 579 OFFCURVE",
"132 514 OFFCURVE",
"132 466 CURVE SMOOTH",
"132 397 OFFCURVE",
"102 333 OFFCURVE",
"21 331 CURVE",
"16 271 LINE",
"204 0 LINE",
"300 0 LINE"
);
},
{
closed = 1;
nodes = (
"461 286 LINE",
"358 313 OFFCURVE",
"238 333 OFFCURVE",
"116 333 CURVE SMOOTH",
"83 333 OFFCURVE",
"56 332 OFFCURVE",
"21 331 CURVE",
"37 262 LINE",
"64 263 OFFCURVE",
"75 262 OFFCURVE",
"102 262 CURVE SMOOTH",
"238 262 OFFCURVE",
"343 242 OFFCURVE",
"461 215 CURVE"
);
}
);
width = 571;
}
);
category = Letter;
},
{
glyphname = Ha.nohd;
lastChange = "2018-01-30 20:22:39 +0000";
layers = (
{
layerId = UUID0;
paths = (
{
closed = 1;
nodes = (
"324 539 LINE SMOOTH",
"324 416 OFFCURVE",
"40 463 OFFCURVE",
"40 297 CURVE SMOOTH",
"40 196 OFFCURVE",
"115 162 OFFCURVE",
"197 162 CURVE SMOOTH",
"250 162 OFFCURVE",
"288 174 OFFCURVE",
"318 174 CURVE SMOOTH",
"371 174 OFFCURVE",
"380 146 OFFCURVE",
"380 120 CURVE SMOOTH",
"380 69 OFFCURVE",
"354 35 OFFCURVE",
"343 22 CURVE",
"405 -11 LINE",
"416 0 OFFCURVE",
"460 47 OFFCURVE",
"460 122 CURVE SMOOTH",
"460 192 OFFCURVE",
"419 246 OFFCURVE",
"330 246 CURVE SMOOTH",
"278 246 OFFCURVE",
"245 236 OFFCURVE",
"197 236 CURVE SMOOTH",
"148 236 OFFCURVE",
"120 248 OFFCURVE",
"120 299 CURVE SMOOTH",
"120 402 OFFCURVE",
"405 364 OFFCURVE",
"405 537 CURVE SMOOTH",
"405 600 LINE",
"324 600 LINE"
);
},
{
closed = 1;
nodes = (
"182 16 LINE",
"149 53 OFFCURVE",
"122 84 OFFCURVE",
"122 138 CURVE SMOOTH",
"122 181 OFFCURVE",
"141 205 OFFCURVE",
"142 211 CURVE",
"77 244 LINE",
"60 219 OFFCURVE",
"42 185 OFFCURVE",
"42 144 CURVE SMOOTH",
"42 77 OFFCURVE",
"83 15 OFFCURVE",
"122 -28 CURVE"
);
}
);
width = 495;
}
);
category = Letter;
},
{
glyphname = Ha.alt.nohd;
lastChange = "2018-01-30 20:22:39 +0000";
layers = (
{
layerId = UUID0;
paths = (
{
closed = 1;
nodes = (
"235 0 LINE",
"316 0 LINE",
"316 296 LINE",
"235 296 LINE"
);
},
{
closed = 1;
nodes = (
"325 610 LINE",
"325 563 LINE SMOOTH",
"325 502 OFFCURVE",
"41 510 OFFCURVE",
"41 358 CURVE SMOOTH",
"41 280 OFFCURVE",
"116 243 OFFCURVE",
"168 243 CURVE SMOOTH",
"235 243 OFFCURVE",
"309 267 OFFCURVE",
"339 267 CURVE SMOOTH",
"400 267 OFFCURVE",
"420 235 OFFCURVE",
"420 191 CURVE SMOOTH",
"420 0 LINE",
"501 0 LINE",
"501 194 LINE SMOOTH",
"501 291 OFFCURVE",
"450 339 OFFCURVE",
"367 339 CURVE SMOOTH",
"299 339 OFFCURVE",
"246 317 OFFCURVE",
"174 317 CURVE SMOOTH",
"140 317 OFFCURVE",
"121 330 OFFCURVE",
"121 360 CURVE SMOOTH",
"121 462 OFFCURVE",
"406 431 OFFCURVE",
"406 562 CURVE SMOOTH",
"406 610 LINE"
);
}
);
width = 560;
}
);
category = Letter;
},
{
glyphname = AA_dv.alt;
lastChange = "2018-01-30 20:22:39 +0000";
layers = (
{
layerId = UUID0;
paths = (
{
closed = 1;
nodes = (
"47 365 LINE",
"0 408 OFFCURVE",
"-46 454 OFFCURVE",
"-82 496 CURVE",
"-135 444 LINE",
"-86 390 OFFCURVE",
"-23 325 OFFCURVE",
"47 265 CURVE",
"47 0 LINE",
"128 0 LINE",
"128 622 LINE",
"47 622 LINE"
);
}
);
width = 208;
}
);
category = Letter;
},
{
glyphname = AA_dv.alt2;
lastChange = "2018-01-30 20:22:39 +0000";
layers = (
{
layerId = UUID0;
paths = (
{
closed = 1;
nodes = (
"133 0 LINE",
"133 622 LINE",
"52 622 LINE",
"52 0 LINE"
);
},
{
closed = 1;
nodes = (
"-118 418 LINE",
"-58 386 OFFCURVE",
"0 339 OFFCURVE",
"57 280 CURVE",
"97 342 LINE",
"33 400 OFFCURVE",
"-37 455 OFFCURVE",
"-109 497 CURVE"
);
}
);
width = 213;
}
);
category = Letter;
},
{
glyphname = AA_dv.alt3;
lastChange = "2018-01-30 20:22:39 +0000";
layers = (
{
layerId = UUID0;
paths = (
{
closed = 1;
nodes = (
"128 0 LINE",
"128 622 LINE",
"47 622 LINE",
"47 0 LINE"
);
},
{
closed = 1;
nodes = (
"-212 536 LINE",
"-155 459 OFFCURVE",
"-26 326 OFFCURVE",
"49 263 CURVE",
"103 317 LINE",
"23 380 OFFCURVE",
"-101 508 OFFCURVE",
"-171 607 CURVE"
);
}
);
width = 213;
}
);
category = Letter;
},
{
glyphname = E_dv.alt;
lastChange = "2018-01-30 20:22:39 +0000";
layers = (
{
layerId = UUID0;
paths = (
{
closed = 1;
nodes = (
"193 152 LINE",
"152 204 OFFCURVE",
"130 286 OFFCURVE",
"130 363 CURVE SMOOTH",
"130 446 OFFCURVE",
"156 531 OFFCURVE",
"225 587 CURVE",
"179 646 LINE",
"81 570 OFFCURVE",
"50 464 OFFCURVE",
"50 363 CURVE SMOOTH",
"50 265 OFFCURVE",
"82 164 OFFCURVE",
"141 100 CURVE"
);
}
);
width = 275;
}
);
category = Letter;
},
{
glyphname = AI_dv.alt;
lastChange = "2018-01-30 20:22:39 +0000";
layers = (
{
layerId = UUID0;
paths = (
{
closed = 1;
nodes = (
"713 600 LINE",
"713 688 LINE SMOOTH",
"713 773 OFFCURVE",
"650 818 OFFCURVE",
"572 818 CURVE SMOOTH",
"542 818 OFFCURVE",
"488 804 OFFCURVE",
"457 804 CURVE SMOOTH",
"424 804 OFFCURVE",
"391 819 OFFCURVE",
"333 897 CURVE",
"273 860 LINE",
"350 741 OFFCURVE",
"405 736 OFFCURVE",
"457 736 CURVE SMOOTH",
"494 736 OFFCURVE",
"530 750 OFFCURVE",
"571 750 CURVE SMOOTH",
"599 750 OFFCURVE",
"632 741 OFFCURVE",
"632 700 CURVE SMOOTH",
"632 600 LINE"
);
},
{
closed = 1;
nodes = (
"193 152 LINE",
"152 204 OFFCURVE",
"130 286 OFFCURVE",
"130 363 CURVE SMOOTH",
"130 446 OFFCURVE",
"156 531 OFFCURVE",
"225 587 CURVE",
"179 646 LINE",
"81 570 OFFCURVE",
"50 464 OFFCURVE",
"50 363 CURVE SMOOTH",
"50 265 OFFCURVE",
"82 164 OFFCURVE",
"141 100 CURVE"
);
}
);
width = 793;
}
);
category = Letter;
},
{
glyphname = O_dv.alt;
lastChange = "2018-01-30 20:22:39 +0000";
layers = (
{
layerId = UUID0;
paths = (
{
closed = 1;
nodes = (
"707 0 LINE",
"707 622 LINE",
"626 622 LINE",
"626 0 LINE"
);
},
{
closed = 1;
nodes = (
"460 444 LINE",
"509 389 OFFCURVE",
"573 324 OFFCURVE",
"644 263 CURVE",
"698 317 LINE",
"632 370 OFFCURVE",
"570 429 OFFCURVE",
"520 487 CURVE"
);
},
{
closed = 1;
nodes = (
"193 152 LINE",
"152 204 OFFCURVE",
"130 286 OFFCURVE",
"130 363 CURVE SMOOTH",
"130 446 OFFCURVE",
"156 531 OFFCURVE",
"225 587 CURVE",
"179 646 LINE",
"81 570 OFFCURVE",
"50 464 OFFCURVE",
"50 363 CURVE SMOOTH",
"50 265 OFFCURVE",
"82 164 OFFCURVE",
"141 100 CURVE"
);
}
);
width = 807;
}
);
category = Letter;
},
{
glyphname = AU_dv.alt;
lastChange = "2018-01-30 20:22:39 +0000";
layers = (
{
layerId = UUID0;
paths = (
{
closed = 1;
nodes = (
"707 600 LINE",
"707 688 LINE SMOOTH",
"707 773 OFFCURVE",
"644 818 OFFCURVE",
"566 818 CURVE SMOOTH",
"536 818 OFFCURVE",
"482 804 OFFCURVE",
"451 804 CURVE SMOOTH",
"418 804 OFFCURVE",
"385 819 OFFCURVE",
"327 897 CURVE",
"267 860 LINE",
"344 741 OFFCURVE",
"399 736 OFFCURVE",
"451 736 CURVE SMOOTH",
"488 736 OFFCURVE",
"524 750 OFFCURVE",
"565 750 CURVE SMOOTH",
"593 750 OFFCURVE",
"626 741 OFFCURVE",
"626 700 CURVE SMOOTH",
"626 600 LINE"
);
},
{
closed = 1;
nodes = (
"707 0 LINE",
"707 622 LINE",
"626 622 LINE",
"626 0 LINE"
);
},
{
closed = 1;
nodes = (
"460 444 LINE",
"509 389 OFFCURVE",
"573 324 OFFCURVE",
"644 263 CURVE",
"698 317 LINE",
"632 370 OFFCURVE",
"570 429 OFFCURVE",
"520 487 CURVE"
);
},
{
closed = 1;
nodes = (
"193 152 LINE",
"152 204 OFFCURVE",
"130 286 OFFCURVE",
"130 363 CURVE SMOOTH",
"130 446 OFFCURVE",
"156 531 OFFCURVE",
"225 587 CURVE",
"179 646 LINE",
"81 570 OFFCURVE",
"50 464 OFFCURVE",
"50 363 CURVE SMOOTH",
"50 265 OFFCURVE",
"82 164 OFFCURVE",
"141 100 CURVE"
);
}
);
width = 807;
}
);
category = Letter;
},
{
glyphname = Ha_Nga;
lastChange = "2018-01-30 20:22:39 +0000";
layers = (
{
layerId = UUID0;
paths = (
{
closed = 1;
nodes = (
"157 263 LINE",
"100 219 OFFCURVE",
"35 169 OFFCURVE",
"35 89 CURVE SMOOTH",
"35 25 OFFCURVE",
"76 -12 OFFCURVE",
"134 -12 CURVE SMOOTH",
"166 -12 OFFCURVE",
"186 2 OFFCURVE",
"201 19 CURVE",
"216 -3 OFFCURVE",
"241 -12 OFFCURVE",
"262 -12 CURVE SMOOTH",
"324 -12 OFFCURVE",
"346 29 OFFCURVE",
"346 72 CURVE SMOOTH",
"346 115 OFFCURVE",
"330 158 OFFCURVE",
"266 158 CURVE SMOOTH",
"214 158 OFFCURVE",
"193 123 OFFCURVE",
"177 91 CURVE SMOOTH",
"167 71 OFFCURVE",
"155 48 OFFCURVE",
"131 48 CURVE SMOOTH",
"116 48 OFFCURVE",
"98 63 OFFCURVE",
"98 91 CURVE SMOOTH",
"98 144 OFFCURVE",
"165 195 OFFCURVE",
"211 231 CURVE"
);
},
{
closed = 1;
nodes = (
"278 104 OFFCURVE",
"286 92 OFFCURVE",
"286 74 CURVE SMOOTH",
"286 55 OFFCURVE",
"276 44 OFFCURVE",
"265 44 CURVE SMOOTH",
"254 44 OFFCURVE",
"238 51 OFFCURVE",
"234 77 CURVE",
"242 92 OFFCURVE",
"251 104 OFFCURVE",
"264 104 CURVE SMOOTH"
);
},
{
closed = 1;
nodes = (
"0 622 LINE",
"0 551 LINE",
"295 551 LINE",
"295 539 LINE SMOOTH",
"295 480 OFFCURVE",
"20 493 OFFCURVE",
"20 345 CURVE SMOOTH",
"20 260 OFFCURVE",
"95 223 OFFCURVE",
"147 223 CURVE SMOOTH",
"214 223 OFFCURVE",
"283 247 OFFCURVE",
"313 247 CURVE SMOOTH",
"366 247 OFFCURVE",
"379 211 OFFCURVE",
"379 185 CURVE SMOOTH",
"379 0 LINE",
"460 0 LINE",
"460 184 LINE SMOOTH",
"460 271 OFFCURVE",
"414 319 OFFCURVE",
"325 319 CURVE SMOOTH",
"273 319 OFFCURVE",
"225 297 OFFCURVE",
"153 297 CURVE SMOOTH",
"119 297 OFFCURVE",
"100 310 OFFCURVE",
"100 343 CURVE SMOOTH",
"100 443 OFFCURVE",
"376 417 OFFCURVE",
"376 535 CURVE SMOOTH",
"376 551 LINE",
"530 551 LINE",
"530 622 LINE"
);
}
);
width = 520;
}
);
category = Letter;
},
{
glyphname = Ha_Nya;
lastChange = "2018-01-30 20:22:39 +0000";
layers = (
{
layerId = UUID0;
paths = (
{
closed = 1;
nodes = (
"328 22 LINE",
"345 32 OFFCURVE",
"373 49 OFFCURVE",
"373 82 CURVE SMOOTH",
"373 106 OFFCURVE",
"346 131 OFFCURVE",
"304 138 CURVE",
"275 103 LINE",
"301 102 OFFCURVE",
"316 96 OFFCURVE",
"316 81 CURVE SMOOTH",
"316 70 OFFCURVE",
"307 64 OFFCURVE",
"301 59 CURVE",
"291 70 OFFCURVE",
"281 77 OFFCURVE",
"268 77 CURVE SMOOTH",
"254 77 OFFCURVE",
"241 65 OFFCURVE",
"241 48 CURVE SMOOTH",
"241 29 OFFCURVE",
"258 14 OFFCURVE",
"275 14 CURVE SMOOTH",
"284 14 LINE",
"316 -29 LINE",
"351 -10 LINE"
);
},
{
closed = 1;
nodes = (
"273 103 LINE",
"309 104 OFFCURVE",
"363 127 OFFCURVE",
"363 168 CURVE SMOOTH",
"363 196 OFFCURVE",
"344 224 OFFCURVE",
"294 224 CURVE",
"255 224 OFFCURVE",
"227 199 OFFCURVE",
"216 188 CURVE",
"229 128 LINE",
"238 151 OFFCURVE",
"265 177 OFFCURVE",
"286 177 CURVE SMOOTH",
"298 177 OFFCURVE",
"307 171 OFFCURVE",
"307 162 CURVE SMOOTH",
"307 153 OFFCURVE",
"300 140 OFFCURVE",
"273 140 CURVE"
);
},
{
closed = 1;
nodes = (
"0 622 LINE",
"0 551 LINE",
"302 551 LINE",
"273 495 OFFCURVE",
"20 510 OFFCURVE",
"20 358 CURVE SMOOTH",
"20 280 OFFCURVE",
"95 243 OFFCURVE",
"147 243 CURVE SMOOTH",
"214 243 OFFCURVE",
"288 267 OFFCURVE",
"318 267 CURVE SMOOTH",
"379 267 OFFCURVE",
"399 235 OFFCURVE",
"399 191 CURVE SMOOTH",
"399 0 LINE",
"480 0 LINE",
"480 194 LINE SMOOTH",
"480 291 OFFCURVE",
"429 339 OFFCURVE",
"346 339 CURVE SMOOTH",
"278 339 OFFCURVE",
"225 317 OFFCURVE",
"153 317 CURVE SMOOTH",
"119 317 OFFCURVE",
"100 330 OFFCURVE",
"100 360 CURVE SMOOTH",
"100 462 OFFCURVE",
"376 430 OFFCURVE",
"385 551 CURVE",
"550 551 LINE",
"550 622 LINE"
);
},
{
closed = 1;
nodes = (
"112 252 OFFCURVE",
"81 232 OFFCURVE",
"81 200 CURVE SMOOTH",
"81 175 OFFCURVE",
"99 155 OFFCURVE",
"124 155 CURVE SMOOTH",
"142 155 OFFCURVE",
"159 168 OFFCURVE",
"165 186 CURVE",
"174 171 OFFCURVE",
"178 148 OFFCURVE",
"178 119 CURVE SMOOTH",
"178 76 OFFCURVE",
"166 36 OFFCURVE",
"142 36 CURVE SMOOTH",
"114 36 OFFCURVE",
"86 80 OFFCURVE",
"71 117 CURVE",
"23 91 LINE",
"44 33 OFFCURVE",
"83 -15 OFFCURVE",
"142 -15 CURVE SMOOTH",
"204 -15 OFFCURVE",
"239 48 OFFCURVE",
"239 120 CURVE SMOOTH",
"239 199 OFFCURVE",
"200 252 OFFCURVE",
"134 252 CURVE SMOOTH"
);
}
);
width = 540;
}
);
category = Letter;
},
{
glyphname = Ha_Nna;
lastChange = "2018-01-30 20:22:39 +0000";
layers = (
{
layerId = UUID0;
paths = (
{
closed = 1;
nodes = (
"0 622 LINE",
"0 551 LINE",
"322 551 LINE",
"296 504 OFFCURVE",
"40 510 OFFCURVE",
"40 358 CURVE SMOOTH",
"40 280 OFFCURVE",
"115 243 OFFCURVE",
"167 243 CURVE SMOOTH",
"234 243 OFFCURVE",
"308 267 OFFCURVE",
"338 267 CURVE SMOOTH",
"399 267 OFFCURVE",
"419 235 OFFCURVE",
"419 191 CURVE SMOOTH",
"419 0 LINE",
"500 0 LINE",
"500 194 LINE SMOOTH",
"500 291 OFFCURVE",
"449 339 OFFCURVE",
"366 339 CURVE SMOOTH",
"298 339 OFFCURVE",
"245 317 OFFCURVE",
"173 317 CURVE SMOOTH",
"139 317 OFFCURVE",
"120 330 OFFCURVE",
"120 360 CURVE SMOOTH",
"120 462 OFFCURVE",
"398 437 OFFCURVE",
"405 551 CURVE",
"570 551 LINE",
"570 622 LINE"
);
},
{
closed = 1;
nodes = (
"248 111 LINE",
"248 145 OFFCURVE",
"268 166 OFFCURVE",
"290 166 CURVE SMOOTH",
"307 166 OFFCURVE",
"325 156 OFFCURVE",
"325 124 CURVE SMOOTH",
"325 91 OFFCURVE",
"311 68 OFFCURVE",
"293 44 CURVE SMOOTH",
"269 12 LINE",
"320 -23 LINE",
"344 11 LINE SMOOTH",
"372 50 OFFCURVE",
"385 81 OFFCURVE",
"385 126 CURVE SMOOTH",
"385 184 OFFCURVE",
"348 220 OFFCURVE",
"294 220 CURVE SMOOTH",
"269 220 OFFCURVE",
"242 209 OFFCURVE",
"222 190 CURVE",
"202 209 OFFCURVE",
"176 220 OFFCURVE",
"151 220 CURVE SMOOTH",
"97 220 OFFCURVE",
"60 184 OFFCURVE",
"60 126 CURVE SMOOTH",
"60 81 OFFCURVE",
"73 50 OFFCURVE",
"101 11 CURVE SMOOTH",
"125 -23 LINE",
"176 12 LINE",
"152 44 LINE SMOOTH",
"134 68 OFFCURVE",
"120 91 OFFCURVE",
"120 124 CURVE SMOOTH",
"120 156 OFFCURVE",
"138 166 OFFCURVE",
"155 166 CURVE SMOOTH",
"177 166 OFFCURVE",
"197 145 OFFCURVE",
"197 111 CURVE"
);
},
{
closed = 1;
nodes = (
"194 174 LINE",
"254 174 LINE",
"254 270 LINE",
"194 270 LINE"
);
}
);
width = 560;
}
);
category = Letter;
},
{
glyphname = Ha_Na;
lastChange = "2018-01-30 20:22:39 +0000";
layers = (
{
layerId = UUID0;
paths = (
{
closed = 1;
nodes = (
"0 622 LINE",
"0 551 LINE",
"295 551 LINE",
"295 539 LINE SMOOTH",
"295 484 OFFCURVE",
"20 498 OFFCURVE",
"20 338 CURVE SMOOTH",
"20 260 OFFCURVE",
"95 223 OFFCURVE",
"147 223 CURVE SMOOTH",
"214 223 OFFCURVE",
"283 247 OFFCURVE",
"313 247 CURVE SMOOTH",
"366 247 OFFCURVE",
"379 211 OFFCURVE",
"379 185 CURVE SMOOTH",
"379 0 LINE",
"460 0 LINE",
"460 184 LINE SMOOTH",
"460 271 OFFCURVE",
"414 319 OFFCURVE",
"325 319 CURVE SMOOTH",
"273 319 OFFCURVE",
"225 297 OFFCURVE",
"153 297 CURVE SMOOTH",
"119 297 OFFCURVE",
"100 310 OFFCURVE",
"100 340 CURVE SMOOTH",
"100 443 OFFCURVE",
"376 417 OFFCURVE",
"376 535 CURVE SMOOTH",
"376 551 LINE",
"530 551 LINE",
"530 622 LINE"
);
},
{
closed = 1;
nodes = (
"300 267 LINE",
"219 267 LINE",
"219 0 LINE",
"300 0 LINE"
);
},
{
closed = 1;
nodes = (
"111 190 OFFCURVE",
"9 149 OFFCURVE",
"9 66 CURVE SMOOTH",
"9 24 OFFCURVE",
"38 -9 OFFCURVE",
"75 -9 CURVE SMOOTH",
"112 -9 OFFCURVE",
"141 24 OFFCURVE",
"141 66 CURVE SMOOTH",
"141 86 OFFCURVE",
"135 103 OFFCURVE",
"124 117 CURVE",
"152 132 OFFCURVE",
"191 140 OFFCURVE",
"229 140 CURVE",
"232 193 LINE"
);
}
);
width = 520;
}
);
category = Letter;
},
{
glyphname = Ha_Ma;
lastChange = "2018-01-30 20:22:39 +0000";
layers = (
{
layerId = UUID0;
paths = (
{
closed = 1;
nodes = (
"194 129 LINE",
"264 65 LINE",
"264 270 LINE",
"194 270 LINE"
);
},
{
closed = 1;
nodes = (
"468 0 LINE",
"549 0 LINE",
"549 580 LINE",
"468 580 LINE"
);
},
{
closed = 1;
nodes = (
"0 622 LINE",
"0 551 LINE",
"304 551 LINE",
"304 539 LINE SMOOTH",
"304 514 OFFCURVE",
"248 498 OFFCURVE",
"195 481 CURVE SMOOTH",
"104 452 OFFCURVE",
"40 410 OFFCURVE",
"40 333 CURVE SMOOTH",
"40 250 OFFCURVE",
"105 213 OFFCURVE",
"184 213 CURVE SMOOTH",
"316 213 OFFCURVE",
"451 255 OFFCURVE",
"544 255 CURVE SMOOTH",
"611 255 OFFCURVE",
"619 219 OFFCURVE",
"619 193 CURVE SMOOTH",
"619 0 LINE",
"700 0 LINE",
"700 192 LINE SMOOTH",
"700 279 OFFCURVE",
"659 327 OFFCURVE",
"554 327 CURVE SMOOTH",
"465 327 OFFCURVE",
"305 287 OFFCURVE",
"184 287 CURVE SMOOTH",
"139 287 OFFCURVE",
"120 308 OFFCURVE",
"120 334 CURVE SMOOTH",
"120 378 OFFCURVE",
"172 398 OFFCURVE",
"240 422 CURVE SMOOTH",
"310 447 OFFCURVE",
"385 472 OFFCURVE",
"385 535 CURVE SMOOTH",
"385 551 LINE",
"770 551 LINE",
"770 622 LINE"
);
},
{
closed = 1;
nodes = (
"184 158 OFFCURVE",
"129 129 OFFCURVE",
"129 65 CURVE SMOOTH",
"129 23 OFFCURVE",
"159 -10 OFFCURVE",
"197 -10 CURVE SMOOTH",
"234 -10 OFFCURVE",
"264 23 OFFCURVE",
"264 65 CURVE SMOOTH",
"264 77 OFFCURVE",
"262 87 OFFCURVE",
"258 97 CURVE",
"268 98 OFFCURVE",
"279 99 OFFCURVE",
"292 99 CURVE SMOOTH",
"356 99 OFFCURVE",
"450 66 OFFCURVE",
"469 14 CURVE",
"483 96 LINE",
"423 141 OFFCURVE",
"355 158 OFFCURVE",
"283 158 CURVE SMOOTH"
);
}
);
width = 760;
}
);
category = Letter;
},
{
glyphname = Ha_Ra;
lastChange = "2018-01-30 20:22:39 +0000";
layers = (
{
layerId = UUID0;
paths = (
{
closed = 1;
nodes = (
"0 622 LINE",
"0 551 LINE",
"284 551 LINE",
"284 539 LINE SMOOTH",
"284 515 OFFCURVE",
"232 504 OFFCURVE",
"174 485 CURVE SMOOTH",
"102 462 OFFCURVE",
"20 427 OFFCURVE",
"20 338 CURVE SMOOTH",
"20 262 OFFCURVE",
"76 223 OFFCURVE",
"147 223 CURVE SMOOTH",
"214 223 OFFCURVE",
"268 247 OFFCURVE",
"298 247 CURVE SMOOTH",
"351 247 OFFCURVE",
"359 211 OFFCURVE",
"359 185 CURVE SMOOTH",
"359 0 LINE",
"440 0 LINE",
"440 184 LINE SMOOTH",
"440 271 OFFCURVE",
"399 319 OFFCURVE",
"310 319 CURVE SMOOTH",
"258 319 OFFCURVE",
"225 297 OFFCURVE",
"153 297 CURVE SMOOTH",
"119 297 OFFCURVE",
"100 310 OFFCURVE",
"100 340 CURVE SMOOTH",
"100 382 OFFCURVE",
"141 401 OFFCURVE",
"213 426 CURVE SMOOTH",
"298 455 OFFCURVE",
"365 476 OFFCURVE",
"365 535 CURVE SMOOTH",
"365 551 LINE",
"510 551 LINE",
"510 622 LINE"
);
},
{
closed = 1;
nodes = (
"277 267 LINE",
"196 267 LINE",
"196 0 LINE",
"277 0 LINE"
);
},
{
closed = 1;
nodes = (
"251 132 LINE",
"234 144 OFFCURVE",
"211 152 OFFCURVE",
"186 152 CURVE SMOOTH",
"154 152 OFFCURVE",
"130 127 OFFCURVE",
"100 127 CURVE SMOOTH",
"75 127 OFFCURVE",
"56 136 OFFCURVE",
"42 143 CURVE",
"34 92 LINE",
"51 78 OFFCURVE",
"74 71 OFFCURVE",
"102 71 CURVE SMOOTH",
"134 71 OFFCURVE",
"155 96 OFFCURVE",
"186 96 CURVE SMOOTH",
"211 96 OFFCURVE",
"229 86 OFFCURVE",
"241 70 CURVE"
);
}
);
width = 500;
}
);
category = Letter;
},
{
glyphname = Ha_La;
lastChange = "2018-01-30 20:22:39 +0000";
layers = (
{
layerId = UUID0;
paths = (
{
closed = 1;
nodes = (
"321 136 LINE",
"321 184 OFFCURVE",
"284 220 OFFCURVE",
"230 220 CURVE SMOOTH",
"205 220 OFFCURVE",
"181 209 OFFCURVE",
"163 190 CURVE",
"143 209 OFFCURVE",
"116 220 OFFCURVE",
"91 220 CURVE SMOOTH",
"37 220 OFFCURVE",
"0 184 OFFCURVE",
"0 136 CURVE SMOOTH",
"0 101 OFFCURVE",
"23 63 OFFCURVE",
"51 24 CURVE SMOOTH",
"85 -23 LINE",
"136 12 LINE",
"102 57 LINE SMOOTH",
"84 81 OFFCURVE",
"60 114 OFFCURVE",
"60 132 CURVE SMOOTH",
"60 156 OFFCURVE",
"78 166 OFFCURVE",
"95 166 CURVE SMOOTH",
"117 166 OFFCURVE",
"137 145 OFFCURVE",
"137 111 CURVE",
"191 111 LINE",
"191 145 OFFCURVE",
"208 166 OFFCURVE",
"230 166 CURVE SMOOTH",
"243 166 OFFCURVE",
"261 156 OFFCURVE",
"261 132 CURVE"
);
},
{
closed = 1;
nodes = (
"341 298 LINE",
"260 267 LINE",
"260 0 LINE",
"341 0 LINE"
);
},
{
closed = 1;
nodes = (
"0 622 LINE",
"0 551 LINE",
"313 551 LINE",
"302 530 OFFCURVE",
"253 519 OFFCURVE",
"187 502 CURVE SMOOTH",
"111 482 OFFCURVE",
"31 443 OFFCURVE",
"31 358 CURVE SMOOTH",
"31 289 OFFCURVE",
"89 243 OFFCURVE",
"163 243 CURVE SMOOTH",
"225 243 OFFCURVE",
"299 267 OFFCURVE",
"329 267 CURVE SMOOTH",
"390 267 OFFCURVE",
"410 235 OFFCURVE",
"410 191 CURVE SMOOTH",
"410 0 LINE",
"491 0 LINE",
"491 194 LINE SMOOTH",
"491 291 OFFCURVE",
"440 339 OFFCURVE",
"357 339 CURVE SMOOTH",
"289 339 OFFCURVE",
"236 317 OFFCURVE",
"164 317 CURVE SMOOTH",
"130 317 OFFCURVE",
"111 330 OFFCURVE",
"111 360 CURVE SMOOTH",
"111 406 OFFCURVE",
"155 424 OFFCURVE",
"229 445 CURVE SMOOTH",
"306 467 OFFCURVE",
"392 488 OFFCURVE",
"396 551 CURVE",
"561 551 LINE",
"561 622 LINE"
);
}
);
width = 540;
}
);
category = Letter;
},
{
glyphname = Nga_Ha;
lastChange = "2018-01-30 20:22:39 +0000";
layers = (
{
layerId = UUID0;
paths = (
{
closed = 1;
nodes = (
"140 299 LINE",
"97 282 OFFCURVE",
"60 259 OFFCURVE",
"60 205 CURVE SMOOTH",
"60 130 OFFCURVE",
"115 105 OFFCURVE",
"176 105 CURVE SMOOTH",
"208 105 OFFCURVE",
"234 114 OFFCURVE",
"261 114 CURVE SMOOTH",
"295 114 OFFCURVE",
"300 97 OFFCURVE",
"300 80 CURVE SMOOTH",
"300 46 OFFCURVE",
"282 21 OFFCURVE",
"274 12 CURVE",
"317 -18 LINE",
"329 -7 OFFCURVE",
"367 25 OFFCURVE",
"367 81 CURVE SMOOTH",
"367 134 OFFCURVE",
"336 175 OFFCURVE",
"270 175 CURVE SMOOTH",
"236 175 OFFCURVE",
"206 167 OFFCURVE",
"176 167 CURVE SMOOTH",
"144 167 OFFCURVE",
"127 175 OFFCURVE",
"127 207 CURVE SMOOTH",
"127 226 OFFCURVE",
"144 238 OFFCURVE",
"168 248 CURVE"
);
},
{
closed = 1;
nodes = (
"505 622 LINE",
"0 622 LINE",
"0 551 LINE",
"505 551 LINE"
);
},
{
closed = 1;
nodes = (
"241 597 LINE",
"203 491 OFFCURVE",
"60 459 OFFCURVE",
"60 338 CURVE SMOOTH",
"60 268 OFFCURVE",
"116 228 OFFCURVE",
"179 228 CURVE SMOOTH",
"214 228 OFFCURVE",
"236 243 OFFCURVE",
"252 262 CURVE",
"269 238 OFFCURVE",
"296 228 OFFCURVE",
"319 228 CURVE SMOOTH",
"387 228 OFFCURVE",
"411 273 OFFCURVE",
"411 320 CURVE SMOOTH",
"411 367 OFFCURVE",
"392 414 OFFCURVE",
"322 414 CURVE SMOOTH",
"265 414 OFFCURVE",
"243 377 OFFCURVE",
"226 342 CURVE SMOOTH",
"213 316 OFFCURVE",
"202 294 OFFCURVE",
"176 294 CURVE SMOOTH",
"160 294 OFFCURVE",
"140 310 OFFCURVE",
"140 341 CURVE SMOOTH",
"140 423 OFFCURVE",
"279 481 OFFCURVE",
"313 582 CURVE"
);
},
{
closed = 1;
nodes = (
"337 355 OFFCURVE",
"345 342 OFFCURVE",
"345 322 CURVE SMOOTH",
"345 301 OFFCURVE",
"334 289 OFFCURVE",
"322 289 CURVE SMOOTH",
"310 289 OFFCURVE",
"293 297 OFFCURVE",
"289 325 CURVE",
"297 342 OFFCURVE",
"307 355 OFFCURVE",
"321 355 CURVE SMOOTH"
);
},
{
closed = 1;
nodes = (
"171 2 LINE",
"148 28 OFFCURVE",
"128 51 OFFCURVE",
"128 90 CURVE SMOOTH",
"128 121 OFFCURVE",
"142 138 OFFCURVE",
"142 142 CURVE",
"86 166 LINE",
"73 148 OFFCURVE",
"60 124 OFFCURVE",
"60 94 CURVE SMOOTH",
"60 46 OFFCURVE",
"90 1 OFFCURVE",
"118 -30 CURVE"
);
}
);
width = 495;
}
);
category = Letter;
},
{
glyphname = Nya_Ha;
lastChange = "2018-01-30 20:22:39 +0000";
layers = (
{
layerId = UUID0;
paths = (
{
closed = 1;
nodes = (
"477 287 LINE",
"458 315 OFFCURVE",
"438 338 OFFCURVE",
"422 361 CURVE SMOOTH",
"406 383 OFFCURVE",
"384 399 OFFCURVE",
"368 399 CURVE SMOOTH",
"344 399 OFFCURVE",
"327 385 OFFCURVE",
"327 361 CURVE SMOOTH",
"327 337 OFFCURVE",
"350 317 OFFCURVE",
"374 317 CURVE SMOOTH",
"461 317 OFFCURVE",
"499 354 OFFCURVE",
"499 401 CURVE SMOOTH",
"499 436 OFFCURVE",
"481 469 OFFCURVE",
"422 480 CURVE",
"383 445 LINE",
"417 446 OFFCURVE",
"441 424 OFFCURVE",
"441 404 CURVE SMOOTH",
"441 381 OFFCURVE",
"425 363 OFFCURVE",
"383 363 CURVE",
"373 345 LINE",
"393 323 OFFCURVE",
"415 296 OFFCURVE",
"439 255 CURVE"
);
},
{
closed = 1;
nodes = (
"367 442 LINE",
"417 444 OFFCURVE",
"490 469 OFFCURVE",
"490 527 CURVE SMOOTH",
"490 569 OFFCURVE",
"455 606 OFFCURVE",
"392 606 CURVE SMOOTH",
"348 606 OFFCURVE",
"313 579 OFFCURVE",
"297 562 CURVE",
"317 498 LINE",
"328 529 OFFCURVE",
"352 551 OFFCURVE",
"391 551 CURVE SMOOTH",
"415 551 OFFCURVE",
"432 544 OFFCURVE",
"432 524 CURVE SMOOTH",
"432 503 OFFCURVE",
"416 491 OFFCURVE",
"367 491 CURVE"
);
},
{
closed = 1;
nodes = (
"150 299 LINE",
"107 282 OFFCURVE",
"70 259 OFFCURVE",
"70 205 CURVE SMOOTH",
"70 130 OFFCURVE",
"125 105 OFFCURVE",
"186 105 CURVE SMOOTH",
"218 105 OFFCURVE",
"244 114 OFFCURVE",
"271 114 CURVE SMOOTH",
"305 114 OFFCURVE",
"310 97 OFFCURVE",
"310 80 CURVE SMOOTH",
"310 46 OFFCURVE",
"292 21 OFFCURVE",
"284 12 CURVE",
"337 -18 LINE",
"349 -7 OFFCURVE",
"377 25 OFFCURVE",
"377 81 CURVE SMOOTH",
"377 134 OFFCURVE",
"346 175 OFFCURVE",
"280 175 CURVE SMOOTH",
"246 175 OFFCURVE",
"216 167 OFFCURVE",
"186 167 CURVE SMOOTH",
"154 167 OFFCURVE",
"137 175 OFFCURVE",
"137 207 CURVE SMOOTH",
"137 226 OFFCURVE",
"154 238 OFFCURVE",
"178 248 CURVE"
);
},
{
closed = 1;
nodes = (
"181 2 LINE",
"158 28 OFFCURVE",
"138 51 OFFCURVE",
"138 90 CURVE SMOOTH",
"138 121 OFFCURVE",
"152 138 OFFCURVE",
"152 142 CURVE",
"96 166 LINE",
"83 148 OFFCURVE",
"70 124 OFFCURVE",
"70 94 CURVE SMOOTH",
"70 46 OFFCURVE",
"100 1 OFFCURVE",
"128 -30 CURVE"
);
},
{
closed = 1;
nodes = (
"119 627 OFFCURVE",
"96 584 OFFCURVE",
"96 552 CURVE SMOOTH",
"96 517 OFFCURVE",
"121 489 OFFCURVE",
"152 489 CURVE SMOOTH",
"183 489 OFFCURVE",
"209 517 OFFCURVE",
"209 552 CURVE SMOOTH",
"209 556 OFFCURVE",
"209 561 OFFCURVE",
"208 565 CURVE",
"240 547 OFFCURVE",
"249 504 OFFCURVE",
"249 437 CURVE SMOOTH",
"249 360 OFFCURVE",
"224 305 OFFCURVE",
"176 305 CURVE SMOOTH",
"130 305 OFFCURVE",
"93 355 OFFCURVE",
"73 411 CURVE",
"20 387 LINE",
"49 307 OFFCURVE",
"92 247 OFFCURVE",
"171 247 CURVE SMOOTH",
"259 247 OFFCURVE",
"324 306 OFFCURVE",
"324 437 CURVE SMOOTH",
"324 553 OFFCURVE",
"281 627 OFFCURVE",
"183 627 CURVE SMOOTH"
);
}
);
width = 519;
}
);
category = Letter;
},
{
glyphname = Nna_Ha;
lastChange = "2018-01-30 20:22:39 +0000";
layers = (
{
layerId = UUID0;
paths = (
{
closed = 1;
nodes = (
"360 340 LINE",
"254 329 OFFCURVE",
"200 268 OFFCURVE",
"200 205 CURVE SMOOTH",
"200 130 OFFCURVE",
"255 105 OFFCURVE",
"316 105 CURVE SMOOTH",
"348 105 OFFCURVE",
"374 114 OFFCURVE",
"401 114 CURVE SMOOTH",
"435 114 OFFCURVE",
"440 97 OFFCURVE",
"440 80 CURVE SMOOTH",
"440 46 OFFCURVE",
"422 21 OFFCURVE",
"414 12 CURVE",
"467 -18 LINE",
"479 -7 OFFCURVE",
"507 25 OFFCURVE",
"507 81 CURVE SMOOTH",
"507 134 OFFCURVE",
"476 175 OFFCURVE",
"410 175 CURVE SMOOTH",
"376 175 OFFCURVE",
"346 167 OFFCURVE",
"316 167 CURVE SMOOTH",
"284 167 OFFCURVE",
"267 175 OFFCURVE",
"267 207 CURVE SMOOTH",
"267 235 OFFCURVE",
"290 265 OFFCURVE",
"357 271 CURVE"
);
},
{
closed = 1;
nodes = (
"311 2 LINE",
"288 28 OFFCURVE",
"268 51 OFFCURVE",
"268 90 CURVE SMOOTH",
"268 121 OFFCURVE",
"282 138 OFFCURVE",
"282 142 CURVE",
"226 166 LINE",
"213 148 OFFCURVE",
"200 124 OFFCURVE",
"200 94 CURVE SMOOTH",
"200 46 OFFCURVE",
"230 1 OFFCURVE",
"258 -30 CURVE"
);
},
{
closed = 1;
nodes = (
"433 261 LINE",
"433 622 LINE",
"352 622 LINE",
"352 261 LINE"
);
},
{
closed = 1;
nodes = (
"238 381 LINE",
"225 372 OFFCURVE",
"193 360 OFFCURVE",
"164 360 CURVE SMOOTH",
"138 360 OFFCURVE",
"115 370 OFFCURVE",
"115 400 CURVE SMOOTH",
"115 437 OFFCURVE",
"151 449 OFFCURVE",
"195 452 CURVE",
"195 506 LINE",
"86 506 OFFCURVE",
"40 462 OFFCURVE",
"40 399 CURVE SMOOTH",
"40 332 OFFCURVE",
"81 295 OFFCURVE",
"155 295 CURVE SMOOTH",
"206 295 OFFCURVE",
"247 317 OFFCURVE",
"266 333 CURVE"
);
},
{
closed = 1;
nodes = (
"398 508 LINE",
"355 568 OFFCURVE",
"277 632 OFFCURVE",
"174 632 CURVE SMOOTH",
"119 632 OFFCURVE",
"57 604 OFFCURVE",
"57 544 CURVE SMOOTH",
"57 501 OFFCURVE",
"89 477 OFFCURVE",
"145 471 CURVE",
"195 506 LINE",
"154 506 OFFCURVE",
"132 514 OFFCURVE",
"132 541 CURVE SMOOTH",
"132 563 OFFCURVE",
"158 573 OFFCURVE",
"180 573 CURVE SMOOTH",
"227 573 OFFCURVE",
"323 535 OFFCURVE",
"374 439 CURVE"
);
}
);
width = 557;
}
);
category = Letter;
},
{
glyphname = Na_Ha;
lastChange = "2018-01-30 20:22:39 +0000";
layers = (
{
layerId = UUID0;
paths = (
{
closed = 1;
nodes = (
"310 340 LINE",
"204 329 OFFCURVE",
"150 268 OFFCURVE",
"150 205 CURVE SMOOTH",
"150 130 OFFCURVE",
"205 105 OFFCURVE",
"266 105 CURVE SMOOTH",
"298 105 OFFCURVE",
"324 114 OFFCURVE",
"351 114 CURVE SMOOTH",
"385 114 OFFCURVE",
"390 97 OFFCURVE",
"390 80 CURVE SMOOTH",
"390 46 OFFCURVE",
"372 21 OFFCURVE",
"364 12 CURVE",
"417 -18 LINE",
"429 -7 OFFCURVE",
"457 25 OFFCURVE",
"457 81 CURVE SMOOTH",
"457 134 OFFCURVE",
"426 175 OFFCURVE",
"360 175 CURVE SMOOTH",
"326 175 OFFCURVE",
"296 167 OFFCURVE",
"266 167 CURVE SMOOTH",
"234 167 OFFCURVE",
"217 175 OFFCURVE",
"217 207 CURVE SMOOTH",
"217 235 OFFCURVE",
"240 265 OFFCURVE",
"307 271 CURVE"
);
},
{
closed = 1;
nodes = (
"261 2 LINE",
"238 28 OFFCURVE",
"218 51 OFFCURVE",
"218 90 CURVE SMOOTH",
"218 121 OFFCURVE",
"232 138 OFFCURVE",
"232 142 CURVE",
"176 166 LINE",
"163 148 OFFCURVE",
"150 124 OFFCURVE",
"150 94 CURVE SMOOTH",
"150 46 OFFCURVE",
"180 1 OFFCURVE",
"208 -30 CURVE"
);
},
{
closed = 1;
nodes = (
"383 261 LINE",
"383 602 LINE",
"302 602 LINE",
"302 261 LINE"
);
},
{
closed = 1;
nodes = (
"491 622 LINE",
"0 622 LINE",
"0 551 LINE",
"491 551 LINE"
);
},
{
closed = 1;
nodes = (
"158 511 OFFCURVE",
"40 479 OFFCURVE",
"40 392 CURVE SMOOTH",
"40 350 OFFCURVE",
"67 319 OFFCURVE",
"104 319 CURVE SMOOTH",
"141 319 OFFCURVE",
"170 351 OFFCURVE",
"170 390 CURVE SMOOTH",
"170 404 OFFCURVE",
"166 418 OFFCURVE",
"159 429 CURVE",
"183 440 OFFCURVE",
"214 445 OFFCURVE",
"246 445 CURVE SMOOTH",
"287 445 OFFCURVE",
"312 437 OFFCURVE",
"328 420 CURVE",
"342 491 LINE",
"319 504 OFFCURVE",
"287 511 OFFCURVE",
"249 511 CURVE SMOOTH"
);
}
);
width = 481;
}
);
category = Letter;
},
{
glyphname = Ma_Ha;
lastChange = "2018-01-30 20:22:39 +0000";
layers = (
{
layerId = UUID0;
paths = (
{
closed = 1;
nodes = (
"330 340 LINE",
"224 329 OFFCURVE",
"170 268 OFFCURVE",
"170 205 CURVE SMOOTH",
"170 130 OFFCURVE",
"225 105 OFFCURVE",
"286 105 CURVE SMOOTH",
"318 105 OFFCURVE",
"344 114 OFFCURVE",
"371 114 CURVE SMOOTH",
"405 114 OFFCURVE",
"410 97 OFFCURVE",
"410 80 CURVE SMOOTH",
"410 46 OFFCURVE",
"392 21 OFFCURVE",
"384 12 CURVE",
"437 -18 LINE",
"449 -7 OFFCURVE",
"477 25 OFFCURVE",
"477 81 CURVE SMOOTH",
"477 134 OFFCURVE",
"446 175 OFFCURVE",
"380 175 CURVE SMOOTH",
"346 175 OFFCURVE",
"316 167 OFFCURVE",
"286 167 CURVE SMOOTH",
"254 167 OFFCURVE",
"237 175 OFFCURVE",
"237 207 CURVE SMOOTH",
"237 235 OFFCURVE",
"260 265 OFFCURVE",
"327 271 CURVE"
);
},
{
closed = 1;
nodes = (
"281 2 LINE",
"258 28 OFFCURVE",
"238 51 OFFCURVE",
"238 90 CURVE SMOOTH",
"238 121 OFFCURVE",
"252 138 OFFCURVE",
"252 142 CURVE",
"196 166 LINE",
"183 148 OFFCURVE",
"170 124 OFFCURVE",
"170 94 CURVE SMOOTH",
"170 46 OFFCURVE",
"200 1 OFFCURVE",
"228 -30 CURVE"
);
},
{
closed = 1;
nodes = (
"403 261 LINE",
"403 602 LINE",
"322 602 LINE",
"322 261 LINE"
);
},
{
closed = 1;
nodes = (
"511 622 LINE",
"0 622 LINE",
"0 551 LINE",
"511 551 LINE"
);
},
{
closed = 1;
nodes = (
"358 377 LINE",
"287 432 OFFCURVE",
"171 442 OFFCURVE",
"97 448 CURVE",
"120 374 LINE",
"159 378 OFFCURVE",
"293 358 OFFCURVE",
"331 314 CURVE"
);
},
{
closed = 1;
nodes = (
"30 338 OFFCURVE",
"57 306 OFFCURVE",
"94 306 CURVE SMOOTH",
"131 306 OFFCURVE",
"160 338 OFFCURVE",
"160 377 CURVE SMOOTH",
"160 416 OFFCURVE",
"131 448 OFFCURVE",
"94 448 CURVE SMOOTH",
"57 448 OFFCURVE",
"30 416 OFFCURVE",
"30 377 CURVE SMOOTH"
);
},
{
closed = 1;
nodes = (
"163 398 LINE",
"163 602 LINE",
"87 602 LINE",
"87 398 LINE"
);
}
);
width = 501;
}
);
category = Letter;
},
{
glyphname = Ra_Ha;
lastChange = "2018-01-30 20:22:39 +0000";
layers = (
{
layerId = UUID0;
paths = (
{
closed = 1;
nodes = (
"320 388 LINE",
"295 404 OFFCURVE",
"262 413 OFFCURVE",
"227 413 CURVE SMOOTH",
"180 413 OFFCURVE",
"146 383 OFFCURVE",
"102 383 CURVE SMOOTH",
"65 383 OFFCURVE",
"41 393 OFFCURVE",
"22 403 CURVE",
"7 337 LINE",
"32 321 OFFCURVE",
"65 312 OFFCURVE",
"106 312 CURVE SMOOTH",
"152 312 OFFCURVE",
"181 342 OFFCURVE",
"227 342 CURVE SMOOTH",
"261 342 OFFCURVE",
"289 330 OFFCURVE",
"304 310 CURVE"
);
},
{
closed = 1;
nodes = (
"0 622 LINE",
"0 551 LINE",
"518 551 LINE",
"518 539 LINE SMOOTH",
"518 416 OFFCURVE",
"234 463 OFFCURVE",
"234 297 CURVE SMOOTH",
"234 196 OFFCURVE",
"309 162 OFFCURVE",
"391 162 CURVE SMOOTH",
"444 162 OFFCURVE",
"482 174 OFFCURVE",
"512 174 CURVE SMOOTH",
"565 174 OFFCURVE",
"574 146 OFFCURVE",
"574 120 CURVE SMOOTH",
"574 69 OFFCURVE",
"548 35 OFFCURVE",
"537 22 CURVE",
"599 -11 LINE",
"610 0 OFFCURVE",
"654 47 OFFCURVE",
"654 122 CURVE SMOOTH",
"654 192 OFFCURVE",
"613 246 OFFCURVE",
"524 246 CURVE SMOOTH",
"472 246 OFFCURVE",
"439 236 OFFCURVE",
"391 236 CURVE SMOOTH",
"342 236 OFFCURVE",
"314 248 OFFCURVE",
"314 299 CURVE SMOOTH",
"314 402 OFFCURVE",
"599 364 OFFCURVE",
"599 537 CURVE SMOOTH",
"599 551 LINE",
"699 551 LINE",
"699 622 LINE"
);
},
{
closed = 1;
nodes = (
"376 16 LINE",
"343 53 OFFCURVE",
"316 84 OFFCURVE",
"316 138 CURVE SMOOTH",
"316 181 OFFCURVE",
"335 205 OFFCURVE",
"336 211 CURVE",
"271 244 LINE",
"254 219 OFFCURVE",
"236 185 OFFCURVE",
"236 144 CURVE SMOOTH",
"236 77 OFFCURVE",
"277 15 OFFCURVE",
"316 -28 CURVE"
);
}
);
width = 689;
}
);
category = Letter;
},
{
glyphname = La_Ha;
lastChange = "2018-01-30 20:22:39 +0000";
layers = (
{
layerId = UUID0;
paths = (
{
closed = 1;
nodes = (
"342 340 LINE",
"236 329 OFFCURVE",
"182 268 OFFCURVE",
"182 205 CURVE SMOOTH",
"182 130 OFFCURVE",
"237 105 OFFCURVE",
"298 105 CURVE SMOOTH",
"330 105 OFFCURVE",
"356 114 OFFCURVE",
"383 114 CURVE SMOOTH",
"417 114 OFFCURVE",
"422 97 OFFCURVE",
"422 80 CURVE SMOOTH",
"422 46 OFFCURVE",
"404 21 OFFCURVE",
"396 12 CURVE",
"449 -18 LINE",
"461 -7 OFFCURVE",
"489 25 OFFCURVE",
"489 81 CURVE SMOOTH",
"489 134 OFFCURVE",
"458 175 OFFCURVE",
"392 175 CURVE SMOOTH",
"358 175 OFFCURVE",
"328 167 OFFCURVE",
"298 167 CURVE SMOOTH",
"266 167 OFFCURVE",
"249 175 OFFCURVE",
"249 207 CURVE SMOOTH",
"249 235 OFFCURVE",
"272 265 OFFCURVE",
"339 271 CURVE"
);
},
{
closed = 1;
nodes = (
"293 2 LINE",
"270 28 OFFCURVE",
"250 51 OFFCURVE",
"250 90 CURVE SMOOTH",
"250 121 OFFCURVE",
"264 138 OFFCURVE",
"264 142 CURVE",
"208 166 LINE",
"195 148 OFFCURVE",
"182 124 OFFCURVE",
"182 94 CURVE SMOOTH",
"182 46 OFFCURVE",
"212 1 OFFCURVE",
"240 -30 CURVE"
);
},
{
closed = 1;
nodes = (
"415 261 LINE",
"415 602 LINE",
"334 602 LINE",
"334 261 LINE"
);
},
{
closed = 1;
nodes = (
"523 622 LINE",
"0 622 LINE",
"0 551 LINE",
"523 551 LINE"
);
},
{
closed = 1;
nodes = (
"405 426 LINE",
"405 482 OFFCURVE",
"361 524 OFFCURVE",
"299 524 CURVE SMOOTH",
"270 524 OFFCURVE",
"242 511 OFFCURVE",
"221 489 CURVE",
"197 511 OFFCURVE",
"166 524 OFFCURVE",
"137 524 CURVE SMOOTH",
"74 524 OFFCURVE",
"31 482 OFFCURVE",
"31 426 CURVE SMOOTH",
"31 385 OFFCURVE",
"58 341 OFFCURVE",
"90 296 CURVE SMOOTH",
"123 250 LINE",
"182 291 LINE",
"150 334 LINE SMOOTH",
"129 362 OFFCURVE",
"101 400 OFFCURVE",
"101 421 CURVE SMOOTH",
"101 449 OFFCURVE",
"122 461 OFFCURVE",
"142 461 CURVE SMOOTH",
"167 461 OFFCURVE",
"190 436 OFFCURVE",
"190 397 CURVE",
"253 397 LINE",
"253 436 OFFCURVE",
"273 461 OFFCURVE",
"299 461 CURVE SMOOTH",
"314 461 OFFCURVE",
"335 449 OFFCURVE",
"335 421 CURVE"
);
}
);
width = 507;
}
);
category = Letter;
},
{
glyphname = Bha.alt;
lastChange = "2018-01-30 20:22:39 +0000";
layers = (
{
layerId = UUID0;
paths = (
{
closed = 1;
nodes = (
"269 362 LINE",
"269 419 OFFCURVE",
"280 506 OFFCURVE",
"342 506 CURVE SMOOTH",
"378 506 OFFCURVE",
"403 483 OFFCURVE",
"403 426 CURVE SMOOTH",
"403 0 LINE",
"484 0 LINE",
"484 429 LINE SMOOTH",
"484 509 OFFCURVE",
"452 574 OFFCURVE",
"347 574 CURVE SMOOTH",
"258 574 OFFCURVE",
"203 517 OFFCURVE",
"192 417 CURVE"
);
},
{
closed = 1;
nodes = (
"213 298 LINE",
"269 362 LINE",
"114 508 LINE",
"55 451 LINE"
);
},
{
closed = 1;
nodes = (
"574 622 LINE",
"0 622 LINE",
"0 551 LINE",
"574 551 LINE"
);
}
);
width = 564;
}
);
category = Letter;
},
{
glyphname = Ha.alt;
lastChange = "2018-01-30 20:22:39 +0000";
layers = (
{
layerId = UUID0;
paths = (
{
closed = 1;
nodes = (
"0 622 LINE",
"0 551 LINE",
"322 551 LINE",
"296 504 OFFCURVE",
"40 510 OFFCURVE",
"40 358 CURVE SMOOTH",
"40 280 OFFCURVE",
"115 243 OFFCURVE",
"167 243 CURVE SMOOTH",
"234 243 OFFCURVE",
"308 267 OFFCURVE",
"338 267 CURVE SMOOTH",
"399 267 OFFCURVE",
"419 235 OFFCURVE",
"419 191 CURVE SMOOTH",
"419 0 LINE",
"500 0 LINE",
"500 194 LINE SMOOTH",
"500 291 OFFCURVE",
"449 339 OFFCURVE",
"366 339 CURVE SMOOTH",
"298 339 OFFCURVE",
"245 317 OFFCURVE",
"173 317 CURVE SMOOTH",
"139 317 OFFCURVE",
"120 330 OFFCURVE",
"120 360 CURVE SMOOTH",
"120 462 OFFCURVE",
"398 437 OFFCURVE",
"405 551 CURVE",
"570 551 LINE",
"570 622 LINE"
);
},
{
closed = 1;
nodes = (
"316 0 LINE",
"316 296 LINE",
"235 296 LINE",
"235 0 LINE"
);
}
);
width = 560;
}
);
category = Letter;
},
{
glyphname = Ju;
lastChange = "2018-01-30 20:22:39 +0000";
layers = (
{
layerId = UUID0;
paths = (
{
closed = 1;
nodes = (
"496 -63 LINE",
"451 1 OFFCURVE",
"388 81 OFFCURVE",
"315 134 CURVE",
"336 159 OFFCURVE",
"350 191 OFFCURVE",
"350 232 CURVE SMOOTH",
"350 326 OFFCURVE",
"297 378 OFFCURVE",
"202 397 CURVE",
"258 432 OFFCURVE",
"331 507 OFFCURVE",
"350 570 CURVE",
"269 555 LINE",
"225 492 OFFCURVE",
"181 443 OFFCURVE",
"100 402 CURVE",
"95 345 LINE",
"191 345 OFFCURVE",
"274 330 OFFCURVE",
"274 235 CURVE SMOOTH",
"274 208 OFFCURVE",
"267 187 OFFCURVE",
"255 171 CURVE",
"223 187 OFFCURVE",
"189 196 OFFCURVE",
"156 196 CURVE SMOOTH",
"110 196 OFFCURVE",
"69 169 OFFCURVE",
"69 123 CURVE SMOOTH",
"69 78 OFFCURVE",
"107 58 OFFCURVE",
"153 58 CURVE SMOOTH",
"187 58 OFFCURVE",
"226 69 OFFCURVE",
"256 91 CURVE",
"328 48 OFFCURVE",
"391 -29 OFFCURVE",
"438 -102 CURVE"
);
},
{
closed = 1;
nodes = (
"578 342 LINE SMOOTH",
"578 453 OFFCURVE",
"427 540 OFFCURVE",
"346 587 CURVE",
"305 534 LINE",
"369 495 OFFCURVE",
"497 419 OFFCURVE",
"497 339 CURVE SMOOTH",
"497 0 LINE",
"578 0 LINE"
);
},
{
closed = 1;
nodes = (
"672 622 LINE",
"0 622 LINE",
"0 551 LINE",
"672 551 LINE"
);
}
);
width = 662;
}
);
category = Letter;
},
{
glyphname = Juu;
lastChange = "2018-01-30 20:22:39 +0000";
layers = (
{
layerId = UUID0;
paths = (
{
closed = 1;
nodes = (
"456 22 LINE",
"357 156 OFFCURVE",
"260 212 OFFCURVE",
"175 212 CURVE SMOOTH",
"100 212 OFFCURVE",
"51 164 OFFCURVE",
"51 101 CURVE SMOOTH",
"51 36 OFFCURVE",
"103 -3 OFFCURVE",
"174 -3 CURVE SMOOTH",
"295 -3 OFFCURVE",
"361 100 OFFCURVE",
"361 208 CURVE SMOOTH",
"361 311 OFFCURVE",
"293 369 OFFCURVE",
"202 387 CURVE",
"258 422 OFFCURVE",
"331 507 OFFCURVE",
"350 570 CURVE",
"269 552 LINE",
"221 489 OFFCURVE",
"169 433 OFFCURVE",
"89 392 CURVE",
"84 335 LINE",
"177 335 OFFCURVE",
"280 316 OFFCURVE",
"280 207 CURVE SMOOTH",
"280 107 OFFCURVE",
"227 66 OFFCURVE",
"174 66 CURVE SMOOTH",
"142 66 OFFCURVE",
"124 80 OFFCURVE",
"124 105 CURVE SMOOTH",
"124 127 OFFCURVE",
"143 142 OFFCURVE",
"173 142 CURVE SMOOTH",
"244 142 OFFCURVE",
"329 67 OFFCURVE",
"397 -27 CURVE"
);
},
{
closed = 1;
nodes = (
"578 342 LINE SMOOTH",
"578 453 OFFCURVE",
"427 540 OFFCURVE",
"346 587 CURVE",
"305 534 LINE",
"369 495 OFFCURVE",
"497 419 OFFCURVE",
"497 339 CURVE SMOOTH",
"497 0 LINE",
"578 0 LINE"
);
},
{
closed = 1;
nodes = (
"672 622 LINE",
"0 622 LINE",
"0 551 LINE",
"672 551 LINE"
);
}
);
width = 662;
}
);
category = Letter;
},
{
glyphname = Ru;
lastChange = "2018-01-30 20:22:39 +0000";
layers = (
{
layerId = UUID0;
paths = (
{
closed = 1;
nodes = (
"90 307 LINE",
"113 297 OFFCURVE",
"142 292 OFFCURVE",
"176 292 CURVE SMOOTH",
"226 292 OFFCURVE",
"257 323 OFFCURVE",
"306 323 CURVE SMOOTH",
"343 323 OFFCURVE",
"372 310 OFFCURVE",
"389 290 CURVE",
"406 369 LINE",
"379 386 OFFCURVE",
"344 395 OFFCURVE",
"306 395 CURVE SMOOTH",
"256 395 OFFCURVE",
"219 364 OFFCURVE",
"172 364 CURVE SMOOTH",
"144 364 OFFCURVE",
"123 370 OFFCURVE",
"105 377 CURVE"
);
},
{
closed = 1;
nodes = (
"436 0 LINE",
"436 551 LINE",
"750 551 LINE",
"750 622 LINE",
"0 622 LINE",
"0 551 LINE",
"355 551 LINE",
"355 0 LINE"
);
},
{
closed = 1;
nodes = (
"428 300 LINE",
"456 314 OFFCURVE",
"483 324 OFFCURVE",
"519 324 CURVE SMOOTH",
"560 324 OFFCURVE",
"599 304 OFFCURVE",
"599 260 CURVE SMOOTH",
"599 212 OFFCURVE",
"564 186 OFFCURVE",
"493 186 CURVE",
"493 120 LINE",
"594 120 OFFCURVE",
"676 172 OFFCURVE",
"676 253 CURVE SMOOTH",
"676 337 OFFCURVE",
"632 395 OFFCURVE",
"519 395 CURVE SMOOTH",
"482 395 OFFCURVE",
"437 385 OFFCURVE",
"402 370 CURVE"
);
},
{
closed = 1;
nodes = (
"650 -33 LINE",
"700 21 LINE",
"547 171 LINE",
"492 120 LINE"
);
}
);
width = 740;
}
);
category = Letter;
},
{
glyphname = Ruu;
lastChange = "2018-01-30 20:22:39 +0000";
layers = (
{
layerId = UUID0;
paths = (
{
closed = 1;
nodes = (
"436 0 LINE",
"436 551 LINE",
"792 551 LINE",
"792 622 LINE",
"0 622 LINE",
"0 551 LINE",
"355 551 LINE",
"355 0 LINE"
);
},
{
closed = 1;
nodes = (
"723 91 LINE SMOOTH",
"674 194 OFFCURVE",
"630 243 OFFCURVE",
"563 243 CURVE SMOOTH",
"513 243 OFFCURVE",
"472 212 OFFCURVE",
"472 153 CURVE SMOOTH",
"472 97 OFFCURVE",
"517 62 OFFCURVE",
"578 62 CURVE SMOOTH",
"662 62 OFFCURVE",
"729 140 OFFCURVE",
"729 240 CURVE SMOOTH",
"729 319 OFFCURVE",
"674 393 OFFCURVE",
"558 393 CURVE SMOOTH",
"521 393 OFFCURVE",
"471 388 OFFCURVE",
"417 372 CURVE",
"428 303 LINE",
"478 319 OFFCURVE",
"520 325 OFFCURVE",
"552 325 CURVE SMOOTH",
"618 325 OFFCURVE",
"652 287 OFFCURVE",
"652 243 CURVE SMOOTH",
"652 167 OFFCURVE",
"618 127 OFFCURVE",
"578 127 CURVE SMOOTH",
"552 127 OFFCURVE",
"544 143 OFFCURVE",
"544 153 CURVE SMOOTH",
"544 166 OFFCURVE",
"557 175 OFFCURVE",
"570 175 CURVE SMOOTH",
"602 175 OFFCURVE",
"627 130 OFFCURVE",
"657 68 CURVE SMOOTH",
"696 -13 LINE",
"759 16 LINE"
);
},
{
closed = 1;
nodes = (
"90 307 LINE",
"113 297 OFFCURVE",
"142 292 OFFCURVE",
"176 292 CURVE SMOOTH",
"226 292 OFFCURVE",
"257 323 OFFCURVE",
"306 323 CURVE SMOOTH",
"343 323 OFFCURVE",
"372 310 OFFCURVE",
"389 290 CURVE",
"406 369 LINE",
"379 386 OFFCURVE",
"344 395 OFFCURVE",
"306 395 CURVE SMOOTH",
"256 395 OFFCURVE",
"219 364 OFFCURVE",
"172 364 CURVE SMOOTH",
"144 364 OFFCURVE",
"123 370 OFFCURVE",
"105 377 CURVE"
);
}
);
width = 782;
}
);
category = Letter;
},
{
glyphname = Ka.icd;
lastChange = "2018-01-30 20:22:39 +0000";
layers = (
{
layerId = UUID0;
paths = (
{
closed = 1;
nodes = (
"680 622 LINE",
"0 622 LINE",
"0 551 LINE",
"680 551 LINE"
);
},
{
closed = 1;
nodes = (
"346 445 LINE SMOOTH",
"488 445 OFFCURVE",
"509 371 OFFCURVE",
"509 278 CURVE SMOOTH",
"509 -100 LINE",
"590 -100 LINE",
"590 280 LINE SMOOTH",
"590 426 OFFCURVE",
"526 510 OFFCURVE",
"346 510 CURVE SMOOTH",
"305 510 LINE SMOOTH",
"174 510 OFFCURVE",
"78 460 OFFCURVE",
"78 368 CURVE SMOOTH",
"78 294 OFFCURVE",
"131 261 OFFCURVE",
"196 261 CURVE SMOOTH",
"257 261 OFFCURVE",
"318 297 OFFCURVE",
"341 338 CURVE",
"306 392 LINE",
"289 353 OFFCURVE",
"237 327 OFFCURVE",
"200 327 CURVE SMOOTH",
"173 327 OFFCURVE",
"153 338 OFFCURVE",
"153 370 CURVE SMOOTH",
"153 409 OFFCURVE",
"215 445 OFFCURVE",
"301 445 CURVE SMOOTH"
);
},
{
closed = 1;
nodes = (
"294 250 LINE",
"375 250 LINE",
"375 570 LINE",
"294 570 LINE"
);
}
);
width = 670;
}
);
category = Letter;
},
{
glyphname = Ka.cd;
lastChange = "2018-01-30 20:22:39 +0000";
layers = (
{
layerId = UUID0;
paths = (
{
closed = 1;
nodes = (
"-100 -89 LINE",
"-93 -58 OFFCURVE",
"-88 -30 OFFCURVE",
"-88 -4 CURVE SMOOTH",
"-88 116 OFFCURVE",
"-154 181 OFFCURVE",
"-274 181 CURVE SMOOTH",
"-391 181 OFFCURVE",
"-458 125 OFFCURVE",
"-458 50 CURVE SMOOTH",
"-458 -17 OFFCURVE",
"-403 -51 OFFCURVE",
"-352 -51 CURVE SMOOTH",
"-323 -51 OFFCURVE",
"-290 -41 OFFCURVE",
"-274 -26 CURVE",
"-282 37 LINE",
"-299 22 OFFCURVE",
"-322 13 OFFCURVE",
"-342 13 CURVE SMOOTH",
"-368 13 OFFCURVE",
"-389 22 OFFCURVE",
"-389 52 CURVE SMOOTH",
"-389 88 OFFCURVE",
"-353 116 OFFCURVE",
"-278 116 CURVE SMOOTH",
"-191 116 OFFCURVE",
"-158 76 OFFCURVE",
"-158 -2 CURVE SMOOTH",
"-158 -21 OFFCURVE",
"-163 -53 OFFCURVE",
"-168 -71 CURVE"
);
},
{
closed = 1;
nodes = (
"-296 -100 LINE",
"-215 -100 LINE",
"-215 270 LINE",
"-296 270 LINE"
);
}
);
width = 0;
}
);
category = Mark;
},
{
glyphname = Kha.icd;
lastChange = "2018-01-30 20:22:39 +0000";
layers = (
{
layerId = UUID0;
paths = (
{
closed = 1;
nodes = (
"631 551 LINE",
"631 622 LINE",
"273 622 LINE",
"273 551 LINE",
"460 551 LINE",
"460 250 LINE",
"541 250 LINE",
"541 551 LINE"
);
},
{
closed = 1;
nodes = (
"500 422 LINE",
"484 402 OFFCURVE",
"453 387 OFFCURVE",
"412 387 CURVE SMOOTH",
"376 387 OFFCURVE",
"360 400 OFFCURVE",
"360 420 CURVE SMOOTH",
"360 435 OFFCURVE",
"375 455 OFFCURVE",
"416 455 CURVE SMOOTH",
"431 455 OFFCURVE",
"448 452 OFFCURVE",
"460 449 CURVE",
"467 511 LINE",
"454 515 OFFCURVE",
"424 518 OFFCURVE",
"409 518 CURVE SMOOTH",
"338 518 OFFCURVE",
"290 480 OFFCURVE",
"290 423 CURVE SMOOTH",
"290 360 OFFCURVE",
"338 324 OFFCURVE",
"402 324 CURVE SMOOTH",
"447 324 OFFCURVE",
"480 337 OFFCURVE",
"500 353 CURVE"
);
},
{
closed = 1;
nodes = (
"247 250 LINE",
"212 364 OFFCURVE",
"157 390 OFFCURVE",
"119 403 CURVE",
"174 417 OFFCURVE",
"223 444 OFFCURVE",
"223 520 CURVE SMOOTH",
"223 551 OFFCURVE",
"210 571 OFFCURVE",
"198 587 CURVE",
"117 576 LINE",
"137 564 OFFCURVE",
"148 541 OFFCURVE",
"148 520 CURVE SMOOTH",
"148 476 OFFCURVE",
"128 438 OFFCURVE",
"40 435 CURVE",
"34 383 LINE",
"95 364 OFFCURVE",
"139 340 OFFCURVE",
"171 250 CURVE"
);
},
{
closed = 1;
nodes = (
"428 622 LINE",
"0 622 LINE",
"0 551 LINE",
"428 551 LINE"
);
},
{
closed = 0;
nodes = (
"801 250 LINE"
);
}
);
width = 621;
}
);
category = Letter;
},
{
glyphname = Kha.cd;
lastChange = "2018-01-30 20:22:39 +0000";
layers = (
{
layerId = UUID0;
paths = (
{
closed = 1;
nodes = (
"74 188 LINE",
"118 186 OFFCURVE",
"148 167 OFFCURVE",
"148 137 CURVE SMOOTH",
"148 107 OFFCURVE",
"128 78 OFFCURVE",
"40 75 CURVE",
"34 23 LINE",
"95 4 OFFCURVE",
"139 -10 OFFCURVE",
"171 -100 CURVE",
"247 -100 LINE",
"212 14 OFFCURVE",
"157 30 OFFCURVE",
"119 43 CURVE",
"185 61 OFFCURVE",
"223 95 OFFCURVE",
"223 144 CURVE SMOOTH",
"223 189 OFFCURVE",
"192 215 OFFCURVE",
"155 232 CURVE",
"155 260 LINE",
"74 260 LINE"
);
},
{
closed = 1;
nodes = (
"308 622 LINE",
"0 622 LINE",
"0 551 LINE",
"308 551 LINE"
);
},
{
closed = 1;
nodes = (
"460 62 LINE",
"444 42 OFFCURVE",
"413 27 OFFCURVE",
"372 27 CURVE SMOOTH",
"336 27 OFFCURVE",
"320 40 OFFCURVE",
"320 60 CURVE SMOOTH",
"320 75 OFFCURVE",
"335 95 OFFCURVE",
"376 95 CURVE SMOOTH",
"391 95 OFFCURVE",
"408 92 OFFCURVE",
"420 89 CURVE",
"427 151 LINE",
"414 155 OFFCURVE",
"384 158 OFFCURVE",
"369 158 CURVE SMOOTH",
"298 158 OFFCURVE",
"250 120 OFFCURVE",
"250 63 CURVE SMOOTH",
"250 0 OFFCURVE",
"298 -36 OFFCURVE",
"362 -36 CURVE SMOOTH",
"407 -36 OFFCURVE",
"440 -23 OFFCURVE",
"460 -7 CURVE"
);
},
{
closed = 1;
nodes = (
"581 551 LINE",
"581 622 LINE",
"223 622 LINE",
"223 551 LINE",
"410 551 LINE",
"410 -100 LINE",
"491 -100 LINE",
"491 551 LINE"
);
}
);
width = 571;
}
);
category = Letter;
},
{
glyphname = Kha.half;
lastChange = "2018-01-30 20:22:39 +0000";
layers = (
{
layerId = UUID0;
paths = (
{
closed = 1;
nodes = (
"575 396 OFFCURVE",
"517 468 OFFCURVE",
"414 468 CURVE SMOOTH",
"309 468 OFFCURVE",
"249 397 OFFCURVE",
"249 314 CURVE SMOOTH",
"249 221 OFFCURVE",
"311 159 OFFCURVE",
"411 159 CURVE SMOOTH",
"513 159 OFFCURVE",
"575 221 OFFCURVE",
"575 314 CURVE SMOOTH"
);
},
{
closed = 1;
nodes = (
"661 551 LINE",
"661 622 LINE",
"0 622 LINE",
"0 551 LINE"
);
},
{
closed = 1;
nodes = (
"494 257 OFFCURVE",
"467 227 OFFCURVE",
"415 227 CURVE SMOOTH",
"360 227 OFFCURVE",
"330 254 OFFCURVE",
"330 311 CURVE SMOOTH",
"330 365 OFFCURVE",
"354 399 OFFCURVE",
"412 399 CURVE SMOOTH",
"469 399 OFFCURVE",
"494 365 OFFCURVE",
"494 311 CURVE SMOOTH"
);
},
{
closed = 1;
nodes = (
"275 0 LINE",
"229 210 OFFCURVE",
"149 276 OFFCURVE",
"95 298 CURVE",
"169 321 OFFCURVE",
"233 362 OFFCURVE",
"233 481 CURVE SMOOTH",
"233 531 OFFCURVE",
"216 561 OFFCURVE",
"200 587 CURVE",
"110 569 LINE",
"137 551 OFFCURVE",
"152 516 OFFCURVE",
"152 482 CURVE SMOOTH",
"152 413 OFFCURVE",
"125 352 OFFCURVE",
"8 347 CURVE",
"0 276 LINE",
"89 244 OFFCURVE",
"145 181 OFFCURVE",
"194 0 CURVE"
);
}
);
width = 651;
}
);
category = Letter;
},
{
glyphname = Ga.icd;
lastChange = "2018-01-30 20:22:39 +0000";
layers = (
{
layerId = UUID0;
paths = (
{
closed = 1;
nodes = (
"344 568 LINE",
"319 588 OFFCURVE",
"283 605 OFFCURVE",
"229 605 CURVE SMOOTH",
"144 605 OFFCURVE",
"76 569 OFFCURVE",
"61 460 CURVE",
"123 458 OFFCURVE",
"176 449 OFFCURVE",
"176 398 CURVE SMOOTH",
"176 365 OFFCURVE",
"151 347 OFFCURVE",
"121 347 CURVE SMOOTH",
"100 347 OFFCURVE",
"82 354 OFFCURVE",
"54 365 CURVE",
"30 303 LINE",
"65 285 OFFCURVE",
"97 279 OFFCURVE",
"122 279 CURVE SMOOTH",
"194 279 OFFCURVE",
"246 327 OFFCURVE",
"246 400 CURVE SMOOTH",
"246 475 OFFCURVE",
"196 498 OFFCURVE",
"149 510 CURVE",
"166 530 OFFCURVE",
"201 539 OFFCURVE",
"232 539 CURVE SMOOTH",
"278 539 OFFCURVE",
"322 515 OFFCURVE",
"344 487 CURVE"
);
},
{
closed = 1;
nodes = (
"306 250 LINE",
"387 250 LINE",
"387 622 LINE",
"306 622 LINE"
);
}
);
width = 463;
}
);
category = Letter;
},
{
glyphname = Ga.cd;
lastChange = "2018-01-30 20:22:39 +0000";
layers = (
{
layerId = UUID0;
paths = (
{
closed = 1;
nodes = (
"-123 188 LINE",
"-148 208 OFFCURVE",
"-184 225 OFFCURVE",
"-238 225 CURVE SMOOTH",
"-323 225 OFFCURVE",
"-391 189 OFFCURVE",
"-406 80 CURVE",
"-344 78 OFFCURVE",
"-291 69 OFFCURVE",
"-291 18 CURVE SMOOTH",
"-291 -15 OFFCURVE",
"-316 -33 OFFCURVE",
"-346 -33 CURVE SMOOTH",
"-367 -33 OFFCURVE",
"-385 -26 OFFCURVE",
"-413 -15 CURVE",
"-437 -77 LINE",
"-402 -95 OFFCURVE",
"-370 -101 OFFCURVE",
"-345 -101 CURVE SMOOTH",
"-273 -101 OFFCURVE",
"-221 -53 OFFCURVE",
"-221 20 CURVE SMOOTH",
"-221 95 OFFCURVE",
"-271 118 OFFCURVE",
"-318 130 CURVE",
"-301 150 OFFCURVE",
"-266 159 OFFCURVE",
"-235 159 CURVE SMOOTH",
"-189 159 OFFCURVE",
"-145 135 OFFCURVE",
"-123 107 CURVE"
);
},
{
closed = 1;
nodes = (
"-161 -100 LINE",
"-80 -100 LINE",
"-80 270 LINE",
"-161 270 LINE"
);
}
);
width = 0;
}
);
category = Mark;
},
{
glyphname = Ga.half;
lastChange = "2018-01-30 20:22:39 +0000";
layers = (
{
layerId = UUID0;
paths = (
{
closed = 1;
nodes = (
"418 626 LINE",
"386 639 OFFCURVE",
"343 649 OFFCURVE",
"294 649 CURVE SMOOTH",
"174 649 OFFCURVE",
"74 599 OFFCURVE",
"53 444 CURVE",
"149 444 OFFCURVE",
"229 414 OFFCURVE",
"229 328 CURVE SMOOTH",
"229 267 OFFCURVE",
"186 236 OFFCURVE",
"131 236 CURVE SMOOTH",
"97 236 OFFCURVE",
"68 246 OFFCURVE",
"37 261 CURVE",
"10 189 LINE",
"51 171 OFFCURVE",
"87 163 OFFCURVE",
"133 163 CURVE SMOOTH",
"232 163 OFFCURVE",
"305 229 OFFCURVE",
"305 331 CURVE SMOOTH",
"305 447 OFFCURVE",
"222 496 OFFCURVE",
"150 507 CURVE",
"164 557 OFFCURVE",
"236 578 OFFCURVE",
"292 578 CURVE SMOOTH",
"333 578 OFFCURVE",
"386 567 OFFCURVE",
"418 549 CURVE"
);
}
);
width = 408;
}
);
category = Letter;
},
{
glyphname = Gha.icd;
lastChange = "2018-01-30 20:22:39 +0000";
layers = (
{
layerId = UUID0;
paths = (
{
closed = 1;
nodes = (
"235 476 LINE",
"159 474 OFFCURVE",
"93 445 OFFCURVE",
"93 365 CURVE SMOOTH",
"93 305 OFFCURVE",
"137 267 OFFCURVE",
"217 267 CURVE SMOOTH",
"262 267 OFFCURVE",
"306 282 OFFCURVE",
"335 301 CURVE",
"335 376 LINE",
"313 350 OFFCURVE",
"268 332 OFFCURVE",
"228 332 CURVE SMOOTH",
"195 332 OFFCURVE",
"168 340 OFFCURVE",
"168 369 CURVE SMOOTH",
"168 401 OFFCURVE",
"195 418 OFFCURVE",
"235 419 CURVE"
);
},
{
closed = 1;
nodes = (
"210 474 LINE",
"166 474 OFFCURVE",
"142 487 OFFCURVE",
"142 525 CURVE SMOOTH",
"142 548 OFFCURVE",
"152 570 OFFCURVE",
"170 581 CURVE",
"103 604 LINE",
"80 587 OFFCURVE",
"67 558 OFFCURVE",
"67 518 CURVE SMOOTH",
"67 473 OFFCURVE",
"105 431 OFFCURVE",
"151 421 CURVE"
);
},
{
closed = 1;
nodes = (
"410 250 LINE",
"410 551 LINE",
"500 551 LINE",
"500 622 LINE",
"0 622 LINE",
"0 551 LINE",
"329 551 LINE",
"329 250 LINE"
);
}
);
width = 490;
}
);
category = Letter;
},
{
glyphname = Gha.cd;
lastChange = "2018-01-30 20:22:39 +0000";
layers = (
{
layerId = UUID0;
paths = (
{
closed = 1;
nodes = (
"99 240 LINE",
"79 223 OFFCURVE",
"67 199 OFFCURVE",
"67 168 CURVE SMOOTH",
"67 123 OFFCURVE",
"105 81 OFFCURVE",
"151 71 CURVE",
"208 124 LINE",
"167 124 OFFCURVE",
"142 137 OFFCURVE",
"142 175 CURVE SMOOTH",
"142 198 OFFCURVE",
"156 221 OFFCURVE",
"180 232 CURVE",
"180 260 LINE",
"99 260 LINE"
);
},
{
closed = 1;
nodes = (
"235 126 LINE",
"159 124 OFFCURVE",
"93 89 OFFCURVE",
"93 20 CURVE SMOOTH",
"93 -45 OFFCURVE",
"137 -83 OFFCURVE",
"217 -83 CURVE SMOOTH",
"262 -83 OFFCURVE",
"306 -68 OFFCURVE",
"335 -49 CURVE",
"335 26 LINE",
"313 0 OFFCURVE",
"268 -18 OFFCURVE",
"228 -18 CURVE SMOOTH",
"195 -18 OFFCURVE",
"168 -10 OFFCURVE",
"168 19 CURVE SMOOTH",
"168 51 OFFCURVE",
"195 68 OFFCURVE",
"235 69 CURVE"
);
},
{
closed = 1;
nodes = (
"410 -100 LINE",
"410 551 LINE",
"500 551 LINE",
"500 622 LINE",
"0 622 LINE",
"0 551 LINE",
"329 551 LINE",
"329 -100 LINE"
);
}
);
width = 490;
}
);
category = Letter;
},
{
glyphname = Gha.half;
lastChange = "2018-01-30 20:22:39 +0000";
layers = (
{
layerId = UUID0;
paths = (
{
closed = 1;
nodes = (
"370 200 LINE",
"339 182 OFFCURVE",
"299 172 OFFCURVE",
"251 172 CURVE SMOOTH",
"192 172 OFFCURVE",
"151 197 OFFCURVE",
"151 253 CURVE SMOOTH",
"151 303 OFFCURVE",
"187 330 OFFCURVE",
"248 332 CURVE",
"248 403 LINE",
"208 403 OFFCURVE",
"168 396 OFFCURVE",
"135 375 CURVE",
"125 361 LINE",
"87 334 OFFCURVE",
"70 293 OFFCURVE",
"70 250 CURVE SMOOTH",
"70 160 OFFCURVE",
"140 102 OFFCURVE",
"243 102 CURVE SMOOTH",
"293 102 OFFCURVE",
"337 114 OFFCURVE",
"370 128 CURVE"
);
},
{
closed = 1;
nodes = (
"205 400 LINE",
"149 401 OFFCURVE",
"111 420 OFFCURVE",
"111 476 CURVE SMOOTH",
"111 511 OFFCURVE",
"126 545 OFFCURVE",
"154 562 CURVE",
"102 596 LINE",
"57 570 OFFCURVE",
"30 534 OFFCURVE",
"30 479 CURVE SMOOTH",
"30 398 OFFCURVE",
"95 338 OFFCURVE",
"195 338 CURVE"
);
},
{
closed = 1;
nodes = (
"370 622 LINE",
"0 622 LINE",
"0 551 LINE",
"370 551 LINE"
);
}
);
width = 360;
}
);
category = Letter;
},
{
glyphname = Nga.icd;
lastChange = "2018-01-30 20:22:39 +0000";
layers = (
{
layerId = UUID0;
paths = (
{
closed = 1;
nodes = (
"505 622 LINE",
"0 622 LINE",
"0 551 LINE",
"505 551 LINE"
);
},
{
closed = 1;
nodes = (
"241 596 LINE",
"203 490 OFFCURVE",
"60 458 OFFCURVE",
"60 337 CURVE SMOOTH",
"60 267 OFFCURVE",
"116 227 OFFCURVE",
"173 227 CURVE SMOOTH",
"214 227 OFFCURVE",
"236 242 OFFCURVE",
"252 261 CURVE",
"269 237 OFFCURVE",
"296 227 OFFCURVE",
"325 227 CURVE SMOOTH",
"382 227 OFFCURVE",
"411 268 OFFCURVE",
"411 319 CURVE SMOOTH",
"411 366 OFFCURVE",
"392 413 OFFCURVE",
"322 413 CURVE SMOOTH",
"265 413 OFFCURVE",
"243 376 OFFCURVE",
"226 341 CURVE SMOOTH",
"213 315 OFFCURVE",
"202 293 OFFCURVE",
"176 293 CURVE SMOOTH",
"160 293 OFFCURVE",
"140 309 OFFCURVE",
"140 340 CURVE SMOOTH",
"140 422 OFFCURVE",
"279 480 OFFCURVE",
"313 581 CURVE"
);
},
{
closed = 1;
nodes = (
"337 354 OFFCURVE",
"345 341 OFFCURVE",
"345 321 CURVE SMOOTH",
"345 300 OFFCURVE",
"334 288 OFFCURVE",
"322 288 CURVE SMOOTH",
"310 288 OFFCURVE",
"293 296 OFFCURVE",
"289 324 CURVE",
"297 341 OFFCURVE",
"307 354 OFFCURVE",
"321 354 CURVE SMOOTH"
);
}
);
width = 495;
}
);
category = Letter;
},
{
glyphname = Nga.cd;
lastChange = "2018-01-30 20:22:39 +0000";
layers = (
{
layerId = UUID0;
paths = (
{
closed = 1;
nodes = (
"-257 280 LINE",
"-257 250 LINE SMOOTH",
"-257 171 OFFCURVE",
"-431 118 OFFCURVE",
"-431 5 CURVE SMOOTH",
"-431 -60 OFFCURVE",
"-380 -100 OFFCURVE",
"-322 -100 CURVE SMOOTH",
"-282 -100 OFFCURVE",
"-257 -85 OFFCURVE",
"-239 -66 CURVE",
"-220 -90 OFFCURVE",
"-191 -100 OFFCURVE",
"-166 -100 CURVE SMOOTH",
"-110 -100 OFFCURVE",
"-80 -56 OFFCURVE",
"-80 -8 CURVE SMOOTH",
"-80 40 OFFCURVE",
"-105 86 OFFCURVE",
"-169 86 CURVE SMOOTH",
"-226 86 OFFCURVE",
"-248 49 OFFCURVE",
"-265 14 CURVE SMOOTH",
"-277 -10 OFFCURVE",
"-292 -34 OFFCURVE",
"-315 -34 CURVE SMOOTH",
"-331 -34 OFFCURVE",
"-351 -24 OFFCURVE",
"-351 8 CURVE SMOOTH",
"-351 87 OFFCURVE",
"-176 138 OFFCURVE",
"-176 250 CURVE SMOOTH",
"-176 280 LINE"
);
},
{
closed = 1;
nodes = (
"-154 27 OFFCURVE",
"-146 14 OFFCURVE",
"-146 -6 CURVE SMOOTH",
"-146 -27 OFFCURVE",
"-157 -39 OFFCURVE",
"-169 -39 CURVE SMOOTH",
"-181 -39 OFFCURVE",
"-198 -31 OFFCURVE",
"-202 -3 CURVE",
"-194 14 OFFCURVE",
"-184 27 OFFCURVE",
"-170 27 CURVE SMOOTH"
);
}
);
width = 0;
}
);
category = Mark;
},
{
glyphname = Ca.icd;
lastChange = "2018-01-30 20:22:39 +0000";
layers = (
{
layerId = UUID0;
paths = (
{
closed = 1;
nodes = (
"559 622 LINE",
"0 622 LINE",
"0 551 LINE",
"388 551 LINE",
"388 250 LINE",
"469 250 LINE",
"469 551 LINE",
"559 551 LINE"
);
},
{
closed = 1;
nodes = (
"405 401 LINE",
"378 373 OFFCURVE",
"327 360 OFFCURVE",
"281 360 CURVE SMOOTH",
"209 360 OFFCURVE",
"188 395 OFFCURVE",
"174 430 CURVE",
"244 435 OFFCURVE",
"266 462 OFFCURVE",
"307 462 CURVE SMOOTH",
"351 462 OFFCURVE",
"379 450 OFFCURVE",
"390 444 CURVE",
"396 507 LINE",
"377 517 OFFCURVE",
"345 526 OFFCURVE",
"310 526 CURVE SMOOTH",
"251 526 OFFCURVE",
"173 477 OFFCURVE",
"84 477 CURVE",
"112 385 OFFCURVE",
"147 293 OFFCURVE",
"281 293 CURVE SMOOTH",
"329 293 OFFCURVE",
"381 308 OFFCURVE",
"405 324 CURVE"
);
}
);
width = 549;
}
);
category = Letter;
},
{
glyphname = Ca.cd;
lastChange = "2018-01-30 20:22:39 +0000";
layers = (
{
layerId = UUID0;
paths = (
{
closed = 1;
nodes = (
"-161 -100 LINE",
"-80 -100 LINE",
"-80 270 LINE",
"-161 270 LINE"
);
},
{
closed = 1;
nodes = (
"-144 66 LINE",
"-171 38 OFFCURVE",
"-222 25 OFFCURVE",
"-268 25 CURVE SMOOTH",
"-340 25 OFFCURVE",
"-361 60 OFFCURVE",
"-375 95 CURVE",
"-305 100 OFFCURVE",
"-283 127 OFFCURVE",
"-242 127 CURVE SMOOTH",
"-198 127 OFFCURVE",
"-170 115 OFFCURVE",
"-159 109 CURVE",
"-153 172 LINE",
"-172 182 OFFCURVE",
"-204 191 OFFCURVE",
"-239 191 CURVE SMOOTH",
"-298 191 OFFCURVE",
"-376 142 OFFCURVE",
"-465 142 CURVE",
"-437 50 OFFCURVE",
"-402 -42 OFFCURVE",
"-268 -42 CURVE SMOOTH",
"-220 -42 OFFCURVE",
"-168 -27 OFFCURVE",
"-144 -11 CURVE"
);
}
);
width = 0;
}
);
category = Mark;
},
{
glyphname = Ca.half;
lastChange = "2018-01-30 20:22:39 +0000";
layers = (
{
layerId = UUID0;
paths = (
{
closed = 1;
nodes = (
"460 622 LINE",
"0 622 LINE",
"0 551 LINE",
"460 551 LINE"
);
},
{
closed = 1;
nodes = (
"410 447 LINE",
"383 459 OFFCURVE",
"344 470 OFFCURVE",
"305 470 CURVE SMOOTH",
"219 470 OFFCURVE",
"139 396 OFFCURVE",
"10 396 CURVE",
"24 356 OFFCURVE",
"36 312 OFFCURVE",
"47 270 CURVE SMOOTH",
"69 188 OFFCURVE",
"117 118 OFFCURVE",
"248 118 CURVE SMOOTH",
"310 118 OFFCURVE",
"375 144 OFFCURVE",
"410 167 CURVE",
"410 252 LINE",
"372 212 OFFCURVE",
"307 188 OFFCURVE",
"245 188 CURVE SMOOTH",
"180 188 OFFCURVE",
"150 226 OFFCURVE",
"133 271 CURVE SMOOTH",
"122 301 OFFCURVE",
"112 327 OFFCURVE",
"105 346 CURVE",
"206 352 OFFCURVE",
"238 400 OFFCURVE",
"298 400 CURVE SMOOTH",
"349 400 OFFCURVE",
"389 382 OFFCURVE",
"410 369 CURVE"
);
}
);
width = 450;
}
);
category = Letter;
},
{
glyphname = Cha.icd;
lastChange = "2018-01-30 20:22:39 +0000";
layers = (
{
layerId = UUID0;
paths = (
{
closed = 1;
nodes = (
"259 361 LINE SMOOTH",
"259 304 OFFCURVE",
"231 265 OFFCURVE",
"190 265 CURVE SMOOTH",
"157 265 OFFCURVE",
"141 277 OFFCURVE",
"141 298 CURVE SMOOTH",
"141 339 OFFCURVE",
"190 363 OFFCURVE",
"268 363 CURVE SMOOTH",
"346 363 OFFCURVE",
"399 334 OFFCURVE",
"399 300 CURVE SMOOTH",
"399 279 OFFCURVE",
"383 265 OFFCURVE",
"358 265 CURVE SMOOTH",
"335 265 OFFCURVE",
"308 275 OFFCURVE",
"293 315 CURVE",
"258 255 LINE",
"283 218 OFFCURVE",
"339 207 OFFCURVE",
"366 207 CURVE SMOOTH",
"423 207 OFFCURVE",
"470 241 OFFCURVE",
"470 299 CURVE SMOOTH",
"470 378 OFFCURVE",
"371 421 OFFCURVE",
"268 421 CURVE SMOOTH",
"168 421 OFFCURVE",
"70 378 OFFCURVE",
"70 296 CURVE SMOOTH",
"70 242 OFFCURVE",
"109 207 OFFCURVE",
"182 207 CURVE SMOOTH",
"256 207 OFFCURVE",
"340 263 OFFCURVE",
"340 367 CURVE SMOOTH",
"340 467 LINE",
"259 467 LINE"
);
},
{
closed = 1;
nodes = (
"283 445 LINE",
"264 430 OFFCURVE",
"232 415 OFFCURVE",
"188 415 CURVE SMOOTH",
"136 415 OFFCURVE",
"133 440 OFFCURVE",
"122 459 CURVE",
"173 461 OFFCURVE",
"184 478 OFFCURVE",
"215 478 CURVE SMOOTH",
"247 478 OFFCURVE",
"268 468 OFFCURVE",
"276 464 CURVE",
"291 514 LINE",
"275 520 OFFCURVE",
"248 529 OFFCURVE",
"217 529 CURVE SMOOTH",
"166 529 OFFCURVE",
"119 494 OFFCURVE",
"42 494 CURVE",
"67 439 OFFCURVE",
"67 361 OFFCURVE",
"182 361 CURVE SMOOTH",
"223 361 OFFCURVE",
"270 382 OFFCURVE",
"291 392 CURVE"
);
},
{
closed = 1;
nodes = (
"535 622 LINE",
"0 622 LINE",
"0 551 LINE",
"259 551 LINE",
"259 448 LINE",
"340 450 LINE",
"340 551 LINE",
"535 551 LINE"
);
}
);
width = 525;
}
);
category = Letter;
},
{
glyphname = Cha.cd;
lastChange = "2018-01-30 20:22:39 +0000";
layers = (
{
layerId = UUID0;
paths = (
{
closed = 1;
nodes = (
"-242 118 LINE",
"-261 103 OFFCURVE",
"-303 88 OFFCURVE",
"-337 88 CURVE SMOOTH",
"-389 88 OFFCURVE",
"-392 113 OFFCURVE",
"-403 132 CURVE",
"-352 134 OFFCURVE",
"-341 151 OFFCURVE",
"-310 151 CURVE SMOOTH",
"-278 151 OFFCURVE",
"-257 141 OFFCURVE",
"-249 137 CURVE",
"-234 187 LINE",
"-250 193 OFFCURVE",
"-277 202 OFFCURVE",
"-308 202 CURVE SMOOTH",
"-359 202 OFFCURVE",
"-406 167 OFFCURVE",
"-483 167 CURVE",
"-458 112 OFFCURVE",
"-458 34 OFFCURVE",
"-343 34 CURVE SMOOTH",
"-302 34 OFFCURVE",
"-255 55 OFFCURVE",
"-234 65 CURVE"
);
},
{
closed = 1;
nodes = (
"-266 121 LINE",
"-185 123 LINE",
"-185 270 LINE",
"-266 270 LINE"
);
},
{
closed = 1;
nodes = (
"-266 34 LINE SMOOTH",
"-266 -23 OFFCURVE",
"-294 -62 OFFCURVE",
"-335 -62 CURVE SMOOTH",
"-368 -62 OFFCURVE",
"-384 -50 OFFCURVE",
"-384 -29 CURVE SMOOTH",
"-384 12 OFFCURVE",
"-335 36 OFFCURVE",
"-257 36 CURVE SMOOTH",
"-179 36 OFFCURVE",
"-126 7 OFFCURVE",
"-126 -27 CURVE SMOOTH",
"-126 -48 OFFCURVE",
"-142 -62 OFFCURVE",
"-167 -62 CURVE SMOOTH",
"-190 -62 OFFCURVE",
"-217 -52 OFFCURVE",
"-232 -12 CURVE",
"-267 -72 LINE",
"-242 -109 OFFCURVE",
"-186 -120 OFFCURVE",
"-159 -120 CURVE SMOOTH",
"-102 -120 OFFCURVE",
"-55 -86 OFFCURVE",
"-55 -28 CURVE SMOOTH",
"-55 51 OFFCURVE",
"-154 94 OFFCURVE",
"-257 94 CURVE SMOOTH",
"-357 94 OFFCURVE",
"-455 51 OFFCURVE",
"-455 -31 CURVE SMOOTH",
"-455 -85 OFFCURVE",
"-416 -120 OFFCURVE",
"-343 -120 CURVE SMOOTH",
"-269 -120 OFFCURVE",
"-185 -64 OFFCURVE",
"-185 40 CURVE SMOOTH",
"-185 140 LINE",
"-266 140 LINE"
);
}
);
width = 0;
}
);
category = Mark;
},
{
glyphname = Ja.icd;
lastChange = "2018-01-30 20:22:39 +0000";
layers = (
{
layerId = UUID0;
paths = (
{
closed = 1;
nodes = (
"299 572 LINE",
"251 509 OFFCURVE",
"199 473 OFFCURVE",
"119 432 CURVE",
"114 375 LINE",
"187 375 OFFCURVE",
"289 365 OFFCURVE",
"289 309 CURVE SMOOTH",
"289 250 LINE",
"370 250 LINE",
"370 307 LINE SMOOTH",
"370 378 OFFCURVE",
"303 413 OFFCURVE",
"232 427 CURVE",
"288 462 OFFCURVE",
"361 527 OFFCURVE",
"380 590 CURVE"
);
},
{
closed = 1;
nodes = (
"578 342 LINE SMOOTH",
"578 453 OFFCURVE",
"442 546 OFFCURVE",
"361 597 CURVE",
"320 544 LINE",
"384 503 OFFCURVE",
"497 419 OFFCURVE",
"497 339 CURVE SMOOTH",
"497 -100 LINE",
"578 -100 LINE"
);
},
{
closed = 1;
nodes = (
"672 622 LINE",
"0 622 LINE",
"0 551 LINE",
"672 551 LINE"
);
}
);
width = 662;
}
);
category = Letter;
},
{
glyphname = Ja.cd;
lastChange = "2018-01-30 20:22:39 +0000";
layers = (
{
layerId = UUID0;
paths = (
{
closed = 1;
nodes = (
"-80 -100 LINE",
"-80 88 LINE SMOOTH",
"-80 161 OFFCURVE",
"-180 247 OFFCURVE",
"-233 280 CURVE",
"-307 280 LINE",
"-332 233 OFFCURVE",
"-358 204 OFFCURVE",
"-403 178 CURVE",
"-408 111 LINE",
"-354 111 OFFCURVE",
"-302 100 OFFCURVE",
"-302 52 CURVE SMOOTH",
"-302 11 OFFCURVE",
"-332 1 OFFCURVE",
"-357 1 CURVE SMOOTH",
"-390 1 OFFCURVE",
"-415 8 OFFCURVE",
"-452 29 CURVE",
"-480 -32 LINE",
"-440 -55 OFFCURVE",
"-406 -67 OFFCURVE",
"-361 -67 CURVE SMOOTH",
"-290 -67 OFFCURVE",
"-232 -24 OFFCURVE",
"-232 49 CURVE SMOOTH",
"-232 110 OFFCURVE",
"-264 143 OFFCURVE",
"-326 165 CURVE",
"-306 177 OFFCURVE",
"-284 197 OFFCURVE",
"-267 219 CURVE",
"-225 191 OFFCURVE",
"-161 140 OFFCURVE",
"-161 70 CURVE SMOOTH",
"-161 -100 LINE"
);
}
);
width = 0;
}
);
category = Mark;
},
{
glyphname = Jha.icd;
lastChange = "2018-01-30 20:22:39 +0000";
layers = (
{
layerId = UUID0;
paths = (
{
closed = 1;
nodes = (
"631 622 LINE",
"0 622 LINE",
"0 551 LINE",
"631 551 LINE"
);
},
{
closed = 1;
nodes = (
"460 250 LINE",
"541 250 LINE",
"541 577 LINE",
"460 577 LINE"
);
},
{
closed = 1;
nodes = (
"296 464 LINE",
"382 370 OFFCURVE",
"466 321 OFFCURVE",
"493 321 CURVE",
"469 408 LINE",
"446 409 OFFCURVE",
"388 460 OFFCURVE",
"345 509 CURVE"
);
},
{
closed = 1;
nodes = (
"56 436 LINE",
"148 341 OFFCURVE",
"240 285 OFFCURVE",
"269 285 CURVE SMOOTH",
"293 285 OFFCURVE",
"304 316 OFFCURVE",
"304 421 CURVE SMOOTH",
"304 592 LINE",
"223 592 LINE",
"223 391 LINE",
"201 398 OFFCURVE",
"149 437 OFFCURVE",
"104 488 CURVE"
);
}
);
width = 621;
}
);
category = Letter;
},
{
glyphname = Jha.cd;
lastChange = "2018-01-30 20:22:39 +0000";
layers = (
{
layerId = UUID0;
paths = (
{
closed = 1;
nodes = (
"691 622 LINE",
"0 622 LINE",
"0 551 LINE",
"691 551 LINE"
);
},
{
closed = 1;
nodes = (
"520 -100 LINE",
"601 -100 LINE",
"601 566 LINE",
"520 566 LINE"
);
},
{
closed = 1;
nodes = (
"311 200 LINE",
"430 76 OFFCURVE",
"510 49 OFFCURVE",
"559 31 CURVE",
"542 128 LINE",
"509 131 OFFCURVE",
"413 189 OFFCURVE",
"366 257 CURVE"
);
},
{
closed = 1;
nodes = (
"5 165 LINE",
"108 10 OFFCURVE",
"251 -85 OFFCURVE",
"289 -85 CURVE SMOOTH",
"313 -85 OFFCURVE",
"324 -54 OFFCURVE",
"324 51 CURVE SMOOTH",
"324 260 LINE",
"243 260 LINE",
"243 37 LINE",
"210 39 OFFCURVE",
"109 143 OFFCURVE",
"63 219 CURVE"
);
}
);
width = 681;
}
);
category = Letter;
},
{
glyphname = Jha.half;
lastChange = "2018-01-30 20:22:39 +0000";
layers = (
{
layerId = UUID0;
paths = (
{
closed = 1;
nodes = (
"571 622 LINE",
"0 622 LINE",
"0 551 LINE",
"571 551 LINE"
);
},
{
closed = 1;
nodes = (
"-15 265 LINE",
"88 110 OFFCURVE",
"231 15 OFFCURVE",
"269 15 CURVE SMOOTH",
"293 15 OFFCURVE",
"304 46 OFFCURVE",
"304 151 CURVE SMOOTH",
"304 592 LINE",
"223 592 LINE",
"223 137 LINE",
"190 139 OFFCURVE",
"89 243 OFFCURVE",
"43 319 CURVE"
);
},
{
closed = 1;
nodes = (
"540 239 LINE",
"503 251 OFFCURVE",
"411 343 OFFCURVE",
"366 407 CURVE",
"311 350 LINE",
"395 241 OFFCURVE",
"488 165 OFFCURVE",
"540 139 CURVE"
);
}
);
width = 561;
}
);
category = Letter;
},
